<?xml version="1.0" encoding="UTF-8" standalone="no"?>
<!-- Generator: Adobe Illustrator 27.5.0, SVG Export Plug-In . SVG Version: 6.00 Build 0)  -->

<svg
   version="1.1"
   id="Calque_1"
   x="0px"
   y="0px"
   viewBox="0 0 850.39 789.38"
   style="enable-background:new 0 0 850.39 789.38;"
   xml:space="preserve"
   sodipodi:docname="small ico.svg"
   inkscape:version="1.2.2 (732a01da63, 2022-12-09, custom)"
   xmlns:inkscape="http://www.inkscape.org/namespaces/inkscape"
   xmlns:sodipodi="http://sodipodi.sourceforge.net/DTD/sodipodi-0.dtd"
   xmlns:xlink="http://www.w3.org/1999/xlink"
   xmlns="http://www.w3.org/2000/svg"
   xmlns:svg="http://www.w3.org/2000/svg"><defs
   id="defs655">
	
	
	

		
		
	
			
			
		</defs><sodipodi:namedview
   id="namedview653"
   pagecolor="#505050"
   bordercolor="#eeeeee"
   borderopacity="1"
   inkscape:showpageshadow="0"
   inkscape:pageopacity="0"
   inkscape:pagecheckerboard="0"
   inkscape:deskcolor="#505050"
   showgrid="false"
   inkscape:zoom="0.51496111"
   inkscape:cx="862.20104"
   inkscape:cy="585.48111"
   inkscape:window-width="1920"
   inkscape:window-height="980"
   inkscape:window-x="1920"
   inkscape:window-y="0"
   inkscape:window-maximized="1"
   inkscape:current-layer="Calque_1" />
<style
   type="text/css"
   id="style18">
	.st0{fill:#FCE3E8;}
	.st1{fill:#EDEDED;}
	.st2{display:none;}
	.st3{display:inline;}
	.st4{display:inline;fill:#EDEDED;}
	.st5{clip-path:url(#SVGID_00000122689292624416572120000004884209282994774414_);}
	.st6{fill:#95C11F;}
	.st7{fill:#3AAA35;}
	.st8{fill:#45BEDE;}
	.st9{fill:#35B0E4;}
	.st10{display:inline;fill:#35B0E4;}
	.st11{display:inline;fill:#5FC3D8;}
	.st12{fill:#E6332A;}
	.st13{fill:#F39200;}
	.st14{fill:#E94E1B;}
	.st15{fill:#E30613;}
	.st16{fill:#D2091E;}
	.st17{fill:#F9B233;}
	.st18{fill:#FFFFFF;}
	.st19{fill:#181716;}
	.st20{fill:#EF7D81;}
	.st21{fill:#229938;}
	.st22{clip-path:url(#SVGID_00000088814661591223368770000013802758146420094625_);}
	.st23{fill:none;}
</style>
<g
   id="g586"
   inkscape:export-filename="./small ico.svg"
   inkscape:export-xdpi="97.762199"
   inkscape:export-ydpi="97.762199"
   transform="matrix(1.9962965,0,0,1.9962965,-391.45432,-154.8499)">
				<g
   id="g324">
					<path
   class="st6"
   d="m 210.31,398.41 c 2.26,3.82 5.04,7.74 8.43,11.69 11.83,13.77 33.88,13.87 55.19,10.77 24.45,-3.55 47.93,-11.32 53.87,-7.46 7.4,4.79 14.42,8.33 21.17,10.78 22.75,8.28 42.39,4.19 63.05,-6.15 5.97,-2.98 12.02,-6.49 18.26,-10.37 16.04,-9.98 40.69,-6.88 62.55,-11.42 24.81,-5.14 41.55,-21.18 42.5,-76.29 0.12,-6.87 5.23,-21.94 5.65,-28.56 2.13,-33.13 6.96,-51.59 6.96,-51.59 0,0 -119.85,-70.17 -179.08,-65.17 -8.66,0.73 -16.03,3.07 -21.54,7.47 -28.31,22.65 -43.2,57.46 -53.65,88.65 0,0.01 0,0.01 0,0.01 -5.48,16.32 -9.73,31.65 -14.05,43.71 -12.58,35.09 -77.1,38.36 -77.1,38.36 0,0 -6.89,20.78 7.79,45.57 z"
   id="path306" />
					<g
   id="g322">
						<g
   id="g310">
							<path
   class="st7"
   d="m 412.02,418.03 c 5.97,-2.98 12.02,-6.49 18.26,-10.37 16.04,-9.98 40.69,-6.88 62.55,-11.42 2.61,-6.11 6.22,-15.74 8.24,-27.38 8.14,-46.77 -17.38,-78.97 -1.99,-96.87 4.03,-4.69 11.42,-9.05 10.82,-11.32 -0.56,-2.11 -7.47,-0.33 -8.31,-0.07 -10.78,3.28 -20.83,11.79 -28.29,21.67 -7.46,9.88 -12.63,21.08 -17.12,32.25 -4.88,12.15 -9.06,24.44 -12.49,36.78 -4.5,16.12 -7.92,32.73 -16.8,47.79 -4.09,6.92 -9.2,13.22 -14.87,18.94 z"
   id="path308" />
						</g>
						<g
   id="g314">
							<path
   class="st7"
   d="m 273.92,420.86 c 24.45,-3.55 47.93,-11.32 53.87,-7.46 7.4,4.79 14.42,8.33 21.17,10.78 1.03,-2.45 2.13,-4.92 3.23,-7.46 10,-23.04 18.32,-46.62 25.44,-70.12 4.68,-15.45 8.79,-31.8 5.23,-45.45 -2.56,-9.78 -8.83,-17.19 -14.97,-24.35 -2.94,-3.44 -7.38,-7.03 -12.18,-4.14 -2.32,1.4 -3.9,3.94 -5.35,6.33 -16.67,27.65 -33.43,55.47 -45.81,84.64 -8.39,19.78 -15.98,41.79 -30.63,57.23 z"
   id="path312" />
						</g>
						<g
   id="g318">
							<path
   class="st7"
   d="m 210.31,398.41 c 3.25,-5.59 7.49,-10.73 12.4,-14.93 10.86,-9.3 24.04,-13.53 35.86,-21.04 13.07,-8.31 24.41,-20.79 31.6,-34.81 6.88,-13.38 9.89,-27.64 13.71,-41.61 3.29,-12.05 7.25,-24.06 11.83,-35.96 3.1,-8.03 6.86,-22.62 13.32,-29.12 5.86,-5.91 12.96,-5.13 19.43,-11.87 7.32,-7.62 14.44,-16.33 18.24,-26.04 1.07,-2.74 1.8,-5.59 2.17,-8.41 -8.66,0.73 -16.03,3.07 -21.54,7.47 -43.14,34.51 -55.12,97.28 -67.7,132.36 -12.58,35.09 -77.1,38.36 -77.1,38.36 0,0 -6.9,20.81 7.78,45.6 z"
   id="path316" />
						</g>
						<path
   class="st7"
   d="m 293.69,270.75 c -0.01,0.01 -0.01,0.01 0,0 0.4,68.49 62.33,111.3 128.32,101.93 42.13,-5.99 78.56,-27.1 109.09,-65.55 2.13,-33.13 16.85,-67.34 16.85,-67.34 0,0 -119.85,-70.17 -179.08,-65.17 -8.66,0.73 -16.03,3.07 -21.54,7.47 -28.31,22.66 -43.19,57.48 -53.64,88.66 z"
   id="path320" />
					</g>
				</g>
				<g
   id="g386">
					<g
   id="g372">
						<g
   class="st2"
   id="g358">
							<g
   class="st3"
   id="g328">
								<path
   class="st8"
   d="m 565.21,183.8 c 0.18,-1.34 0.41,-3.23 1.56,-4.91 0.3,-0.47 0.68,-0.91 1.14,-1.34 0.65,-0.58 1.39,-1.03 2.21,-1.37 0.04,-0.02 0.08,-0.04 0.12,-0.06 0,-1.61 0.22,-3.32 0.86,-5.03 0.13,-0.34 0.28,-0.68 0.43,-1 0.51,-1.07 1.16,-2.01 1.97,-2.84 1.44,-1.49 3.25,-2.6 5.22,-3.23 1.09,-0.35 2.22,-0.54 3.36,-0.59 0.51,-0.02 1.04,0 1.55,0.04 0.22,-0.37 0.44,-0.73 0.69,-1.08 l 0.19,-0.22 c 1.17,-1.08 2.5,-1.97 3.91,-2.66 2.22,-1.05 4.39,-1.46 6.32,-1.53 1.37,-0.05 2.59,0.07 3.62,0.23 0.71,-0.69 1.67,-1.48 2.98,-2.1 1.52,-0.71 2.98,-0.97 4.21,-1.01 1.38,-0.06 2.48,0.14 3.06,0.26 1.21,0.22 3.37,0.63 5.32,2.25 0.15,0.12 0.29,0.26 0.44,0.39 1.39,1.31 2.15,2.9 2.55,4.44 0.11,0.4 0.19,0.79 0.24,1.18 0.38,2.36 0.02,4.43 -0.1,5.05 -0.31,1.5 -0.6,2.24 -1.02,3 0.04,0.1 0.09,0.2 0.14,0.3 1.03,2.33 2.21,5.67 2.7,9.84 0.59,4.92 -0.01,8.99 -0.61,11.64 0.45,0.02 0.9,0.06 1.34,0.14 0,0 0.38,0.06 0.74,0.15 0.03,0.01 0.05,0.01 0.08,0.02 0.76,0.18 4.57,2.04 5.59,6.18 0.13,0.56 0.21,1.1 0.23,1.62 0.1,2.14 -0.63,3.83 -0.95,4.49 -0.01,0 -0.01,0 -0.01,0 -0.29,0.38 -0.72,0.94 -1.28,1.59 0,0 -2.59,3.03 -5.39,5.12 -2.85,2.13 -8.31,4.34 -15.34,5.12 -1.31,0.13 -2.62,0.26 -3.94,0.38 -1.6,0.11 -3.86,0.22 -6.58,0.21 -1.66,-0.01 -2.75,-0.01 -4.22,-0.11 -3.25,-0.23 -6.3,-0.46 -9.07,-1.91 -0.48,-0.25 -0.97,-0.54 -1.44,-0.88 -0.49,-0.35 -0.86,-0.67 -1.08,-0.86 l -0.29,-0.26 c -1.72,-1.66 -2.85,-3.73 -3.22,-5.98 -0.4,-2.48 0.18,-4.59 0.82,-6.02 -0.9,-0.62 -1.79,-1.33 -2.64,-2.15 -0.71,-0.68 -1.39,-1.43 -2.03,-2.28 -1.32,-1.72 -2.23,-3.51 -2.85,-5.02 -0.28,-0.69 -0.49,-1.32 -0.66,-1.87 -0.49,-1.64 -1.25,-4.12 -0.87,-7.33 z"
   id="path326" />
							</g>
							<g
   class="st3"
   id="g334">
								<g
   id="g332">
									<path
   class="st9"
   d="m 565.21,183.8 c 0.22,-1.71 0.53,-4.29 2.7,-6.25 0.68,-0.6 1.46,-1.08 2.33,-1.42 0,-1.6 0.23,-3.31 0.86,-5.03 0.57,-1.51 1.35,-2.77 2.4,-3.84 1.41,-1.47 3.18,-2.57 5.13,-3.2 0.03,-0.01 0.06,-0.02 0.1,-0.03 1.08,-0.35 2.21,-0.54 3.36,-0.58 0.52,-0.02 1.04,-0.01 1.56,0.04 0.22,-0.37 0.44,-0.73 0.69,-1.08 l 0.19,-0.22 c 1.17,-1.08 2.49,-1.98 3.92,-2.66 1.68,-0.8 3.33,-1.22 4.87,-1.41 0.5,-0.07 0.98,-0.11 1.45,-0.13 1.37,-0.05 2.6,0.07 3.62,0.24 0.71,-0.7 1.68,-1.49 2.98,-2.1 1.52,-0.71 2.98,-0.97 4.21,-1.02 1.38,-0.05 2.48,0.15 3.06,0.26 1.21,0.23 3.38,0.63 5.32,2.25 0.15,0.12 0.29,0.26 0.44,0.39 1.39,1.32 2.15,2.9 2.56,4.44 -0.64,-0.74 -1.65,-1.73 -3.11,-2.5 -3.93,-2.07 -8.96,-1.43 -12.25,0.79 -2.75,1.85 -5.2,5.42 -5.2,5.42 0,0 -1.43,-0.51 -4.3,-1.54 -0.05,-0.02 -0.11,-0.03 -0.16,-0.04 -2.22,-0.55 -4.6,0.01 -6.58,1.16 -1.13,0.66 -2.15,1.49 -3.07,2.43 -1.02,1.04 -1.05,1.73 -1.93,2.19 -1.09,0.56 -1.66,0.01 -3.23,0.27 -0.2,0.03 -2.51,0.44 -3.86,2.14 -1.08,1.37 -0.52,2.3 -1.43,4.39 -0.83,1.93 -2.07,2.91 -2.73,3.61 -1.52,1.61 -2.99,4.88 -2.33,12.24 -0.28,-0.68 -0.5,-1.32 -0.66,-1.86 -0.53,-1.66 -1.3,-4.14 -0.91,-7.35 z"
   id="path330" />
								</g>
							</g>
							<g
   class="st3"
   id="g340">
								<g
   id="g338">
									<path
   class="st9"
   d="m 592.09,164.85 c 0.09,-1.52 0.38,-3.18 0.38,-3.18 0.2,-1.12 0.47,-2.3 0.83,-3.54 0.5,-0.07 0.98,-0.11 1.45,-0.13 1.37,-0.05 2.6,0.07 3.62,0.25 0,0 -1.57,3.19 -1.98,8.21 -0.09,1.13 -0.13,2.36 -0.07,3.66 0.15,3.42 1.97,5.43 1.04,6.6 -0.07,0.08 -0.42,0.51 -0.94,0.53 -2.25,0.08 -4.6,-7.86 -4.33,-12.4 z"
   id="path336" />
								</g>
							</g>
							<path
   class="st10"
   d="m 578.07,168.09 c 0.19,-1.55 0.38,-2.89 0.56,-4.03 0.03,-0.01 0.06,-0.02 0.1,-0.03 1.08,-0.35 2.21,-0.54 3.36,-0.58 0.52,-0.02 1.04,-0.01 1.56,0.04 0,0 -0.84,1.78 -1.36,4.68 -0.52,2.91 -0.71,6.96 0.62,11.49 0.71,2.43 -4.3,1.78 -4.98,-6.19 -0.14,-1.52 -0.11,-3.3 0.14,-5.38 z"
   id="path342" />
							<path
   class="st10"
   d="m 574.29,202.45 c 0,0 5.58,3.64 18.41,1.18 -0.96,0.26 -18.93,5.1 -13.21,12.81 -0.48,-0.25 -0.97,-0.54 -1.44,-0.88 -0.49,-0.35 -0.86,-0.67 -1.08,-0.86 l -0.29,-0.26 c -1.72,-1.66 -2.85,-3.73 -3.22,-5.98 -0.39,-2.47 0.19,-4.58 0.83,-6.01 z"
   id="path344" />
							<path
   class="st10"
   d="m 610.64,166.43 c 0,0 4.32,2.53 5.42,5.25 0.04,0.1 0.09,0.2 0.14,0.3 1.03,2.33 2.21,5.67 2.7,9.84 0.59,4.92 -0.01,8.99 -0.61,11.64 0.45,0.02 0.9,0.06 1.34,0.14 0,0 0.38,0.06 0.74,0.15 0.03,0.01 0.05,0.01 0.08,0.02 0.76,0.18 4.57,2.04 5.59,6.18 0.13,0.56 0.21,1.1 0.23,1.62 -5.1,-4.56 -16.76,-2.47 -16.76,-2.47 0.02,-0.01 0.03,-0.02 0.05,-0.02 2.7,-1.18 4.55,-3.74 4.87,-6.67 0.71,-6.74 1.21,-19.24 -3.79,-25.98 z"
   id="path346" />
							<path
   class="st10"
   d="m 570.24,176.13 c 0,-1.61 0.22,-3.32 0.86,-5.03 0.13,-0.34 0.28,-0.68 0.43,-1 0.37,1.44 0.66,3.58 0.66,3.58 0,0 0.07,1.43 0.23,3.54 0.39,4.95 1.27,13.6 2.79,16.16 2.1,3.53 -4.93,2.54 -5.13,-13.64 -0.01,-0.55 -0.01,-1.11 0,-1.7 0.01,-0.66 0.03,-1.28 0.03,-1.86 0.05,-0.02 0.09,-0.03 0.13,-0.05 z"
   id="path348" />
							<path
   class="st11"
   d="m 585.77,215.6 c -0.09,-1.14 11.57,-0.36 28.17,-7.59 4.15,-1.81 9.15,-4.36 9.69,-3.53 0.5,0.76 -3.09,3.96 -4.39,5.04 -12.35,10.25 -33.35,7.61 -33.47,6.08 z"
   id="path350" />
							<path
   class="st11"
   d="m 605.97,183.18 c 0.56,-9.84 0.84,-14.76 1.78,-14.9 1.85,-0.27 6.86,10.03 4.38,19.68 -1.23,4.77 -4.29,9.41 -5.68,9.02 -1.21,-0.34 -0.98,-4.83 -0.48,-13.8 z"
   id="path352" />
							<path
   class="st11"
   d="m 589.99,177.71 c -2.13,-5.11 -0.08,-10.86 0.65,-10.83 0.45,0.02 0.1,2.27 1.57,6.46 0.7,2 1.29,2.94 1.86,5.3 0.4,1.66 0.93,3.83 0.36,4.12 -0.72,0.36 -3.22,-2.12 -4.44,-5.05 z"
   id="path354" />
							<path
   class="st11"
   d="m 576.93,185.09 c -3.64,-4.37 -1.3,-12.43 -0.33,-12.43 0.48,0 0.29,1.91 2.07,8.31 1.02,3.66 1.79,5.59 1.19,5.97 -0.55,0.36 -2.04,-0.79 -2.93,-1.85 z"
   id="path356" />
						</g>
						<g
   id="g370">
							<g
   id="g362">
								<path
   class="st12"
   d="m 585.31,213.46 c 1.6,-0.17 3.17,-0.53 4.68,-1.09 0.56,-0.21 1.15,-0.48 1.46,-0.99 0.36,-0.59 0.26,-1.35 0.12,-2.03 -0.99,-5.02 -3,-9.84 -5.86,-14.08 -0.45,-0.66 -0.99,-1.36 -1.77,-1.53 -0.71,-0.15 -1.43,0.18 -2.08,0.51 -2.17,1.1 -4.29,2.31 -6.35,3.62 -1.11,0.71 -2.23,1.48 -2.88,2.62 -0.44,0.78 -0.63,1.68 -0.68,2.57 -0.23,3.7 1.91,7.45 5.22,9.13 2.45,1.25 5.34,1.4 7.77,2.67 z"
   id="path360" />
							</g>
							<g
   id="g366">
								<path
   class="st13"
   d="m 581.75,186.31 c 2.45,-3.03 6.27,-4.54 9.9,-5.95 3.31,-1.27 6.7,-2.56 10.25,-2.73 3.55,-0.18 7.34,0.96 9.53,3.75 0.44,0.56 0.8,1.17 1.11,1.81 0.6,1.23 1,2.57 1.39,3.89 0.95,3.18 1.9,6.36 2.84,9.54 0.76,2.55 1.52,5.14 1.5,7.8 -0.14,14.15 -20.33,23.3 -31.33,15.94 -2.01,-1.34 -3.71,-3.23 -4.92,-5.74 -1.89,-3.89 -2.56,-8.26 -3.02,-12.57 -0.58,-5.42 -0.7,-11.48 2.75,-15.74 z"
   id="path364" />
							</g>
							<path
   class="st14"
   d="m 581.75,186.31 c 2.45,-3.03 6.27,-4.54 9.9,-5.95 3.31,-1.27 6.7,-2.56 10.25,-2.73 3.55,-0.18 7.34,0.96 9.53,3.75 0.44,0.56 0.8,1.17 1.11,1.81 -5.26,0.5 -13.29,2.28 -21.37,8 -9.75,6.92 -6.79,21.35 -4.23,29.17 -2.01,-1.34 -3.71,-3.23 -4.92,-5.74 -1.89,-3.89 -2.56,-8.26 -3.02,-12.57 -0.58,-5.42 -0.7,-11.48 2.75,-15.74 z"
   id="path368" />
						</g>
					</g>
					<path
   class="st15"
   d="m 608.37,207.84 -13.17,4.89 c 0.12,0.32 11.74,32.49 -2.56,50.53 -3.34,4.22 -9,5.42 -15.54,4.87 -3.6,4.79 -9.46,7.74 -15.89,7.33 -0.31,-0.02 -0.62,-0.05 -0.93,-0.08 -0.35,1.02 -0.72,2.06 -1.11,3.12 25.75,8.38 38.39,1.17 44.48,-6.5 19.25,-24.28 5.33,-62.55 4.72,-64.16 z"
   id="path374" />
					<path
   class="st15"
   d="m 563.12,265.01 c 4.76,1.58 9.57,2.75 13.98,3.12 2.08,-2.77 3.4,-6.15 3.64,-9.86 0.64,-10.14 -7.05,-18.88 -17.19,-19.53 -0.32,-0.02 -0.65,-0.03 -0.97,-0.04 1.83,6.01 2.9,14.72 0.54,26.31 z"
   id="path376" />
					<path
   class="st15"
   d="m 560.29,275.38 c 0.31,0.04 0.62,0.06 0.93,0.08 6.43,0.41 12.29,-2.54 15.89,-7.33 -4.41,-0.37 -9.22,-1.54 -13.98,-3.12 -0.67,3.23 -1.6,6.68 -2.84,10.37 z"
   id="path378" />
					<path
   class="st16"
   d="m 544,256.69 c -2.89,-1.53 -5.36,-2.98 -7.2,-4.14 l -7.54,11.86 c 0.52,0.33 12.88,8.14 27.63,13.32 0.78,0.27 1.54,0.53 2.29,0.77 0.4,-1.06 0.77,-2.1 1.11,-3.12 -9.43,-1.08 -16.51,-9.19 -16.29,-18.69 z"
   id="path380" />
					<path
   class="st16"
   d="m 544.03,255.93 c -0.02,0.25 -0.02,0.51 -0.03,0.76 5.38,2.85 12.2,6.02 19.12,8.32 2.36,-11.59 1.29,-20.29 -0.54,-26.3 -9.72,-0.12 -17.93,7.41 -18.55,17.22 z"
   id="path382" />
					<path
   class="st16"
   d="m 544,256.69 c -0.22,9.5 6.86,17.61 16.29,18.69 1.25,-3.68 2.18,-7.14 2.83,-10.37 -6.92,-2.3 -13.75,-5.47 -19.12,-8.32 z"
   id="path384" />
				</g>
				<g
   id="g436">
					<path
   class="st15"
   d="m 246.84,205.41 c -0.8,1.53 -19.46,37.72 -3.44,64.23 5.22,8.63 17.37,17.66 45.67,11.61 15.28,-3.27 28.53,-9.45 29.09,-9.71 l -5.98,-12.72 c -11.91,5.58 -47.9,18.21 -56.75,3.55 -11.91,-19.71 3.7,-50.14 3.86,-50.45 z"
   id="path388" />
					<g
   class="st2"
   id="g422">
						<g
   class="st3"
   id="g392">
							<path
   class="st8"
   d="m 292.71,187.03 c -0.01,-1.35 0,-3.25 -0.92,-5.07 -0.24,-0.5 -0.56,-0.99 -0.96,-1.47 -0.57,-0.66 -1.25,-1.2 -2.02,-1.64 -0.03,-0.02 -0.07,-0.05 -0.12,-0.07 0.21,-1.59 0.2,-3.32 -0.22,-5.1 -0.08,-0.36 -0.19,-0.71 -0.3,-1.05 -0.37,-1.13 -0.9,-2.14 -1.59,-3.06 -1.24,-1.66 -2.89,-2.99 -4.77,-3.87 -1.03,-0.48 -2.13,-0.82 -3.26,-1.01 -0.51,-0.08 -1.03,-0.14 -1.55,-0.15 -0.17,-0.39 -0.34,-0.78 -0.55,-1.15 l -0.16,-0.24 c -1.03,-1.22 -2.23,-2.27 -3.55,-3.13 -2.07,-1.32 -4.17,-2 -6.08,-2.32 -1.35,-0.23 -2.58,-0.26 -3.62,-0.23 -0.61,-0.78 -1.47,-1.68 -2.69,-2.46 -1.41,-0.9 -2.83,-1.33 -4.05,-1.54 -1.36,-0.23 -2.47,-0.17 -3.07,-0.13 -1.23,0.07 -3.43,0.2 -5.56,1.55 -0.16,0.1 -0.32,0.22 -0.49,0.34 -1.54,1.13 -2.5,2.6 -3.1,4.08 -0.16,0.38 -0.29,0.76 -0.39,1.14 -0.68,2.29 -0.58,4.39 -0.54,5.03 0.12,1.53 0.31,2.3 0.63,3.1 -0.06,0.1 -0.11,0.18 -0.17,0.28 -1.32,2.18 -2.91,5.35 -3.93,9.42 -1.21,4.8 -1.13,8.92 -0.87,11.62 -0.45,-0.04 -0.9,-0.05 -1.34,-0.03 0,0 -0.38,0.01 -0.76,0.05 -0.03,0.01 -0.05,0 -0.08,0.01 -0.77,0.08 -4.79,1.44 -6.33,5.42 -0.2,0.54 -0.35,1.07 -0.43,1.58 -0.37,2.11 0.14,3.88 0.37,4.58 0.01,0 0.01,0 0.01,0 0.24,0.42 0.6,1.02 1.06,1.74 0,0 2.19,3.34 4.69,5.76 2.56,2.47 7.69,5.36 14.57,7.02 1.28,0.29 2.57,0.59 3.86,0.87 1.57,0.31 3.8,0.71 6.5,1.04 1.65,0.2 2.72,0.34 4.2,0.42 3.25,0.19 6.31,0.34 9.24,-0.75 0.51,-0.19 1.03,-0.41 1.54,-0.69 0.53,-0.28 0.94,-0.55 1.18,-0.72 l 0.32,-0.22 c 1.92,-1.43 3.3,-3.34 3.95,-5.52 0.71,-2.4 0.4,-4.57 -0.05,-6.07 0.97,-0.5 1.94,-1.09 2.89,-1.79 0.79,-0.58 1.56,-1.25 2.3,-2 1.53,-1.54 2.66,-3.2 3.46,-4.62 0.36,-0.65 0.66,-1.25 0.89,-1.77 0.76,-1.58 1.83,-3.94 1.86,-7.18 z"
   id="path390" />
						</g>
						<g
   class="st3"
   id="g398">
							<g
   id="g396">
								<path
   class="st9"
   d="m 292.71,187.04 c 0,-1.72 0.01,-4.32 -1.88,-6.54 -0.6,-0.68 -1.31,-1.25 -2.14,-1.71 0.2,-1.59 0.19,-3.32 -0.22,-5.09 -0.37,-1.57 -0.99,-2.92 -1.89,-4.12 -1.21,-1.64 -2.83,-2.95 -4.68,-3.82 -0.03,-0.01 -0.06,-0.03 -0.09,-0.04 -1.03,-0.48 -2.13,-0.81 -3.26,-1 -0.51,-0.09 -1.03,-0.14 -1.55,-0.16 -0.17,-0.39 -0.35,-0.78 -0.55,-1.15 l -0.16,-0.24 c -1.03,-1.22 -2.22,-2.28 -3.55,-3.13 -1.56,-1 -3.14,-1.63 -4.65,-2.01 -0.48,-0.13 -0.96,-0.23 -1.42,-0.31 -1.35,-0.23 -2.58,-0.26 -3.62,-0.23 -0.62,-0.78 -1.48,-1.69 -2.69,-2.46 -1.42,-0.9 -2.83,-1.34 -4.04,-1.54 -1.36,-0.23 -2.48,-0.17 -3.07,-0.13 -1.23,0.07 -3.43,0.2 -5.56,1.56 -0.16,0.1 -0.32,0.22 -0.48,0.33 -1.54,1.13 -2.5,2.6 -3.1,4.08 0.73,-0.65 1.85,-1.51 3.4,-2.09 4.16,-1.56 9.07,-0.28 12.05,2.33 2.49,2.18 4.47,6.03 4.47,6.03 0,0 1.49,-0.33 4.46,-0.98 0.05,-0.01 0.11,-0.02 0.16,-0.02 2.27,-0.27 4.56,0.6 6.38,1.98 1.04,0.79 1.94,1.75 2.74,2.8 0.88,1.17 0.82,1.85 1.64,2.41 1.01,0.7 1.65,0.23 3.17,0.67 0.19,0.06 2.43,0.75 3.55,2.61 0.9,1.5 0.23,2.35 0.86,4.54 0.58,2.02 1.68,3.15 2.25,3.93 1.31,1.79 2.35,5.22 0.76,12.44 0.36,-0.64 0.66,-1.24 0.9,-1.77 0.71,-1.58 1.78,-3.94 1.81,-7.17 z"
   id="path394" />
							</g>
						</g>
						<g
   class="st3"
   id="g404">
							<g
   id="g402">
								<path
   class="st9"
   d="m 268.44,164.83 c 0.1,-1.52 0.03,-3.2 0.03,-3.2 -0.05,-1.14 -0.17,-2.34 -0.38,-3.62 -0.48,-0.13 -0.96,-0.23 -1.42,-0.31 -1.35,-0.23 -2.59,-0.26 -3.63,-0.21 0,0 1.15,3.37 0.93,8.39 -0.05,1.14 -0.17,2.36 -0.39,3.64 -0.58,3.38 -2.64,5.13 -1.87,6.42 0.06,0.09 0.35,0.56 0.86,0.65 2.23,0.35 5.57,-7.22 5.87,-11.76 z"
   id="path400" />
							</g>
						</g>
						<path
   class="st10"
   d="m 281.94,169.82 c 0.01,-1.57 -0.01,-2.92 -0.05,-4.07 -0.03,-0.01 -0.06,-0.03 -0.09,-0.04 -1.03,-0.48 -2.13,-0.81 -3.26,-1 -0.51,-0.09 -1.03,-0.14 -1.55,-0.16 0,0 0.61,1.87 0.76,4.82 0.14,2.95 -0.18,6.99 -2.07,11.32 -1.01,2.32 4.04,2.31 5.72,-5.51 0.33,-1.5 0.53,-3.26 0.54,-5.36 z"
   id="path406" />
						<path
   class="st10"
   d="m 281.33,204.39 c 0,0 -5.99,2.91 -18.41,-1.16 0.92,0.38 18.13,7.46 11.48,14.38 0.51,-0.19 1.03,-0.41 1.54,-0.69 0.53,-0.28 0.94,-0.55 1.18,-0.72 l 0.32,-0.22 c 1.92,-1.43 3.3,-3.34 3.95,-5.52 0.7,-2.41 0.4,-4.57 -0.06,-6.07 z"
   id="path408" />
						<path
   class="st10"
   d="m 249.84,164.05 c 0,0 -4.6,1.97 -6.04,4.52 -0.06,0.1 -0.11,0.18 -0.17,0.28 -1.32,2.18 -2.91,5.35 -3.93,9.42 -1.21,4.8 -1.13,8.92 -0.87,11.62 -0.45,-0.04 -0.9,-0.05 -1.34,-0.03 0,0 -0.38,0.01 -0.76,0.05 -0.03,0.01 -0.05,0 -0.08,0.01 -0.77,0.08 -4.79,1.44 -6.33,5.42 -0.2,0.54 -0.35,1.07 -0.43,1.58 5.63,-3.88 16.94,-0.32 16.94,-0.32 -0.02,-0.01 -0.03,-0.02 -0.05,-0.03 -2.53,-1.52 -4.04,-4.28 -3.98,-7.23 0.14,-6.77 1.23,-19.24 7.04,-25.29 z"
   id="path410" />
						<path
   class="st10"
   d="m 288.69,178.79 c 0.21,-1.59 0.2,-3.32 -0.22,-5.1 -0.08,-0.36 -0.19,-0.71 -0.3,-1.05 -0.55,1.38 -1.11,3.47 -1.11,3.47 0,0 -0.25,1.41 -0.68,3.48 -1.01,4.86 -2.98,13.33 -4.81,15.67 -2.53,3.23 4.57,3.14 6.82,-12.89 0.08,-0.54 0.15,-1.1 0.21,-1.68 0.07,-0.66 0.14,-1.27 0.2,-1.85 -0.03,-0.01 -0.07,-0.03 -0.11,-0.05 z"
   id="path412" />
						<path
   class="st11"
   d="m 268.29,215.98 c 0.24,-1.12 -11.43,-1.82 -26.98,-11.1 -3.89,-2.32 -8.52,-5.48 -9.16,-4.73 -0.59,0.69 2.56,4.32 3.71,5.56 10.94,11.73 32.11,11.77 32.43,10.27 z"
   id="path414" />
						<path
   class="st11"
   d="m 252.35,181.25 c 0.69,-9.83 1.04,-14.75 0.12,-15.01 -1.8,-0.5 -8.08,9.08 -6.84,18.96 0.61,4.88 3.06,9.88 4.5,9.67 1.24,-0.17 1.59,-4.66 2.22,-13.62 z"
   id="path416" />
						<path
   class="st11"
   d="m 268.9,177.85 c 2.76,-4.8 1.46,-10.76 0.73,-10.83 -0.45,-0.04 -0.39,2.24 -2.38,6.21 -0.95,1.89 -1.65,2.75 -2.52,5.02 -0.61,1.6 -1.41,3.68 -0.87,4.05 0.66,0.45 3.45,-1.69 5.04,-4.45 z"
   id="path418" />
						<path
   class="st11"
   d="m 280.91,186.83 c 4.16,-3.87 2.87,-12.16 1.9,-12.29 -0.47,-0.06 -0.53,1.86 -3.11,7.98 -1.47,3.5 -2.49,5.32 -1.94,5.77 0.51,0.43 2.14,-0.52 3.15,-1.46 z"
   id="path420" />
					</g>
					<g
   id="g434">
						<g
   id="g426">
							<path
   class="st12"
   d="m 269.01,213.92 c -1.56,-0.37 -3.08,-0.93 -4.5,-1.68 -0.53,-0.28 -1.08,-0.62 -1.33,-1.16 -0.28,-0.63 -0.09,-1.37 0.13,-2.03 1.62,-4.86 4.22,-9.38 7.6,-13.23 0.53,-0.6 1.15,-1.23 1.95,-1.3 0.73,-0.06 1.4,0.36 2,0.77 2.01,1.37 3.96,2.84 5.84,4.4 1.01,0.84 2.03,1.75 2.53,2.96 0.34,0.83 0.41,1.74 0.35,2.64 -0.24,3.7 -2.84,7.15 -6.33,8.4 -2.58,0.93 -5.47,0.71 -8.05,1.67 z"
   id="path424" />
						</g>
						<g
   id="g430">
							<path
   class="st13"
   d="m 275.98,187.43 c -2.05,-3.31 -5.64,-5.3 -9.07,-7.15 -3.12,-1.68 -6.32,-3.39 -9.82,-4 -3.49,-0.62 -7.41,0.02 -9.93,2.51 -0.51,0.5 -0.94,1.06 -1.33,1.65 -0.75,1.14 -1.32,2.42 -1.87,3.68 -1.35,3.03 -2.69,6.07 -4.03,9.11 -1.08,2.43 -2.16,4.9 -2.48,7.54 -1.65,14.06 17.22,25.68 29.06,19.78 2.16,-1.07 4.09,-2.73 5.61,-5.07 2.36,-3.62 3.58,-7.87 4.58,-12.08 1.28,-5.32 2.16,-11.31 -0.72,-15.97 z"
   id="path428" />
						</g>
						<path
   class="st14"
   d="m 275.98,187.43 c -2.05,-3.31 -5.64,-5.3 -9.07,-7.15 -3.12,-1.68 -6.32,-3.39 -9.82,-4 -3.49,-0.62 -7.41,0.02 -9.93,2.51 -0.51,0.5 -0.94,1.06 -1.33,1.65 5.16,1.16 12.9,3.95 20.18,10.65 8.8,8.1 4.03,22.04 0.5,29.47 2.16,-1.07 4.09,-2.73 5.61,-5.07 2.36,-3.62 3.58,-7.87 4.58,-12.08 1.28,-5.33 2.16,-11.32 -0.72,-15.98 z"
   id="path432" />
					</g>
				</g>
				<circle
   class="st15"
   cx="290.81"
   cy="259.84"
   r="18.389999"
   id="circle438" />
				<g
   id="g464">
					<g
   id="g442">
						<path
   class="st15"
   d="m 392.48,388.98 c -5.58,-0.63 -11.3,-1.03 -16.54,-3.16 -0.58,-0.24 -1.2,-0.5 -1.84,-0.79 0.47,-5.92 1.32,-13.32 2.83,-21.59 1.04,-5.74 2.27,-11.1 3.63,-16.37 1.92,-7.42 4.11,-14.66 6.49,-22.52 0.5,-1.65 0.92,-3 1.21,-3.94 l 17.58,6.1 c -0.05,0.15 -0.12,0.38 -0.21,0.66 -1.56,4.96 -5.39,17.25 -8.36,30.19 -0.56,2.41 -1.09,4.85 -1.56,7.27 -1.76,8.92 -2.73,17.09 -3.23,24.15 z"
   id="path440" />
					</g>
					<g
   id="g458">
						<g
   id="g448">
							<g
   id="g446">
								<path
   class="st13"
   d="m 403.3,435.87 c -0.48,2.29 -2.8,3.07 -4.71,3.27 -4.68,0.49 -9.39,0.09 -14.08,-0.01 -6.94,-0.15 -13.91,0.32 -20.82,1.42 -5.31,0.84 -10.77,2.04 -15.93,0.47 -1.12,-0.34 -2.31,-0.97 -3.11,-1.93 -0.51,-0.62 -0.85,-1.38 -0.91,-2.28 -0.06,-0.93 0.22,-1.85 0.57,-2.69 2.06,-5.01 6.49,-7.76 10.63,-10.13 4.95,-2.82 9.97,-5.61 15.3,-6.94 2.33,-0.58 4.24,-0.87 6.12,-0.82 0,0 0,-0.01 -0.01,-0.02 -0.23,-0.65 -8.34,-23.77 -5.85,-34.73 0.24,-1.04 1.12,-1.65 1.97,-1.38 0.07,0.02 0.15,0.05 0.23,0.07 2.86,0.92 9.09,2.71 15.52,3.25 1.43,0.12 2.86,0.17 4.28,0.15 0.18,0 0.36,-0.01 0.53,-0.01 1.58,-0.05 2.86,1.45 2.9,3.39 0.13,7.99 0.9,27.54 5.34,41.31 0.01,0.02 0.02,0.03 0.02,0.05 0.49,1.5 1.02,2.93 1.59,4.26 0.35,1.04 0.66,2.2 0.42,3.3 z"
   id="path444" />
							</g>
						</g>
						<g
   id="g452">
							<path
   class="st14"
   d="m 403.3,435.87 c -0.48,2.29 -2.8,3.07 -4.71,3.27 -4.68,0.49 -9.39,0.09 -14.08,-0.01 -6.94,-0.15 -13.91,0.32 -20.82,1.42 -5.31,0.84 -10.77,2.04 -15.93,0.47 -1.12,-0.34 -2.31,-0.97 -3.11,-1.93 1.94,-0.21 4.73,-0.55 8.07,-1.04 19.03,-2.8 16.34,-4.88 27.98,-6.27 3.52,-0.42 6.18,-0.52 8.02,-3.07 0.66,-0.91 2.7,-3.25 1.52,-11.48 -0.69,-4.83 -1.4,-9.65 -2.05,-14.49 -0.79,-5.8 -1.94,-12.03 -0.46,-17.79 0.13,-0.52 0.29,-1.03 0.49,-1.53 1.43,0.12 2.86,0.17 4.28,0.15 0.18,0 0.36,-0.01 0.53,-0.01 1.58,-0.05 2.86,1.45 2.9,3.39 0.13,7.99 0.9,27.54 5.34,41.31 0.01,0.02 0.02,0.03 0.02,0.05 0.49,1.5 1.02,2.93 1.59,4.26 0.35,1.04 0.66,2.2 0.42,3.3 z"
   id="path450" />
						</g>
						<path
   class="st17"
   d="m 379.79,393.03 c 2.43,8.81 2.69,20.56 1.11,20.94 -1.62,0.39 -5.06,-11.3 -4.45,-21.09 0.07,-1.08 0.29,-4.63 1.08,-4.77 0.86,-0.16 1.93,3.73 2.26,4.92 z"
   id="path454" />
						<path
   class="st17"
   d="m 375.22,421.05 c 0.1,0.86 -5.96,2.68 -8.8,3.54 -2.18,0.66 -11.84,3.57 -12.1,2.51 -0.21,-0.86 5.65,-4.5 12.25,-5.89 4.11,-0.87 8.56,-0.88 8.65,-0.16 z"
   id="path456" />
					</g>
					<g
   id="g462">
						<path
   class="st16"
   d="m 388.27,320.61 17.58,6.1 c -0.05,0.15 -0.12,0.38 -0.21,0.66 -1.55,4.96 -5.39,17.25 -8.36,30.19 -2.93,-1.21 -5.78,-2.63 -8.55,-4.31 -2.85,-1.73 -5.6,-3.8 -8.17,-6.17 1.92,-7.42 4.11,-14.66 6.5,-22.52 0.5,-1.66 0.92,-3.02 1.21,-3.95 z"
   id="path460" />
					</g>
				</g>
				<g
   id="g490">
					<g
   id="g468">
						<path
   class="st15"
   d="m 465.16,391.45 c 5.57,-0.73 11.28,-1.22 16.48,-3.45 0.57,-0.25 1.19,-0.52 1.83,-0.82 -0.58,-5.92 -1.55,-13.3 -3.21,-21.54 -1.14,-5.72 -2.46,-11.06 -3.92,-16.31 -2.05,-7.38 -4.37,-14.58 -6.89,-22.4 -0.53,-1.64 -0.97,-2.99 -1.28,-3.92 l -17.47,6.4 c 0.05,0.15 0.13,0.38 0.22,0.65 1.64,4.93 5.69,17.16 8.89,30.04 0.6,2.4 1.17,4.83 1.69,7.24 1.92,8.92 3.03,17.07 3.66,24.11 z"
   id="path466" />
					</g>
					<g
   id="g484">
						<g
   id="g474">
							<g
   id="g472">
								<path
   class="st13"
   d="m 455.89,436.55 c 0.57,2.27 2.91,2.96 4.83,3.08 4.7,0.3 9.38,-0.27 14.07,-0.55 6.93,-0.42 13.91,-0.22 20.86,0.61 5.34,0.64 10.84,1.62 15.94,-0.15 1.11,-0.38 2.27,-1.06 3.03,-2.05 0.48,-0.64 0.8,-1.41 0.82,-2.32 0.02,-0.94 -0.29,-1.84 -0.67,-2.67 -2.26,-4.93 -6.78,-7.5 -11.02,-9.71 -5.05,-2.63 -10.18,-5.22 -15.55,-6.34 -2.35,-0.49 -4.27,-0.7 -6.14,-0.59 0,0 0,-0.01 0.01,-0.02 0.21,-0.65 7.41,-24.08 4.5,-34.93 -0.28,-1.03 -1.19,-1.6 -2.02,-1.3 -0.07,0.03 -0.15,0.05 -0.23,0.08 -2.82,1.03 -8.98,3.06 -15.38,3.85 -1.42,0.17 -2.85,0.28 -4.27,0.31 -0.18,0 -0.36,0.01 -0.53,0.01 -1.58,0.01 -2.81,1.56 -2.76,3.5 0.18,7.99 0.16,27.56 -3.73,41.48 -0.01,0.02 -0.02,0.03 -0.02,0.05 -0.43,1.52 -0.9,2.97 -1.42,4.32 -0.34,1.07 -0.59,2.25 -0.32,3.34 z"
   id="path470" />
							</g>
						</g>
						<g
   id="g478">
							<path
   class="st14"
   d="m 455.89,436.55 c 0.57,2.27 2.91,2.96 4.83,3.08 4.7,0.3 9.38,-0.27 14.07,-0.55 6.93,-0.42 13.91,-0.22 20.86,0.61 5.34,0.64 10.84,1.62 15.94,-0.15 1.11,-0.38 2.27,-1.06 3.03,-2.05 -1.95,-0.14 -4.75,-0.36 -8.11,-0.73 -19.13,-2.06 -16.52,-4.24 -28.2,-5.18 -3.53,-0.29 -6.2,-0.28 -8.13,-2.75 -0.69,-0.89 -2.83,-3.14 -1.97,-11.41 0.5,-4.85 1.02,-9.7 1.49,-14.56 0.56,-5.83 1.47,-12.1 -0.23,-17.79 -0.15,-0.51 -0.33,-1.02 -0.54,-1.51 -1.42,0.17 -2.85,0.28 -4.27,0.31 -0.18,0 -0.36,0.01 -0.53,0.01 -1.58,0.01 -2.81,1.56 -2.76,3.5 0.18,7.99 0.16,27.56 -3.73,41.48 -0.01,0.02 -0.02,0.03 -0.02,0.05 -0.43,1.52 -0.9,2.97 -1.42,4.32 -0.33,1.05 -0.58,2.23 -0.31,3.32 z"
   id="path476" />
						</g>
						<path
   class="st17"
   d="m 480.08,391.49 c -2.97,8.64 -3.97,20.36 -2.42,20.83 1.59,0.49 5.76,-10.96 5.76,-20.77 0,-1.08 0,-4.64 -0.78,-4.83 -0.85,-0.21 -2.16,3.6 -2.56,4.77 z"
   id="path480" />
						<path
   class="st17"
   d="m 481.29,419.52 c -0.07,0.86 6.06,2.45 8.93,3.2 2.2,0.57 11.97,3.11 12.18,2.03 0.17,-0.87 -5.82,-4.27 -12.46,-5.41 -4.15,-0.71 -8.6,-0.54 -8.65,0.18 z"
   id="path482" />
					</g>
					<g
   id="g488">
						<path
   class="st16"
   d="m 468.17,323.02 -17.47,6.41 c 0.05,0.15 0.13,0.38 0.22,0.65 1.64,4.93 5.69,17.16 8.89,30.04 2.91,-1.26 5.74,-2.73 8.47,-4.46 2.82,-1.78 5.53,-3.9 8.06,-6.31 -2.05,-7.38 -4.37,-14.58 -6.89,-22.41 -0.53,-1.64 -0.98,-2.99 -1.28,-3.92 z"
   id="path486" />
					</g>
				</g>
				<g
   id="g562">
					<path
   class="st15"
   d="m 429.64,154.77 c 33.84,2.25 67.32,13.4 88.83,31.09 28.61,23.52 39.71,67.7 21.97,100.91 -19.6,36.69 -60.6,52.98 -99.53,58.93 -39.66,6.06 -91.91,-1.45 -119.22,-33.25 -44.4,-51.7 -6.54,-133.43 53.08,-151.33 16.85,-5.06 37.28,-7.53 54.87,-6.35 z"
   id="path492" />
					<path
   class="st13"
   d="m 510.09,249.53 c -3.99,19.33 -26.5,30.36 -44.92,23.33 -23.08,-8.81 -31.85,-36 -16.41,-55.32 9.39,-11.72 24.14,-15.75 38.24,-10.7 15.22,5.45 26.28,27.25 23.09,42.69 z"
   id="path494" />
					<path
   class="st15"
   d="m 501.09,246.97 c -2.94,14.23 -19.52,22.36 -33.08,17.18 -16.99,-6.49 -23.46,-26.51 -12.08,-40.74 6.91,-8.63 17.78,-11.6 28.16,-7.88 11.2,4.02 19.35,20.07 17,31.44 z"
   id="path496" />
					<path
   class="st18"
   d="m 497.86,246.01 c -2.53,12.26 -16.81,19.27 -28.5,14.8 -14.64,-5.6 -20.21,-22.85 -10.41,-35.11 5.95,-7.44 15.32,-10 24.26,-6.79 9.66,3.47 16.68,17.29 14.65,27.1 z"
   id="path498" />
					<path
   class="st19"
   d="m 489.87,244.81 c -1.94,9.37 -12.85,14.72 -21.77,11.31 -11.18,-4.28 -15.44,-17.46 -7.95,-26.82 4.54,-5.69 11.7,-7.64 18.54,-5.19 7.36,2.65 12.72,13.21 11.18,20.7 z"
   id="path500" />
					<path
   class="st13"
   d="m 420.31,253.52 c -3.99,19.33 -26.5,30.36 -44.92,23.33 -23.08,-8.81 -31.85,-36 -16.41,-55.32 9.39,-11.72 24.14,-15.75 38.24,-10.7 15.22,5.45 26.28,27.25 23.09,42.69 z"
   id="path502" />
					<path
   class="st15"
   d="m 411.31,250.97 c -2.94,14.23 -19.52,22.36 -33.08,17.18 -16.99,-6.49 -23.46,-26.51 -12.08,-40.74 6.91,-8.63 17.78,-11.6 28.16,-7.88 11.2,4.02 19.35,20.07 17,31.44 z"
   id="path504" />
					<path
   class="st18"
   d="m 407.83,249.98 c -2.53,12.27 -16.82,19.27 -28.5,14.8 -14.64,-5.59 -20.21,-22.85 -10.41,-35.1 5.96,-7.44 15.32,-10 24.27,-6.79 9.64,3.46 16.66,17.29 14.64,27.09 z"
   id="path506" />
					<path
   class="st19"
   d="m 402.33,248.56 c -1.94,9.37 -12.85,14.72 -21.77,11.31 -11.19,-4.28 -15.44,-17.46 -7.95,-26.82 4.55,-5.68 11.7,-7.64 18.53,-5.18 7.37,2.64 12.74,13.21 11.19,20.69 z"
   id="path508" />
					<path
   class="st19"
   d="m 435.9,287.5 c 0.37,0.02 0.74,0.01 1.11,-0.03 1.57,-0.2 2.98,-1.1 4.07,-2.61 1.92,-2.64 2.45,-6.44 1.99,-8.82 -0.13,-0.68 -0.79,-1.11 -1.46,-0.99 -0.68,0.13 -1.12,0.78 -0.99,1.46 0.36,1.84 -0.13,4.92 -1.56,6.89 -0.69,0.95 -1.48,1.49 -2.36,1.6 -1.01,0.12 -1.91,-0.17 -2.76,-0.91 -1.97,-1.72 -3.18,-5.52 -3.21,-8.19 0,-0.69 -0.56,-1.25 -1.25,-1.24 -0.69,0.01 -1.25,0.57 -1.23,1.26 0.02,2.63 1.12,7.48 4.06,10.04 1.06,0.93 2.29,1.46 3.59,1.54 z"
   id="path510" />
					<path
   class="st20"
   d="m 493.18,281.9 c -2.51,3.72 -9.54,4.98 -14.88,4.82 -3.59,-0.11 -16.21,-1.43 -12.47,-5.69 4.3,-4.92 31.08,-4.66 27.35,0.87 z"
   id="path512" />
					<path
   class="st20"
   d="m 397.23,286.64 c -2.51,3.72 -9.54,4.98 -14.88,4.82 -3.6,-0.11 -16.21,-1.43 -12.47,-5.69 4.3,-4.93 31.09,-4.66 27.35,0.87 z"
   id="path514" />
					<path
   class="st19"
   d="m 464.42,199.76 c 0.45,0.03 0.88,-0.23 1.04,-0.68 0.07,-0.19 1.9,-4.75 8.83,-4.77 8.12,-0.04 10.44,6.01 10.46,6.07 0.2,0.54 0.79,0.81 1.33,0.61 0.53,-0.2 0.81,-0.79 0.61,-1.33 -0.11,-0.3 -2.86,-7.45 -12.41,-7.43 -8.43,0.03 -10.68,5.88 -10.77,6.13 -0.2,0.54 0.08,1.13 0.61,1.33 0.1,0.04 0.2,0.06 0.3,0.07 z"
   id="path516" />
					<path
   class="st19"
   d="m 370.18,207.96 c 0.5,0.03 0.96,-0.3 1.07,-0.81 0.06,-0.26 1.56,-6.38 9.55,-7.43 6.88,-0.91 9.3,3.36 9.4,3.54 0.27,0.5 0.9,0.69 1.4,0.42 0.5,-0.27 0.69,-0.89 0.42,-1.39 -0.12,-0.23 -3.14,-5.73 -11.5,-4.62 -9.47,1.25 -11.23,8.72 -11.29,9.04 -0.13,0.56 0.23,1.11 0.78,1.23 0.06,0 0.11,0.01 0.17,0.02 z"
   id="path518" />
					<path
   class="st16"
   d="m 414.99,326.03 c 45.54,-7.7 92.91,-33.84 97.91,-81.21 2.56,-22.95 1.7,-49.77 -10.83,-69.99 6,3.32 11.52,7 16.41,11.03 28.61,23.52 39.71,67.7 21.97,100.91 -19.6,36.69 -60.6,52.98 -99.53,58.93 -37.57,5.74 -86.43,-0.69 -114.69,-28.42 27.89,9.69 57.41,13.7 88.76,8.75 z"
   id="path520" />
					<path
   class="st21"
   d="m 425.49,148.76 c -0.43,0.11 -0.86,0.22 -1.3,0.32 0,0.01 0.46,-0.12 1.3,-0.32 z"
   id="path522" />
					<path
   class="st16"
   d="m 345.21,200.12 c -1.08,0.87 -3.08,3.79 -1.82,5.16 1.7,1.84 4.68,-0.86 5.02,-2.58 0.43,-2.19 -0.99,-4.37 -3.2,-2.58 z"
   id="path524" />
					<path
   class="st16"
   d="m 332.65,216.83 c -3.91,1.66 -8.75,7.39 -5.35,10.25 1.68,1.42 4.07,0.33 5.64,-1.09 1.81,-1.64 4.16,-5.08 3.76,-7.68 -0.34,-2.12 -2.08,-2.31 -4.05,-1.48 z"
   id="path526" />
					<path
   class="st16"
   d="m 336.5,207.35 c 0.58,-0.58 1.05,-1.15 1.32,-1.53 0.74,-1.04 1.31,-2.7 0.78,-3.93 -0.45,-1.04 -1.84,-1.12 -2.84,-0.93 -0.99,0.18 -1.95,0.91 -2.62,1.63 -1.23,1.31 -2.85,3.61 -2.22,5.51 0.99,2.98 3.79,1.04 5.58,-0.75 z"
   id="path528" />
					<g
   id="g544">
						<defs
   id="defs531">
							<path
   id="SVGID_00000016787893750371872840000010332009254727434939_"
   d="m 429.64,154.77 c 33.84,2.25 67.32,13.4 88.83,31.09 28.61,23.52 39.71,67.7 21.97,100.91 -19.6,36.69 -60.6,52.98 -99.53,58.93 -39.66,6.06 -91.91,-1.45 -119.22,-33.25 -44.4,-51.7 -6.54,-133.43 53.08,-151.33 16.85,-5.06 37.28,-7.53 54.87,-6.35 z" />
						</defs>
						<clipPath
   id="SVGID_00000111172371834100238880000001958768999727221640_">
							<use
   xlink:href="#SVGID_00000016787893750371872840000010332009254727434939_"
   style="overflow:visible"
   id="use533" />
						</clipPath>
						<g
   clip-path="url(#SVGID_00000111172371834100238880000001958768999727221640_)"
   id="g542">
							<path
   class="st23"
   d="m 400.71,170.43 c 0.84,-0.19 1.3,-0.32 1.3,-0.32 -0.44,0.1 -0.87,0.21 -1.3,0.32 z"
   id="path536" />
							<path
   class="st23"
   d="m 438.01,166.21 c -3.63,-0.03 -5.85,0.36 -5.85,0.36 2.03,-0.02 3.98,-0.14 5.85,-0.36 z"
   id="path538" />
							<path
   class="st16"
   d="m 438.01,166.21 c -1.87,0.22 -3.82,0.35 -5.85,0.36 -0.01,0 2.22,-0.39 5.85,-0.36 1.52,-0.18 2.99,-0.42 4.4,-0.72 15.24,-3.2 24.22,-12.89 29.07,-20.51 3.55,-5.56 4.91,-10.01 4.91,-10.01 -21.95,-2.84 -35.26,1.84 -43.13,7.3 -8.04,5.59 -10.37,11.99 -10.37,11.99 -0.02,-0.23 -0.05,-0.47 -0.08,-0.7 -3.77,-34.67 -36.59,-39.46 -36.59,-39.46 -0.1,1.5 -0.13,2.93 -0.14,4.33 -0.15,28.39 16.87,37.14 16.87,37.14 -0.29,-0.1 -0.59,-0.19 -0.88,-0.29 -40.56,-13.37 -55.36,6.86 -55.36,6.86 0.86,0.72 1.74,1.39 2.64,2.02 18.36,12.9 45.2,7.69 51.38,6.25 0.43,-0.11 0.86,-0.22 1.3,-0.32 0,0 -0.46,0.13 -1.3,0.32 -1.17,0.3 -2.28,0.65 -3.36,1.03 -17.65,6.32 -22.78,23.3 -22.78,23.3 1.06,0.16 2.1,0.3 3.11,0.42 41.94,5.13 46.04,-19.79 46.04,-19.79 15.48,16.35 36.29,11.09 45.27,7.67 2.79,-1.05 4.44,-1.93 4.44,-1.93 -9.21,-9.07 -19.26,-12.76 -27.14,-14.15 -3.19,-0.54 -6.03,-0.73 -8.3,-0.75 z"
   id="path540" />
						</g>
					</g>
					<g
   id="g558">
						<path
   class="st6"
   d="m 442.74,160.29 c -5,-1.75 -10.19,-2.99 -15.42,-3.73 5.22,0.74 10.42,1.98 15.42,3.73 -1.41,0.3 -2.88,0.55 -4.4,0.72 -3.63,-0.03 -5.85,0.36 -5.85,0.36 2.03,-0.02 3.99,-0.15 5.85,-0.36 2.28,0.02 5.11,0.21 8.3,0.78 8.7,3.63 16.59,8.94 22.71,16.09 -8.99,3.41 -29.79,8.68 -45.27,-7.67 0,0 -4.11,24.92 -46.04,19.79 4.62,-11.97 15.88,-19.94 27.55,-24.88 -2.64,0.32 -5.27,0.69 -7.89,1.15 1.07,-0.39 2.19,-0.73 3.36,-1.03 0.84,-0.19 1.3,-0.32 1.3,-0.32 -0.44,0.1 -0.87,0.21 -1.3,0.32 -6.17,1.44 -33.01,6.65 -51.38,-6.25 15.8,-12.46 41.99,-12.23 59.09,-2.27 -1.84,-2.62 -3.99,-4.79 -6.37,-6.61 0.29,0.1 0.59,0.19 0.88,0.29 0,0 -17.02,-8.75 -16.87,-37.14 19.45,7.07 36.92,19.2 35.14,40.31 0.5,-1.86 0.98,-3.51 1.59,-5.18 0.02,0.23 0.06,0.46 0.08,0.7 0,0 2.33,-6.4 10.37,-11.99 2.51,-1.38 5.22,-2.4 8.39,-2.77 9.72,-0.92 21.09,0.51 29.83,5.48 -4.86,7.6 -13.83,17.29 -29.07,20.48 z"
   id="path546" />
						<path
   class="st7"
   d="m 408.76,156.71 c -17.1,-9.96 -43.29,-10.18 -59.09,2.27 -0.9,-0.63 -1.78,-1.3 -2.64,-2.02 0,0 14.8,-20.23 55.36,-6.86 2.38,1.82 4.53,3.99 6.37,6.61 z"
   id="path548" />
						<path
   class="st7"
   d="m 441.98,134.31 c -3.17,0.37 -5.88,1.39 -8.39,2.77 7.86,-5.46 21.18,-10.14 43.13,-7.3 0,0 -1.36,4.45 -4.91,10.01 -8.74,-4.97 -20.11,-6.4 -29.83,-5.48 z"
   id="path550" />
						<path
   class="st7"
   d="m 397.69,166.27 c 2.61,-0.46 5.25,-0.83 7.89,-1.15 -11.67,4.94 -22.93,12.91 -27.55,24.88 -1.02,-0.13 -2.05,-0.26 -3.11,-0.42 -0.01,-0.01 5.12,-16.99 22.77,-23.31 z"
   id="path552" />
						<path
   class="st7"
   d="m 469.34,177.88 c -6.12,-7.15 -14.01,-12.46 -22.71,-16.09 7.89,1.4 17.94,5.08 27.14,14.15 0.01,0.01 -1.64,0.89 -4.43,1.94 z"
   id="path554" />
						<path
   class="st7"
   d="m 386.41,113.24 c 0.01,-1.4 0.04,-2.83 0.14,-4.33 0,0 32.82,4.79 36.59,39.46 -0.61,1.67 -1.1,3.32 -1.59,5.18 1.77,-21.1 -15.69,-33.24 -35.14,-40.31 z"
   id="path556" />
					</g>
					<path
   class="st13"
   d="m 398.1,210.88 c 0,0 19.03,12.54 63.64,-3.42 0,0 -18.23,22.83 -16.38,32.89 1.85,10.06 19.82,32.51 19.82,32.51 0,0 -32.1,-12.14 -59.36,0.78 l 8.38,-15.05 3.98,-18.35 -5.39,-15.27 -14.14,-6.63 z"
   id="path560" />
				</g>
				<circle
   class="st18"
   cx="479.13"
   cy="231.42999"
   r="3.4000001"
   id="circle564" />
				<circle
   class="st18"
   cx="390.60999"
   cy="235.07001"
   r="3.4000001"
   id="circle566" />
				<path
   class="st16"
   d="m 545.59,227.81 c 0.18,0.66 1.01,3.72 1.68,6.81 -0.48,-2.29 -1.04,-4.56 -1.68,-6.81 z"
   id="path568" />
				<path
   class="st13"
   d="m 547.96,238.5 c -0.15,-1.17 -0.41,-2.53 -0.7,-3.88 0.26,1.29 0.5,2.58 0.7,3.88 0,0 0,0 0,0 z"
   id="path570" />
				<path
   class="st13"
   d="m 545.55,227.67 c 0,0 0,0 0,0 0.01,0.05 0.02,0.09 0.04,0.14 -0.03,-0.09 -0.04,-0.14 -0.04,-0.14 z"
   id="path572" />
				<path
   class="st13"
   d="m 514.01,228.7 c -4.2,-0.28 -6.83,-0.6 -6.83,-0.6 0,0 -1.3,16.68 -1.08,17.05 0.21,0.37 3.99,4.38 3.99,4.38 0.74,-0.08 1.47,-0.17 2.21,-0.27 0.24,-1.46 0.44,-2.94 0.6,-4.44 0.58,-5.22 0.98,-10.63 1.11,-16.12 z"
   id="path574" />
				<path
   class="st14"
   d="m 547.26,234.62 c -0.66,-3.09 -1.49,-6.14 -1.68,-6.81 -0.01,-0.05 -0.03,-0.09 -0.04,-0.14 -11.71,1.86 -24.1,1.52 -31.53,1.02 -0.13,5.49 -0.53,10.91 -1.11,16.12 -0.16,1.5 -0.36,2.98 -0.6,4.44 18.79,-2.5 35.62,-10.73 35.66,-10.76 -0.2,-1.29 -0.44,-2.58 -0.7,-3.87 z"
   id="path576" />
				<path
   class="st13"
   d="m 514.05,223.43 c -8.12,-2.75 -12.96,-5.74 -12.96,-5.74 l 1.48,20.74 4.99,18.37 c 1.08,-0.11 2.13,-0.24 3.17,-0.37 1.01,-3.72 1.74,-7.58 2.17,-11.6 0.77,-6.89 1.22,-14.11 1.15,-21.4 z"
   id="path578" />
				<path
   class="st13"
   d="m 548.73,244.92 c -0.25,-8.2 -3.14,-17.11 -3.14,-17.11 1.61,5.59 2.67,11.33 3.14,17.11 0,0 0,0 0,0 z"
   id="path580" />
				<path
   class="st14"
   d="m 546.9,227.89 v 0 c -13.15,0.71 -24.59,-1.76 -32.8,-4.46 0.09,7.29 -0.36,14.51 -1.14,21.39 -0.43,4.02 -1.19,7.88 -2.23,11.6 24.28,-2.94 39.45,-11.39 39.48,-11.41 -0.49,-5.78 -1.61,-11.52 -3.31,-17.12 z"
   id="path582" />
				<path
   class="st13"
   d="m 357.1,244.9 0.5,-1.31 1.12,-6.76 1.25,-4.37 2.09,-5.76 -1.11,-3.26 0.64,-3.86 c 0,0 -6.13,2.98 -16.16,5.33 -9.75,2.29 -23.19,4 -38.29,1.8 v 0 c -2.53,6.35 -4.42,12.93 -5.59,19.61 0,0 21.99,16.39 58.96,20.42 l 0.63,-9.87 z"
   id="path584" />
			</g>
</svg>
