<?xml version="1.0" encoding="utf-8"?>
<!-- Generator: Adobe Illustrator 27.5.0, SVG Export Plug-In . SVG Version: 6.00 Build 0)  -->
<svg version="1.1" id="Calque_1" xmlns="http://www.w3.org/2000/svg" xmlns:xlink="http://www.w3.org/1999/xlink" x="0px" y="0px"
	 viewBox="0 0 850.39 789.38" style="enable-background:new 0 0 850.39 789.38;" xml:space="preserve">
<style type="text/css">
	.st0{fill:#FCE3E8;}
	.st1{fill:#EDEDED;}
	.st2{display:none;}
	.st3{display:inline;}
	.st4{display:inline;fill:#EDEDED;}
	.st5{clip-path:url(#SVGID_00000122689292624416572120000004884209282994774414_);}
	.st6{fill:#95C11F;}
	.st7{fill:#3AAA35;}
	.st8{fill:#45BEDE;}
	.st9{fill:#35B0E4;}
	.st10{display:inline;fill:#35B0E4;}
	.st11{display:inline;fill:#5FC3D8;}
	.st12{fill:#E6332A;}
	.st13{fill:#F39200;}
	.st14{fill:#E94E1B;}
	.st15{fill:#E30613;}
	.st16{fill:#D2091E;}
	.st17{fill:#F9B233;}
	.st18{fill:#FFFFFF;}
	.st19{fill:#181716;}
	.st20{fill:#EF7D81;}
	.st21{fill:#229938;}
	.st22{clip-path:url(#SVGID_00000088814661591223368770000013802758146420094625_);}
	.st23{fill:none;}
</style>
<g>
	<g>
		<circle class="st0" cx="420" cy="388.26" r="315.1"/>
		<g>
			<g>
				<g>
					<path class="st1" d="M209.13,432.56c2.37,0.69,5.27,1.39,8.78,2.09c12.24,2.45,34.29,2.31,55.49,1.57
						c24.33-0.84,47.56-2.45,53.62-1.78c7.54,0.83,14.67,1.43,21.49,1.83c22.99,1.36,42.5,0.46,62.83-1.61
						c5.88-0.6,11.82-1.29,17.93-2.05c15.72-1.96,40.47-1.57,62.17-2.58c24.64-1.13,40.89-4.22,40.15-14.4
						c-0.09-1.27,4.55-4.09,4.77-5.31c1.12-6.13,5.38-9.58,5.38-9.58s-121.94-12.05-180.98-10.69c-8.63,0.2-15.93,0.69-21.3,1.54
						c-27.6,4.39-41.42,10.93-50.91,16.77c0,0,0,0,0,0c-4.97,3.05-8.76,5.92-12.71,8.17c-11.5,6.57-75.89,7.66-75.89,7.66
						S193.7,428.1,209.13,432.56z"/>
					<g>
						<g>
							<path class="st1" d="M411.35,434.67c5.88-0.6,11.82-1.29,17.93-2.05c15.72-1.96,40.47-1.57,62.17-2.58
								c2.42-1.15,5.73-2.95,7.4-5.12c6.7-8.69-19.79-14.45-4.95-17.87c3.88-0.9,11.14-1.76,10.47-2.17c-0.63-0.39-7.48,0-8.3,0.05
								c-10.68,0.69-20.46,2.33-27.62,4.21c-7.16,1.88-11.98,3.99-16.12,6.08c-4.5,2.28-8.31,4.58-11.36,6.88
								c-4,3.01-6.91,6.1-15.33,8.95C421.75,432.37,416.84,433.57,411.35,434.67z"/>
						</g>
						<g>
							<path class="st1" d="M273.4,436.23c24.33-0.84,47.56-2.45,53.62-1.78c7.54,0.83,14.67,1.43,21.49,1.83
								c0.95-0.46,1.98-0.92,3-1.4c9.29-4.33,16.89-8.74,23.28-13.13c4.2-2.89,7.81-5.94,3.83-8.43c-2.86-1.79-9.35-3.11-15.71-4.38
								c-3.05-0.61-7.59-1.24-12.3-0.67c-2.27,0.28-3.78,0.76-5.15,1.21c-15.81,5.23-31.71,10.49-43.2,15.97
								C294.48,429.15,287.57,433.27,273.4,436.23z"/>
						</g>
						<g>
							<path class="st1" d="M209.13,432.56c3.07-1.06,7.16-2.04,11.94-2.85c10.57-1.8,23.62-2.68,35.2-4.15
								c12.81-1.63,23.76-4.02,30.52-6.66c6.47-2.52,9.04-5.18,12.43-7.78c2.92-2.25,6.51-4.5,10.73-6.73
								c2.86-1.51,6.17-4.23,12.42-5.48c5.68-1.13,12.8-1.04,19.06-2.34c7.08-1.46,13.93-3.12,17.44-4.94
								c0.99-0.51,1.63-1.05,1.92-1.57c-8.63,0.2-15.93,0.69-21.3,1.54c-42.06,6.69-52.12,18.37-63.62,24.94
								c-11.5,6.57-75.89,7.66-75.89,7.66S193.7,428.1,209.13,432.56z"/>
						</g>
						<path class="st1" d="M288.57,408.37C288.56,408.37,288.56,408.37,288.57,408.37c2.49,12.64,65.7,20.08,131.38,17.85
							c41.93-1.42,77.69-5.59,107.03-12.92c1.12-6.13,14.78-12.56,14.78-12.56s-121.94-12.05-180.98-10.69
							c-8.63,0.2-15.93,0.69-21.3,1.54C311.87,396,298.06,402.54,288.57,408.37z"/>
					</g>
				</g>
				<g>
					<g>
						<g class="st2">
							<g class="st3">
								<path class="st1" d="M557.3,390.28c0.14-0.25,0.31-0.6,1.41-0.92c0.29-0.09,0.65-0.17,1.1-0.26
									c0.63-0.11,1.36-0.2,2.17-0.27c0.04,0,0.08-0.01,0.12-0.01c-0.05-0.3,0.12-0.61,0.71-0.93c0.12-0.06,0.25-0.13,0.4-0.19
									c0.48-0.2,1.1-0.38,1.88-0.54c1.39-0.29,3.17-0.5,5.12-0.64c1.07-0.07,2.2-0.12,3.34-0.13c0.51-0.01,1.04-0.01,1.55,0
									c0.21-0.07,0.42-0.14,0.65-0.2l0.18-0.04c1.14-0.21,2.44-0.38,3.83-0.52c2.19-0.21,4.34-0.3,6.27-0.33
									c1.37-0.02,2.59-0.01,3.63,0.02c0.68-0.13,1.63-0.29,2.91-0.41c1.49-0.14,2.94-0.2,4.18-0.22c1.38-0.02,2.48,0.01,3.07,0.02
									c1.22,0.03,3.39,0.09,5.39,0.37c0.15,0.02,0.3,0.05,0.45,0.07c1.43,0.23,2.24,0.52,2.69,0.8c0.12,0.07,0.21,0.15,0.28,0.22
									c0.46,0.43,0.16,0.82,0.05,0.93c-0.27,0.28-0.53,0.42-0.93,0.56c0.05,0.02,0.09,0.04,0.14,0.06c1.11,0.42,2.38,1.03,3,1.8
									c0.74,0.9,0.27,1.66-0.26,2.15c0.45,0,0.91,0.01,1.34,0.02c0,0,0.38,0.01,0.75,0.02c0.03,0,0.05,0,0.08,0
									c0.76,0.03,4.63,0.34,5.78,1.1c0.15,0.1,0.24,0.2,0.28,0.3c0.17,0.39-0.51,0.71-0.81,0.84c-0.01,0-0.01,0-0.01,0
									c-0.28,0.07-0.69,0.18-1.23,0.3c0,0-2.5,0.58-5.23,0.99c-2.79,0.41-8.17,0.86-15.18,1.06c-1.31,0.03-2.61,0.07-3.92,0.1
									c-1.59,0.03-3.85,0.07-6.57,0.09c-1.66,0.01-2.74,0.02-4.22,0.01c-3.26-0.02-6.31-0.04-9.13-0.29
									c-0.49-0.04-0.98-0.09-1.46-0.15c-0.5-0.06-0.88-0.12-1.1-0.15l-0.29-0.05c-1.77-0.29-2.96-0.67-3.4-1.08
									c-0.47-0.45,0.04-0.85,0.63-1.12c-0.92-0.11-1.83-0.23-2.7-0.38c-0.73-0.12-1.43-0.25-2.1-0.4c-1.37-0.31-2.34-0.63-3-0.91
									c-0.3-0.12-0.53-0.24-0.72-0.34C557.86,391.33,557.02,390.88,557.3,390.28z"/>
							</g>
							<g class="st3">
								<g>
									<path class="st1" d="M557.3,390.28c0.17-0.32,0.4-0.8,2.51-1.17c0.66-0.12,1.43-0.21,2.29-0.28
										c-0.05-0.3,0.13-0.61,0.71-0.93c0.52-0.28,1.27-0.52,2.28-0.73c1.37-0.28,3.1-0.5,5.03-0.63c0.03,0,0.06,0,0.1-0.01
										c1.07-0.07,2.2-0.12,3.34-0.13c0.52-0.01,1.04-0.01,1.56,0c0.21-0.07,0.42-0.14,0.66-0.2l0.18-0.04
										c1.14-0.21,2.43-0.38,3.83-0.52c1.65-0.16,3.29-0.25,4.82-0.3c0.49-0.02,0.98-0.03,1.45-0.03c1.37-0.02,2.6-0.01,3.63,0.02
										c0.69-0.13,1.63-0.29,2.92-0.41c1.5-0.14,2.95-0.2,4.17-0.22c1.38-0.02,2.48,0.01,3.07,0.02c1.22,0.03,3.4,0.09,5.39,0.38
										c0.15,0.02,0.3,0.04,0.45,0.07c1.43,0.23,2.24,0.52,2.69,0.8c-0.66-0.13-1.7-0.31-3.18-0.44c-3.99-0.35-9-0.2-12.22,0.24
										c-2.69,0.36-5.03,1.04-5.03,1.04c0,0-1.45-0.08-4.35-0.25c-0.05,0-0.11,0-0.16-0.01c-2.23-0.09-4.6,0.04-6.54,0.26
										c-1.11,0.13-2.1,0.29-2.99,0.47c-0.99,0.2-1,0.33-1.86,0.42c-1.07,0.11-1.66,0.02-3.22,0.07c-0.2,0.01-2.5,0.1-3.79,0.42
										c-1.04,0.26-0.45,0.43-1.29,0.82c-0.77,0.36-1.98,0.55-2.62,0.69c-1.47,0.31-2.84,0.92-1.95,2.28
										c-0.3-0.12-0.54-0.24-0.72-0.34C557.86,391.33,557.02,390.88,557.3,390.28z"/>
								</g>
							</g>
							<g class="st3">
								<g>
									<path class="st1" d="M583.59,386.58c0.04-0.28,0.28-0.59,0.28-0.59c0.16-0.21,0.4-0.43,0.72-0.66
										c0.49-0.02,0.98-0.03,1.45-0.03c1.37-0.02,2.6-0.01,3.63,0.02c0,0-1.47,0.6-1.73,1.53c-0.06,0.21-0.05,0.44,0.04,0.68
										c0.25,0.63,2.14,0.99,1.24,1.21c-0.06,0.02-0.41,0.1-0.92,0.1C586.06,388.87,583.46,387.42,583.59,386.58z"/>
								</g>
							</g>
							<path class="st4" d="M569.67,387.29c0.14-0.29,0.29-0.54,0.44-0.75c0.03,0,0.06,0,0.1-0.01c1.07-0.07,2.2-0.12,3.34-0.13
								c0.52-0.01,1.04-0.01,1.56,0c0,0-0.79,0.33-1.22,0.87c-0.43,0.54-0.5,1.29,0.97,2.12c0.78,0.44-4.24,0.36-5.16-1.1
								C569.52,388,569.49,387.67,569.67,387.29z"/>
							<path class="st4" d="M566.95,393.66c0,0,5.68,0.63,18.44,0.08c-0.95,0.05-18.77,1.08-12.81,2.46
								c-0.49-0.04-0.98-0.09-1.46-0.15c-0.5-0.06-0.88-0.12-1.1-0.15l-0.29-0.05c-1.77-0.29-2.96-0.67-3.4-1.08
								C565.84,394.32,566.36,393.93,566.95,393.66z"/>
							<path class="st4" d="M602.18,386.74c0,0,4.39,0.44,5.58,0.93c0.05,0.02,0.09,0.04,0.14,0.06c1.11,0.42,2.38,1.03,3,1.8
								c0.74,0.9,0.27,1.66-0.26,2.15c0.45,0,0.91,0.01,1.34,0.02c0,0,0.38,0.01,0.75,0.02c0.03,0,0.05,0,0.08,0
								c0.76,0.03,4.63,0.34,5.78,1.1c0.15,0.1,0.24,0.2,0.28,0.3c-5.23-0.8-16.83-0.33-16.83-0.33c0.02,0,0.03,0,0.05,0
								c2.67-0.24,4.44-0.72,4.66-1.27C607.26,390.26,607.38,387.94,602.18,386.74z"/>
							<path class="st4" d="M562.1,388.83c-0.05-0.3,0.12-0.61,0.71-0.93c0.12-0.06,0.25-0.13,0.4-0.19
								c0.41,0.26,0.77,0.66,0.77,0.66s0.11,0.26,0.34,0.65c0.54,0.91,1.68,2.5,3.28,2.96c2.21,0.64-4.85,0.51-5.54-2.48
								c-0.03-0.1-0.05-0.21-0.05-0.31c-0.01-0.12-0.01-0.24-0.02-0.34C562.01,388.84,562.06,388.83,562.1,388.83z"/>
							<path class="st4" d="M578.82,396c-0.13-0.21,11.55-0.15,27.93-1.61c4.09-0.37,9.01-0.87,9.58-0.72
								c0.52,0.14-2.96,0.75-4.23,0.96C600.06,396.61,578.99,396.28,578.82,396z"/>
							<path class="st4" d="M598.03,389.86c0.26-1.82,0.38-2.73,1.33-2.76c1.84-0.06,7.16,1.8,4.98,3.6c-1.08,0.89-4,1.77-5.41,1.71
								C597.71,392.35,597.8,391.52,598.03,389.86z"/>
							<path class="st4" d="M581.89,388.97c-2.28-0.93-0.41-2,0.32-2c0.45,0,0.17,0.42,1.77,1.18c0.76,0.36,1.38,0.53,2.02,0.96
								c0.45,0.3,1.05,0.7,0.48,0.76C585.77,389.95,583.2,389.51,581.89,388.97z"/>
							<path class="st4" d="M569.06,390.43c-3.77-0.78-1.68-2.28-0.7-2.29c0.48,0,0.35,0.35,2.32,1.52
								c1.13,0.67,1.96,1.02,1.37,1.09C571.51,390.82,569.98,390.62,569.06,390.43z"/>
						</g>
						<g>
							<g>
								<path class="st1" d="M578.3,395.61c1.59-0.04,3.15-0.12,4.64-0.24c0.56-0.04,1.14-0.1,1.43-0.19
									c0.34-0.11,0.22-0.25,0.06-0.38c-1.14-0.92-3.3-1.79-6.29-2.56c-0.47-0.12-1.03-0.24-1.82-0.27
									c-0.72-0.02-1.43,0.04-2.07,0.11c-2.14,0.22-4.22,0.46-6.23,0.72c-1.08,0.14-2.19,0.29-2.8,0.51
									c-0.42,0.15-0.58,0.31-0.6,0.48c-0.12,0.69,2.14,1.36,5.49,1.65c2.48,0.21,5.38,0.22,7.85,0.44L578.3,395.61z"/>
							</g>
							<g>
								<path class="st1" d="M573.92,390.62c2.36-0.58,6.12-0.89,9.72-1.17c3.27-0.26,6.62-0.52,10.16-0.58
									c3.54-0.06,7.37,0.12,9.64,0.62c0.46,0.1,0.83,0.21,1.16,0.33c0.63,0.22,1.08,0.47,1.51,0.71c1.05,0.58,2.09,1.16,3.13,1.74
									c0.84,0.46,1.68,0.94,1.74,1.43c0.29,2.61-19.61,4.45-30.83,3.18c-2.05-0.23-3.81-0.57-5.09-1.02c-2-0.7-2.81-1.51-3.4-2.3
									C570.9,392.55,570.59,391.44,573.92,390.62z"/>
							</g>
							<path class="st1" d="M573.92,390.62c2.36-0.58,6.12-0.89,9.72-1.17c3.27-0.26,6.62-0.52,10.16-0.58
								c3.54-0.06,7.37,0.12,9.64,0.62c0.46,0.1,0.83,0.21,1.16,0.33c-5.24,0.13-13.22,0.52-21.11,1.64
								c-9.54,1.35-6.13,3.99-3.33,5.42c-2.05-0.23-3.81-0.57-5.09-1.02c-2-0.7-2.81-1.51-3.4-2.3
								C570.9,392.55,570.59,391.44,573.92,390.62z"/>
						</g>
					</g>
					<path class="st1" d="M601.18,394.4l-13.02,1c0.13,0.06,12.73,5.91-1.02,9.35c-3.21,0.8-8.83,1.07-15.38,1.02
						c-3.45,0.91-9.22,1.5-15.66,1.47c-0.31,0-0.62,0-0.93-0.01c-0.32,0.19-0.65,0.39-1.02,0.58c25.99,1.35,38.41-0.07,44.26-1.53
						C616.92,401.65,601.83,394.69,601.18,394.4z"/>
					<path class="st1" d="M557.7,405.29c4.81,0.26,9.65,0.44,14.07,0.47c1.99-0.53,3.21-1.16,3.33-1.85
						c0.33-1.88-7.63-3.43-17.78-3.48c-0.32,0-0.65,0-0.97,0C558.37,401.53,559.7,403.13,557.7,405.29z"/>
					<path class="st1" d="M555.18,407.23c0.31,0,0.62,0.01,0.93,0.01c6.44,0.03,12.21-0.56,15.66-1.47
						c-4.42-0.04-9.26-0.22-14.07-0.47C557.14,405.89,556.32,406.54,555.18,407.23z"/>
					<path class="st1" d="M538.33,403.9c-2.94-0.26-5.45-0.51-7.33-0.71l-7.17,2.25c0.53,0.06,13.12,1.41,28.02,2.25
						c0.78,0.04,1.55,0.09,2.31,0.13c0.37-0.2,0.7-0.39,1.02-0.58C545.73,407.1,538.4,405.65,538.33,403.9z"/>
					<path class="st1" d="M538.33,403.76c-0.01,0.05-0.01,0.09-0.01,0.14c5.46,0.49,12.38,1.02,19.37,1.39
						c2-2.16,0.67-3.76-1.34-4.85C546.64,400.49,538.66,401.94,538.33,403.76z"/>
					<path class="st1" d="M538.33,403.9c0.07,1.76,7.4,3.2,16.85,3.33c1.14-0.69,1.96-1.33,2.52-1.94
						C550.71,404.92,543.79,404.38,538.33,403.9z"/>
				</g>
				<g>
					<path class="st1" d="M239.75,396.66c-0.75,0.29-18.29,7.11-1.47,11.88c5.48,1.55,17.9,3.13,46,1.8
						c15.18-0.72,28.23-1.96,28.78-2.01l-6.36-2.3c-11.73,1.12-47.32,3.72-56.62,1.08c-12.5-3.55,2.16-9.28,2.31-9.34L239.75,396.66
						z"/>
					<g class="st2">
						<g class="st3">
							<path class="st1" d="M285.03,392.93c-0.05-0.25-0.1-0.6-1.08-0.93c-0.26-0.09-0.59-0.18-1.01-0.26
								c-0.59-0.12-1.28-0.21-2.07-0.29c-0.03,0-0.08-0.01-0.12-0.01c0.16-0.3,0.1-0.61-0.37-0.94c-0.09-0.07-0.21-0.13-0.33-0.19
								c-0.41-0.21-0.96-0.39-1.69-0.55c-1.29-0.3-2.98-0.53-4.89-0.68c-1.05-0.08-2.15-0.14-3.29-0.16
								c-0.51-0.01-1.04-0.02-1.55-0.02c-0.18-0.07-0.37-0.14-0.58-0.21l-0.17-0.04c-1.06-0.22-2.3-0.4-3.64-0.55
								c-2.11-0.23-4.23-0.34-6.14-0.38c-1.36-0.03-2.59-0.03-3.63-0.02c-0.64-0.14-1.52-0.3-2.76-0.43
								c-1.44-0.16-2.87-0.23-4.09-0.25c-1.37-0.03-2.48-0.01-3.07,0c-1.23,0.02-3.42,0.06-5.51,0.33
								c-0.16,0.02-0.32,0.04-0.48,0.07c-1.51,0.22-2.42,0.5-2.97,0.78c-0.15,0.07-0.26,0.14-0.35,0.21
								c-0.61,0.43-0.45,0.81-0.38,0.93c0.17,0.28,0.38,0.42,0.73,0.57c-0.05,0.02-0.1,0.03-0.16,0.05
								c-1.25,0.41-2.74,1.01-3.64,1.77c-1.06,0.9-0.86,1.65-0.51,2.15c-0.45,0-0.91,0-1.34,0c0,0-0.38,0-0.75,0.02
								c-0.03,0-0.05,0-0.08,0c-0.77,0.02-4.74,0.3-6.16,1.05c-0.19,0.1-0.32,0.2-0.38,0.29c-0.31,0.39,0.26,0.72,0.51,0.84
								c0.01,0,0.01,0,0.01,0c0.25,0.08,0.63,0.18,1.12,0.31c0,0,2.29,0.6,4.87,1.03c2.63,0.44,7.85,0.93,14.78,1.19
								c1.29,0.04,2.58,0.09,3.88,0.13c1.58,0.05,3.82,0.1,6.53,0.14c1.65,0.03,2.73,0.04,4.21,0.05c3.26,0.01,6.31,0.02,9.21-0.21
								c0.51-0.04,1.01-0.08,1.51-0.14c0.52-0.06,0.92-0.11,1.16-0.14l0.31-0.04c1.88-0.28,3.19-0.64,3.78-1.05
								c0.64-0.45,0.26-0.85-0.24-1.12c0.95-0.1,1.91-0.22,2.83-0.35c0.77-0.11,1.52-0.24,2.24-0.39c1.48-0.3,2.56-0.61,3.32-0.88
								c0.34-0.12,0.62-0.24,0.84-0.33C284.1,393.97,285.1,393.52,285.03,392.93z"/>
						</g>
						<g class="st3">
							<g>
								<path class="st1" d="M285.03,392.93c-0.05-0.32-0.12-0.8-2.08-1.19c-0.62-0.12-1.35-0.22-2.19-0.3
									c0.15-0.3,0.09-0.61-0.37-0.94c-0.42-0.29-1.08-0.53-2.02-0.75c-1.26-0.29-2.92-0.52-4.79-0.67c-0.03,0-0.06-0.01-0.09-0.01
									c-1.04-0.08-2.15-0.13-3.29-0.16c-0.52-0.01-1.03-0.02-1.55-0.02c-0.18-0.07-0.37-0.14-0.58-0.21l-0.17-0.04
									c-1.06-0.22-2.29-0.4-3.64-0.55c-1.59-0.17-3.19-0.28-4.71-0.34c-0.49-0.02-0.97-0.04-1.43-0.05
									c-1.36-0.03-2.59-0.03-3.63-0.01c-0.64-0.14-1.53-0.3-2.77-0.43c-1.44-0.16-2.87-0.23-4.09-0.25
									c-1.37-0.03-2.48-0.01-3.07,0c-1.23,0.02-3.42,0.06-5.51,0.33c-0.16,0.02-0.31,0.04-0.47,0.06
									c-1.51,0.22-2.42,0.5-2.98,0.78c0.71-0.13,1.81-0.29,3.33-0.41c4.11-0.32,9.05-0.12,12.12,0.34
									c2.56,0.38,4.65,1.08,4.65,1.08c0,0,1.48-0.07,4.43-0.21c0.05,0,0.11,0,0.16-0.01c2.26-0.07,4.57,0.08,6.43,0.32
									c1.07,0.14,1.99,0.31,2.82,0.5c0.92,0.21,0.88,0.34,1.71,0.43c1.03,0.12,1.65,0.03,3.19,0.1c0.19,0.01,2.46,0.12,3.63,0.46
									c0.95,0.27,0.3,0.43,1,0.83c0.64,0.37,1.78,0.57,2.37,0.71c1.36,0.32,2.5,0.95,1.14,2.29c0.34-0.12,0.62-0.23,0.84-0.33
									C284.1,393.97,285.1,393.52,285.03,392.93z"/>
							</g>
						</g>
						<g class="st3">
							<g>
								<path class="st1" d="M260.1,389.01c0.06-0.28-0.07-0.59-0.07-0.59c-0.09-0.21-0.25-0.43-0.49-0.67
									c-0.49-0.02-0.96-0.04-1.43-0.05c-1.36-0.03-2.59-0.03-3.63-0.01c0,0,1.25,0.61,1.18,1.54c-0.02,0.21-0.1,0.44-0.28,0.68
									c-0.48,0.63-2.49,0.97-1.67,1.2c0.06,0.02,0.37,0.1,0.88,0.11C256.82,391.27,259.93,389.85,260.1,389.01z"/>
							</g>
						</g>
						<path class="st4" d="M273.74,389.83c-0.04-0.29-0.1-0.54-0.17-0.75c-0.03,0-0.06-0.01-0.09-0.01
							c-1.04-0.08-2.15-0.13-3.29-0.16c-0.52-0.01-1.03-0.02-1.55-0.02c0,0,0.67,0.34,0.9,0.88c0.23,0.54,0.03,1.29-1.72,2.11
							c-0.94,0.44,4.1,0.4,5.55-1.06C273.65,390.54,273.79,390.22,273.74,389.83z"/>
						<path class="st4" d="M274.19,396.21c0,0-5.9,0.58-18.44-0.08c0.93,0.06,18.35,1.24,11.92,2.57c0.51-0.04,1.01-0.08,1.51-0.14
							c0.52-0.06,0.92-0.11,1.16-0.14l0.31-0.04c1.88-0.28,3.19-0.64,3.78-1.05C275.06,396.89,274.69,396.49,274.19,396.21z"/>
						<path class="st4" d="M241.48,389c0,0-4.54,0.4-5.9,0.88c-0.05,0.02-0.1,0.03-0.16,0.05c-1.25,0.41-2.74,1.01-3.64,1.77
							c-1.06,0.9-0.86,1.65-0.51,2.15c-0.45,0-0.91,0-1.34,0c0,0-0.38,0-0.75,0.02c-0.03,0-0.05,0-0.08,0
							c-0.77,0.02-4.74,0.3-6.16,1.05c-0.19,0.1-0.32,0.2-0.38,0.29c5.51-0.76,16.92-0.19,16.92-0.19c-0.02,0-0.03,0-0.05-0.01
							c-2.58-0.26-4.17-0.76-4.2-1.31C235.15,392.48,235.86,390.17,241.48,389z"/>
						<path class="st4" d="M280.76,391.43c0.16-0.3,0.1-0.61-0.37-0.94c-0.09-0.07-0.21-0.13-0.33-0.19c-0.5,0.26-1,0.65-1,0.65
							s-0.21,0.26-0.57,0.65c-0.86,0.9-2.57,2.48-4.33,2.93c-2.43,0.62,4.67,0.55,6.42-2.43c0.07-0.1,0.12-0.2,0.16-0.31
							c0.05-0.12,0.1-0.24,0.15-0.34C280.84,391.44,280.8,391.44,280.76,391.43z"/>
						<path class="st4" d="M261.5,398.45c0.2-0.21-11.48-0.25-27.31-1.85c-3.96-0.4-8.69-0.95-9.3-0.8c-0.57,0.13,2.69,0.78,3.88,1
							C240.08,398.88,261.23,398.73,261.5,398.45z"/>
						<path class="st4" d="M244.51,392.16c0.39-1.82,0.59-2.73-0.34-2.77c-1.81-0.08-7.79,1.74-6.25,3.55
							c0.76,0.9,3.36,1.8,4.79,1.75C243.95,394.65,244.15,393.82,244.51,392.16z"/>
						<path class="st4" d="M260.95,391.41c2.61-0.91,1.13-2,0.4-2c-0.45,0-0.32,0.42-2.19,1.16c-0.89,0.36-1.56,0.52-2.36,0.95
							c-0.56,0.3-1.3,0.69-0.75,0.75C256.72,392.35,259.45,391.93,260.95,391.41z"/>
						<path class="st4" d="M273.23,392.98c4.04-0.75,2.49-2.27,1.52-2.28c-0.47-0.01-0.47,0.35-2.86,1.5
							c-1.37,0.66-2.32,1-1.76,1.08C270.65,393.34,272.25,393.16,273.23,392.98z"/>
					</g>
					<g>
						<g>
							<path class="st1" d="M262.16,398.07c-1.57-0.06-3.11-0.15-4.55-0.28c-0.54-0.05-1.1-0.11-1.36-0.21
								c-0.3-0.12-0.13-0.25,0.07-0.38c1.47-0.91,3.93-1.76,7.19-2.5c0.51-0.12,1.12-0.24,1.91-0.25c0.72-0.02,1.41,0.06,2.02,0.13
								c2.06,0.24,4.05,0.49,5.97,0.77c1.03,0.15,2.08,0.31,2.62,0.53c0.36,0.15,0.46,0.32,0.43,0.48c-0.13,0.69-2.62,1.34-6.07,1.6
								c-2.56,0.19-5.45,0.17-7.99,0.37L262.16,398.07z"/>
						</g>
						<g>
							<path class="st1" d="M268.32,393.13c-2.15-0.6-5.8-0.94-9.28-1.25c-3.17-0.29-6.42-0.58-9.94-0.67
								c-3.51-0.09-7.4,0.06-9.85,0.54c-0.5,0.1-0.91,0.2-1.28,0.32c-0.71,0.22-1.24,0.46-1.76,0.69c-1.25,0.57-2.5,1.14-3.75,1.71
								c-1,0.46-2.01,0.92-2.25,1.41c-1.22,2.61,18,4.61,29.65,3.43c2.13-0.21,4-0.53,5.45-0.98c2.25-0.69,3.34-1.48,4.21-2.26
								C270.64,395.08,271.35,393.96,268.32,393.13z"/>
						</g>
						<path class="st1" d="M268.32,393.13c-2.15-0.6-5.8-0.94-9.28-1.25c-3.17-0.29-6.42-0.58-9.94-0.67
							c-3.51-0.09-7.4,0.06-9.85,0.54c-0.5,0.1-0.91,0.2-1.28,0.32c5.19,0.18,13.01,0.63,20.5,1.81c9.04,1.43,4.7,4.04,1.4,5.44
							c2.13-0.21,4-0.53,5.45-0.98c2.25-0.69,3.34-1.48,4.21-2.26C270.64,395.08,271.35,393.96,268.32,393.13z"/>
					</g>
				</g>
				
					<ellipse transform="matrix(1 -1.921133e-03 1.921133e-03 1 -0.7802 0.549)" class="st1" cx="285.35" cy="406.38" rx="18.39" ry="3.4"/>
				<g>
					<g>
						<path class="st1" d="M390.93,429.45c-5.6-0.08-11.33-0.1-16.63-0.46c-0.58-0.04-1.21-0.08-1.86-0.13
							c0.29-1.1,0.91-2.47,2.17-4.01c0.86-1.07,1.93-2.07,3.13-3.05c1.69-1.38,3.66-2.74,5.8-4.21c0.45-0.31,0.83-0.56,1.09-0.74
							l17.76,0.99c-0.05,0.03-0.11,0.07-0.19,0.12c-1.4,0.93-4.86,3.23-7.44,5.64c-0.49,0.45-0.94,0.9-1.34,1.35
							C391.93,426.63,391.21,428.15,390.93,429.45z"/>
					</g>
					<g>
						<g>
							<g>
								<path class="st1" d="M403.18,438.03c-0.41,0.43-2.7,0.59-4.6,0.64c-4.67,0.12-9.38,0.09-14.07,0.1
									c-6.94,0.02-13.89,0.16-20.77,0.42c-5.29,0.2-10.7,0.46-15.91,0.21c-1.13-0.05-2.34-0.16-3.16-0.33
									c-0.53-0.11-0.9-0.25-0.98-0.41c-0.09-0.17,0.16-0.34,0.49-0.5c1.91-0.94,6.25-1.48,10.32-1.95
									c4.86-0.56,9.79-1.11,15.08-1.4c2.31-0.12,4.21-0.19,6.09-0.2c0,0,0,0-0.01,0c-0.25-0.12-9.06-4.33-6.91-6.37
									c0.2-0.19,1.07-0.31,1.92-0.27c0.07,0,0.15,0.01,0.23,0.01c2.89,0.15,9.17,0.43,15.61,0.48c1.43,0.01,2.87,0.01,4.28,0
									c0.18,0,0.36,0,0.53-0.01c1.57-0.02,2.91,0.25,3,0.6c0.37,1.47,1.75,5.08,6.6,7.59c0.01,0,0.02,0.01,0.02,0.01
									c0.54,0.27,1.1,0.53,1.72,0.78C403.04,437.61,403.38,437.82,403.18,438.03z"/>
							</g>
						</g>
						<g>
							<path class="st1" d="M403.18,438.03c-0.41,0.43-2.7,0.59-4.6,0.64c-4.67,0.12-9.38,0.09-14.07,0.1
								c-6.94,0.02-13.89,0.16-20.77,0.42c-5.29,0.2-10.7,0.46-15.91,0.21c-1.13-0.05-2.34-0.16-3.16-0.33
								c1.93-0.05,4.71-0.14,8.04-0.25c18.94-0.66,16.18-1.02,27.77-1.37c3.5-0.1,6.16-0.14,7.92-0.63c0.63-0.17,2.6-0.62,1.17-2.13
								c-0.84-0.89-1.69-1.77-2.5-2.66c-0.96-1.07-2.3-2.21-1-3.28c0.12-0.1,0.26-0.19,0.44-0.29c1.43,0.01,2.87,0.01,4.28,0
								c0.18,0,0.36,0,0.53-0.01c1.57-0.02,2.91,0.25,3,0.6c0.37,1.47,1.75,5.08,6.6,7.59c0.01,0,0.02,0.01,0.02,0.01
								c0.54,0.27,1.1,0.53,1.72,0.78C403.04,437.61,403.38,437.82,403.18,438.03z"/>
						</g>
						<path class="st1" d="M378.37,430.3c2.7,1.61,3.31,3.78,1.75,3.86c-1.6,0.08-5.41-2.05-5.09-3.86c0.03-0.2,0.15-0.86,0.93-0.89
							C376.81,429.37,378,430.08,378.37,430.3z"/>
						<path class="st1" d="M374.65,435.51c0.12,0.16-5.87,0.54-8.69,0.72c-2.16,0.14-11.73,0.75-12.01,0.55
							c-0.23-0.16,5.51-0.87,12.06-1.18C370.1,435.41,374.55,435.37,374.65,435.51z"/>
					</g>
					<g>
						<path class="st1" d="M384.63,416.87l17.75,0.99c-0.04,0.03-0.11,0.07-0.18,0.12c-1.4,0.93-4.86,3.23-7.44,5.64
							c-2.96-0.2-5.86-0.44-8.68-0.73c-2.9-0.3-5.72-0.66-8.35-1.08c1.69-1.38,3.66-2.74,5.8-4.21
							C383.99,417.29,384.37,417.04,384.63,416.87z"/>
					</g>
				</g>
				<g>
					<g>
						<path class="st1" d="M463.64,429.37c5.55-0.18,11.24-0.31,16.37-0.76c0.56-0.05,1.17-0.11,1.8-0.16
							c-0.76-1.09-1.96-2.44-3.86-3.95c-1.32-1.05-2.8-2.02-4.42-2.98c-2.27-1.35-4.81-2.66-7.57-4.08c-0.58-0.3-1.06-0.54-1.4-0.71
							l-17.27,1.31c0.06,0.03,0.14,0.07,0.24,0.12c1.79,0.9,6.21,3.12,9.81,5.48c0.68,0.44,1.32,0.88,1.91,1.32
							C461.44,426.57,462.81,428.07,463.64,429.37z"/>
					</g>
					<g>
						<g>
							<g>
								<path class="st1" d="M455.76,437.76c0.64,0.41,3,0.52,4.92,0.53c4.71,0.02,9.37-0.12,14.04-0.21
									c6.92-0.13,13.9-0.14,20.87-0.04c5.36,0.08,10.88,0.22,15.93-0.15c1.1-0.08,2.24-0.21,2.96-0.4
									c0.47-0.12,0.76-0.27,0.75-0.43c-0.01-0.17-0.35-0.34-0.75-0.49c-2.41-0.89-7.01-1.33-11.31-1.71
									c-5.13-0.45-10.33-0.89-15.74-1.05c-2.37-0.07-4.29-0.1-6.16-0.06c0,0,0,0,0,0c0.19-0.12,6.67-4.5,3.43-6.48
									c-0.31-0.19-1.23-0.29-2.06-0.22c-0.07,0.01-0.15,0.01-0.22,0.02c-2.79,0.21-8.88,0.63-15.26,0.83
									c-1.42,0.04-2.84,0.07-4.26,0.09c-0.18,0-0.36,0-0.53,0.01c-1.57,0.01-2.76,0.31-2.65,0.67c0.43,1.47,1.01,5.09-2.46,7.69
									c-0.01,0-0.02,0.01-0.01,0.01c-0.38,0.28-0.81,0.55-1.29,0.81C455.68,437.34,455.46,437.56,455.76,437.76z"/>
							</g>
						</g>
						<g>
							<path class="st1" d="M455.76,437.76c0.64,0.41,3,0.52,4.92,0.53c4.71,0.02,9.37-0.12,14.04-0.21
								c6.92-0.13,13.9-0.14,20.87-0.04c5.36,0.08,10.88,0.22,15.93-0.15c1.1-0.08,2.24-0.21,2.96-0.4
								c-1.95-0.01-4.75-0.03-8.12-0.07c-19.18-0.24-16.64-0.66-28.34-0.75c-3.54-0.03-6.2-0.01-8.22-0.45
								c-0.72-0.16-2.92-0.56-2.32-2.09c0.36-0.9,0.73-1.8,1.04-2.7c0.38-1.08,1.1-2.24-0.77-3.28c-0.17-0.09-0.36-0.19-0.59-0.27
								c-1.42,0.04-2.84,0.07-4.26,0.09c-0.18,0-0.36,0-0.53,0.01c-1.57,0.01-2.76,0.31-2.65,0.67c0.43,1.47,1.01,5.09-2.46,7.69
								c-0.01,0-0.02,0.01-0.01,0.01c-0.38,0.28-0.81,0.55-1.29,0.81C455.68,437.34,455.46,437.56,455.76,437.76z"/>
						</g>
						<path class="st1" d="M478.56,429.26c-2.71,1.62-3.34,3.79-1.78,3.86c1.6,0.08,5.42-2.07,5.12-3.88
							c-0.03-0.2-0.14-0.86-0.93-0.89C480.12,428.33,478.93,429.04,478.56,429.26z"/>
						<path class="st1" d="M480.63,434.43c-0.04,0.16,6.13,0.41,9.02,0.52c2.22,0.09,12.06,0.48,12.24,0.28
							c0.15-0.16-5.95-0.75-12.62-0.91C485.1,434.23,480.66,434.29,480.63,434.43z"/>
					</g>
					<g>
						<path class="st1" d="M464.56,416.71l-17.26,1.31c0.05,0.03,0.14,0.07,0.24,0.12c1.79,0.9,6.21,3.12,9.8,5.48
							c2.87-0.25,5.65-0.55,8.33-0.89c2.76-0.35,5.41-0.76,7.86-1.23c-2.27-1.35-4.81-2.66-7.57-4.08
							C465.39,417.13,464.9,416.88,464.56,416.71z"/>
					</g>
				</g>
				<g>
					<path class="st1" d="M420.91,385.94c33.89,0.16,67.7,1.97,89.74,5.07c29.32,4.13,41.76,12.2,25.04,18.46
						c-18.47,6.92-58.95,10.23-97.69,11.62c-39.45,1.42-91.92,0.42-120.18-5.24c-45.96-9.21-10.61-24.58,48.43-28.33
						C382.95,386.47,403.3,385.86,420.91,385.94z"/>
					<path class="st1" d="M504.22,402.83c-3.4,3.6-25.56,5.8-44.18,4.64c-23.33-1.45-32.94-6.41-18.09-10.09
						c9.02-2.23,23.65-3.09,37.9-2.26C495.21,396.02,506.94,399.96,504.22,402.83z"/>
					<path class="st1" d="M495.14,402.43c-2.5,2.65-18.82,4.27-32.54,3.42c-17.18-1.07-24.26-4.72-13.32-7.43
						c6.65-1.65,17.41-2.27,27.91-1.67C488.51,397.41,497.14,400.31,495.14,402.43z"/>
					<path class="st1" d="M491.89,402.27c-2.16,2.28-16.22,3.68-28.04,2.95c-14.81-0.92-20.9-4.07-11.48-6.4
						c5.72-1.42,15-1.96,24.05-1.44C486.18,397.95,493.62,400.45,491.89,402.27z"/>
					<path class="st1" d="M483.86,402.11c-1.65,1.74-12.39,2.81-21.42,2.25c-11.31-0.71-15.97-3.11-8.77-4.89
						c4.37-1.08,11.46-1.5,18.37-1.1C479.49,398.81,485.18,400.72,483.86,402.11z"/>
					<path class="st1" d="M414.6,404.24c-3.4,3.6-25.56,5.8-44.18,4.64c-23.33-1.45-32.94-6.41-18.09-10.09
						c9.02-2.23,23.65-3.09,37.9-2.26C405.6,397.43,417.32,401.37,414.6,404.24z"/>
					<path class="st1" d="M405.53,403.84c-2.5,2.65-18.82,4.27-32.54,3.42c-17.18-1.07-24.26-4.72-13.32-7.43
						c6.65-1.65,17.41-2.28,27.91-1.67C398.89,398.82,407.53,401.72,405.53,403.84z"/>
					<path class="st1" d="M402.02,403.68c-2.16,2.28-16.22,3.68-28.04,2.95c-14.81-0.92-20.9-4.07-11.48-6.4
						c5.73-1.42,15-1.96,24.05-1.44C396.3,399.36,403.74,401.86,402.02,403.68z"/>
					<path class="st1" d="M396.48,403.46c-1.65,1.74-12.39,2.81-21.42,2.25c-11.31-0.71-15.97-3.11-8.77-4.89
						c4.37-1.08,11.46-1.5,18.37-1.1C392.11,400.16,397.8,402.07,396.48,403.46z"/>
					<path class="st1" d="M431.22,410.4c0.37,0,0.74,0,1.11-0.01c1.56-0.05,2.94-0.23,3.99-0.51c1.84-0.5,2.25-1.21,1.72-1.64
						c-0.15-0.12-0.82-0.2-1.49-0.17c-0.67,0.03-1.09,0.15-0.94,0.28c0.41,0.34,0.02,0.91-1.35,1.28c-0.66,0.18-1.44,0.29-2.31,0.31
						c-1.01,0.03-1.92-0.02-2.79-0.15c-2.02-0.3-3.35-0.99-3.46-1.49c-0.02-0.13-0.6-0.23-1.29-0.22c-0.69,0.01-1.23,0.12-1.2,0.24
						c0.1,0.49,1.35,1.37,4.36,1.82C428.68,410.3,429.92,410.39,431.22,410.4z"/>
					<path class="st1" d="M488.3,408.93c-2.4,0.7-9.39,0.99-14.73,1c-3.59,0.01-16.24-0.14-12.64-0.96
						C465.09,408.04,491.87,407.88,488.3,408.93z"/>
					<path class="st1" d="M392.54,410.53c-2.4,0.71-9.39,0.99-14.73,1c-3.6,0.01-16.25-0.14-12.64-0.96
						C369.33,409.63,396.11,409.48,392.54,410.53z"/>
					<path class="st1" d="M457.05,393.99c0.45,0,0.87-0.05,1.02-0.13c0.07-0.04,1.75-0.89,8.68-0.95
						c8.11-0.07,10.62,1.03,10.64,1.04c0.22,0.1,0.82,0.14,1.35,0.1c0.53-0.04,0.79-0.15,0.57-0.25c-0.12-0.06-3.09-1.35-12.63-1.28
						c-8.42,0.07-10.5,1.17-10.58,1.21c-0.18,0.1,0.11,0.21,0.65,0.24C456.85,393.98,456.95,393.99,457.05,393.99z"/>
					<path class="st1" d="M363.1,396.21c0.5,0,0.95-0.06,1.05-0.16c0.05-0.05,1.36-1.19,9.32-1.44c6.85-0.22,9.4,0.55,9.5,0.58
						c0.29,0.09,0.92,0.12,1.42,0.07c0.49-0.05,0.66-0.17,0.38-0.26c-0.13-0.04-3.32-1.03-11.63-0.77
						c-9.43,0.3-10.96,1.69-11.01,1.75c-0.11,0.1,0.26,0.2,0.82,0.22C362.99,396.21,363.05,396.21,363.1,396.21z"/>
					<path class="st1" d="M411.5,417.67c45.28-1.76,91.83-6.94,95.38-15.73c1.86-4.26,0.17-9.2-12.97-12.84
						c6.09,0.57,11.73,1.21,16.74,1.91c29.32,4.13,41.76,12.2,25.04,18.46c-18.47,6.92-58.95,10.23-97.69,11.62
						c-37.37,1.34-86.41,0.52-115.51-4.39C350.69,418.3,380.32,418.81,411.5,417.67z"/>
					<path class="st1" d="M416.58,384.87c-0.43,0.02-0.85,0.05-1.29,0.07C415.29,384.93,415.74,384.91,416.58,384.87z"/>
					<path class="st1" d="M337.91,394.95c-1.05,0.17-2.96,0.72-1.66,0.97c1.75,0.33,4.66-0.19,4.94-0.51
						C341.55,394.99,340.06,394.6,337.91,394.95z"/>
					<path class="st1" d="M325.86,398.13c-3.86,0.34-8.52,1.43-5.04,1.93c1.72,0.25,4.08,0.03,5.6-0.24
						c1.76-0.32,4.01-0.97,3.52-1.45C329.55,397.98,327.81,397.96,325.86,398.13z"/>
					<path class="st1" d="M329.42,396.35c0.56-0.11,1.02-0.22,1.27-0.29c0.7-0.2,1.23-0.51,0.66-0.73
						c-0.48-0.19-1.87-0.19-2.86-0.15c-0.99,0.04-1.92,0.18-2.57,0.32c-1.19,0.25-2.74,0.69-2.05,1.03
						C324.95,397.07,327.69,396.69,329.42,396.35z"/>
					<g>
						<defs>
							<path id="SVGID_1_" d="M420.91,385.94c33.89,0.16,67.7,1.97,89.74,5.07c29.32,4.13,41.76,12.2,25.04,18.46
								c-18.47,6.92-58.95,10.23-97.69,11.62c-39.45,1.42-91.92,0.42-120.18-5.24c-45.96-9.21-10.61-24.58,48.43-28.33
								C382.95,386.47,403.3,385.86,420.91,385.94z"/>
						</defs>
						<use xlink:href="#SVGID_1_"  style="overflow:visible;fill:#EDEDED;"/>
						<clipPath id="SVGID_00000152978720553497316590000015776422108507421097_">
							<use xlink:href="#SVGID_1_"  style="overflow:visible;"/>
						</clipPath>
						<g style="clip-path:url(#SVGID_00000152978720553497316590000015776422108507421097_);">
							<path class="st1" d="M392.48,389.05c0.84-0.04,1.29-0.07,1.29-0.07C393.33,389,392.9,389.03,392.48,389.05z"/>
							<path class="st1" d="M429.62,387.99c-3.63,0.02-5.84,0.11-5.84,0.11C425.82,388.08,427.76,388.05,429.62,387.99z"/>
							<path class="st1" d="M429.62,387.99c-1.86,0.05-3.81,0.09-5.84,0.11C423.78,388.1,425.99,388.01,429.62,387.99
								c1.51-0.04,2.97-0.1,4.37-0.17c15.14-0.7,23.81-2.56,28.43-4c3.38-1.05,4.6-1.88,4.6-1.88c-22.02-0.36-35.19,0.6-42.88,1.67
								c-7.86,1.09-10,2.29-10,2.29c-0.03-0.04-0.07-0.09-0.1-0.13c-4.83-6.37-37.78-7.01-37.78-7.01c-0.05,0.28-0.04,0.54,0,0.8
								c0.71,5.24,17.99,6.73,17.99,6.73c-0.3-0.02-0.59-0.03-0.89-0.05c-40.95-2.16-55.13,1.68-55.13,1.68
								c0.88,0.13,1.78,0.24,2.7,0.35c18.75,2.24,45.42,1.08,51.54,0.77c0.43-0.02,0.85-0.05,1.29-0.07c0,0-0.46,0.03-1.29,0.07
								c-1.16,0.06-2.26,0.14-3.32,0.22c-17.45,1.3-22.05,4.47-22.05,4.47c1.07,0.02,2.1,0.04,3.13,0.05c42.07,0.63,45.42-4,45.42-4
								c15.97,2.9,36.61,1.77,45.48,1.08c2.75-0.22,4.37-0.39,4.37-0.39c-9.48-1.6-19.64-2.21-27.56-2.41
								C434.74,387.99,431.9,387.98,429.62,387.99z"/>
						</g>
					</g>
					<g>
						<path class="st1" d="M434.17,386.86c-5.05-0.29-10.28-0.48-15.53-0.57C423.89,386.39,429.12,386.58,434.17,386.86
							c-1.4,0.07-2.86,0.12-4.37,0.17c-3.63,0.02-5.84,0.11-5.84,0.11c2.03-0.02,3.98-0.06,5.84-0.11c2.28-0.01,5.11,0,8.32,0.08
							c8.8,0.6,16.85,1.53,23.19,2.8c-8.88,0.7-29.52,1.83-45.48-1.08c0,0-3.34,4.63-45.42,4c4.25-2.24,15.26-3.8,26.78-4.8
							c-2.62,0.08-5.25,0.17-7.85,0.27c1.06-0.08,2.16-0.15,3.32-0.22c0.84-0.04,1.29-0.07,1.29-0.07
							c-0.44,0.02-0.87,0.05-1.29,0.07c-6.13,0.31-32.79,1.48-51.54-0.77c15.41-2.42,41.59-2.57,58.99-0.86
							c-1.92-0.47-4.13-0.85-6.57-1.17c0.3,0.02,0.59,0.03,0.89,0.05c0,0-17.28-1.49-17.99-6.73c19.66,1.16,37.48,3.27,36.35,7.18
							c0.44-0.35,0.88-0.66,1.43-0.97c0.03,0.04,0.07,0.09,0.1,0.13c0,0,2.13-1.2,10-2.29c2.47-0.27,5.15-0.48,8.3-0.57
							c9.69-0.24,21.09-0.06,29.98,0.79C457.98,384.3,449.3,386.16,434.17,386.86z"/>
						<path class="st1" d="M400.1,386.46c-17.4-1.71-43.58-1.56-58.99,0.86c-0.92-0.11-1.82-0.23-2.7-0.35
							c0,0,14.17-3.85,55.13-1.68C395.97,385.6,398.18,385.99,400.1,386.46z"/>
						<path class="st1" d="M432.62,382.07c-3.15,0.09-5.83,0.3-8.3,0.57c7.69-1.07,20.86-2.03,42.88-1.67c0,0-1.22,0.83-4.6,1.88
							C453.71,382.01,442.31,381.83,432.62,382.07z"/>
						<path class="st1" d="M389.32,388.31c2.6-0.11,5.22-0.19,7.85-0.27c-11.52,1-22.53,2.55-26.78,4.8
							c-1.02-0.02-2.06-0.03-3.13-0.05C367.27,392.78,371.88,389.6,389.32,388.31z"/>
						<path class="st1" d="M461.3,389.91c-6.33-1.27-14.39-2.19-23.19-2.8c7.92,0.2,18.08,0.8,27.56,2.41
							C465.67,389.52,464.05,389.7,461.3,389.91z"/>
						<path class="st1" d="M376.43,378.6c-0.04-0.26-0.04-0.52,0-0.8c0,0,32.95,0.64,37.78,7.01c-0.56,0.31-0.99,0.62-1.43,0.97
							C413.91,381.87,396.08,379.76,376.43,378.6z"/>
					</g>
					<path class="st1" d="M391.1,396.54c0,0,19.41,2.17,63.5-1.11c0,0-17.52,4.35-15.37,6.19c2.15,1.84,20.8,5.85,20.8,5.85
						s-32.45-2-59.31,0.59l7.91-2.84l3.42-3.42l-5.86-2.78l-14.33-1.12L391.1,396.54z"/>
				</g>
				
					<ellipse transform="matrix(1 -1.921133e-03 1.921133e-03 1 -0.767 0.9089)" class="st1" cx="472.72" cy="399.72" rx="3.4" ry="0.63"/>
				
					<ellipse transform="matrix(1 -1.921133e-03 1.921133e-03 1 -0.7698 0.7391)" class="st1" cx="384.36" cy="401.06" rx="3.4" ry="0.63"/>
				<path class="st1" d="M539.03,398.56c0.2,0.12,1.13,0.68,1.88,1.24C540.38,399.38,539.75,398.97,539.03,398.56z"/>
				<path class="st1" d="M541.74,400.51c-0.19-0.21-0.49-0.46-0.82-0.71C541.22,400.04,541.49,400.27,541.74,400.51
					C541.73,400.51,541.74,400.51,541.74,400.51z"/>
				<path class="st1" d="M538.99,398.53C538.99,398.53,538.99,398.53,538.99,398.53c0.01,0.01,0.03,0.02,0.04,0.02
					C539.01,398.54,538.99,398.53,538.99,398.53z"/>
				<path class="st1" d="M507.5,398.96c-4.21-0.02-6.84-0.06-6.84-0.06s-0.79,3.09-0.56,3.16c0.22,0.07,4.12,0.78,4.12,0.78
					c0.74-0.02,1.47-0.04,2.2-0.07c0.2-0.27,0.35-0.55,0.47-0.82C507.3,400.97,507.54,399.97,507.5,398.96z"/>
				<path class="st1" d="M540.92,399.8c-0.76-0.56-1.68-1.12-1.88-1.24c-0.01-0.01-0.03-0.02-0.04-0.02
					c-11.65,0.43-24.04,0.46-31.49,0.43c0.04,1.01-0.2,2.02-0.62,2.98c-0.11,0.28-0.27,0.55-0.47,0.82
					c18.7-0.6,35.27-2.25,35.32-2.25C541.49,400.27,541.22,400.04,540.92,399.8z"/>
				<path class="st1" d="M507.38,397.98c-8.2-0.45-13.13-0.96-13.13-0.96l2.11,3.82l5.55,3.35c1.07-0.03,2.12-0.06,3.16-0.09
					c0.89-0.69,1.51-1.41,1.81-2.16C507.44,400.67,507.67,399.33,507.38,397.98z"/>
				<path class="st1" d="M542.7,401.69c-0.5-1.51-3.66-3.13-3.66-3.13C540.82,399.58,542.05,400.63,542.7,401.69
					C542.7,401.69,542.7,401.69,542.7,401.69z"/>
				<path class="st1" d="M540.35,398.56L540.35,398.56c-13.13,0.23-24.63-0.14-32.92-0.58c0.31,1.34,0.08,2.68-0.49,3.96
					c-0.31,0.75-0.95,1.46-1.87,2.16c24.18-0.73,39.09-2.4,39.11-2.4C543.51,400.63,542.22,399.58,540.35,398.56z"/>
				<path class="st1" d="M351.16,403.13l0.46-0.25l0.91-1.26l1.11-0.82l1.91-1.08l-1.21-0.59l0.52-0.72c0,0-6.04,0.6-15.99,1.11
					c-9.68,0.5-23.06,0.91-38.21,0.62l0,0c-2.34,1.19-4.02,2.42-4.99,3.66c0,0,22.48,2.86,59.55,3.33l0.33-1.83L351.16,403.13z"/>
			</g>
			<g>
				<g>
					<path class="st6" d="M210.31,398.41c2.26,3.82,5.04,7.74,8.43,11.69c11.83,13.77,33.88,13.87,55.19,10.77
						c24.45-3.55,47.93-11.32,53.87-7.46c7.4,4.79,14.42,8.33,21.17,10.78c22.75,8.28,42.39,4.19,63.05-6.15
						c5.97-2.98,12.02-6.49,18.26-10.37c16.04-9.98,40.69-6.88,62.55-11.42c24.81-5.14,41.55-21.18,42.5-76.29
						c0.12-6.87,5.23-21.94,5.65-28.56c2.13-33.13,6.96-51.59,6.96-51.59s-119.85-70.17-179.08-65.17
						c-8.66,0.73-16.03,3.07-21.54,7.47c-28.31,22.65-43.2,57.46-53.65,88.65c0,0.01,0,0.01,0,0.01
						c-5.48,16.32-9.73,31.65-14.05,43.71c-12.58,35.09-77.1,38.36-77.1,38.36S195.63,373.62,210.31,398.41z"/>
					<g>
						<g>
							<path class="st7" d="M412.02,418.03c5.97-2.98,12.02-6.49,18.26-10.37c16.04-9.98,40.69-6.88,62.55-11.42
								c2.61-6.11,6.22-15.74,8.24-27.38c8.14-46.77-17.38-78.97-1.99-96.87c4.03-4.69,11.42-9.05,10.82-11.32
								c-0.56-2.11-7.47-0.33-8.31-0.07c-10.78,3.28-20.83,11.79-28.29,21.67c-7.46,9.88-12.63,21.08-17.12,32.25
								c-4.88,12.15-9.06,24.44-12.49,36.78c-4.5,16.12-7.92,32.73-16.8,47.79C422.8,406.01,417.69,412.31,412.02,418.03z"/>
						</g>
						<g>
							<path class="st7" d="M273.92,420.86c24.45-3.55,47.93-11.32,53.87-7.46c7.4,4.79,14.42,8.33,21.17,10.78
								c1.03-2.45,2.13-4.92,3.23-7.46c10-23.04,18.32-46.62,25.44-70.12c4.68-15.45,8.79-31.8,5.23-45.45
								c-2.56-9.78-8.83-17.19-14.97-24.35c-2.94-3.44-7.38-7.03-12.18-4.14c-2.32,1.4-3.9,3.94-5.35,6.33
								c-16.67,27.65-33.43,55.47-45.81,84.64C296.16,383.41,288.57,405.42,273.92,420.86z"/>
						</g>
						<g>
							<path class="st7" d="M210.31,398.41c3.25-5.59,7.49-10.73,12.4-14.93c10.86-9.3,24.04-13.53,35.86-21.04
								c13.07-8.31,24.41-20.79,31.6-34.81c6.88-13.38,9.89-27.64,13.71-41.61c3.29-12.05,7.25-24.06,11.83-35.96
								c3.1-8.03,6.86-22.62,13.32-29.12c5.86-5.91,12.96-5.13,19.43-11.87c7.32-7.62,14.44-16.33,18.24-26.04
								c1.07-2.74,1.8-5.59,2.17-8.41c-8.66,0.73-16.03,3.07-21.54,7.47c-43.14,34.51-55.12,97.28-67.7,132.36
								c-12.58,35.09-77.1,38.36-77.1,38.36S195.63,373.62,210.31,398.41z"/>
						</g>
						<path class="st7" d="M293.69,270.75C293.68,270.76,293.68,270.76,293.69,270.75c0.4,68.49,62.33,111.3,128.32,101.93
							c42.13-5.99,78.56-27.1,109.09-65.55c2.13-33.13,16.85-67.34,16.85-67.34s-119.85-70.17-179.08-65.17
							c-8.66,0.73-16.03,3.07-21.54,7.47C319.02,204.75,304.14,239.57,293.69,270.75z"/>
					</g>
				</g>
				<g>
					<g>
						<g class="st2">
							<g class="st3">
								<path class="st8" d="M565.21,183.8c0.18-1.34,0.41-3.23,1.56-4.91c0.3-0.47,0.68-0.91,1.14-1.34
									c0.65-0.58,1.39-1.03,2.21-1.37c0.04-0.02,0.08-0.04,0.12-0.06c0-1.61,0.22-3.32,0.86-5.03c0.13-0.34,0.28-0.68,0.43-1
									c0.51-1.07,1.16-2.01,1.97-2.84c1.44-1.49,3.25-2.6,5.22-3.23c1.09-0.35,2.22-0.54,3.36-0.59c0.51-0.02,1.04,0,1.55,0.04
									c0.22-0.37,0.44-0.73,0.69-1.08l0.19-0.22c1.17-1.08,2.5-1.97,3.91-2.66c2.22-1.05,4.39-1.46,6.32-1.53
									c1.37-0.05,2.59,0.07,3.62,0.23c0.71-0.69,1.67-1.48,2.98-2.1c1.52-0.71,2.98-0.97,4.21-1.01c1.38-0.06,2.48,0.14,3.06,0.26
									c1.21,0.22,3.37,0.63,5.32,2.25c0.15,0.12,0.29,0.26,0.44,0.39c1.39,1.31,2.15,2.9,2.55,4.44c0.11,0.4,0.19,0.79,0.24,1.18
									c0.38,2.36,0.02,4.43-0.1,5.05c-0.31,1.5-0.6,2.24-1.02,3c0.04,0.1,0.09,0.2,0.14,0.3c1.03,2.33,2.21,5.67,2.7,9.84
									c0.59,4.92-0.01,8.99-0.61,11.64c0.45,0.02,0.9,0.06,1.34,0.14c0,0,0.38,0.06,0.74,0.15c0.03,0.01,0.05,0.01,0.08,0.02
									c0.76,0.18,4.57,2.04,5.59,6.18c0.13,0.56,0.21,1.1,0.23,1.62c0.1,2.14-0.63,3.83-0.95,4.49c-0.01,0-0.01,0-0.01,0
									c-0.29,0.38-0.72,0.94-1.28,1.59c0,0-2.59,3.03-5.39,5.12c-2.85,2.13-8.31,4.34-15.34,5.12c-1.31,0.13-2.62,0.26-3.94,0.38
									c-1.6,0.11-3.86,0.22-6.58,0.21c-1.66-0.01-2.75-0.01-4.22-0.11c-3.25-0.23-6.3-0.46-9.07-1.91
									c-0.48-0.25-0.97-0.54-1.44-0.88c-0.49-0.35-0.86-0.67-1.08-0.86l-0.29-0.26c-1.72-1.66-2.85-3.73-3.22-5.98
									c-0.4-2.48,0.18-4.59,0.82-6.02c-0.9-0.62-1.79-1.33-2.64-2.15c-0.71-0.68-1.39-1.43-2.03-2.28
									c-1.32-1.72-2.23-3.51-2.85-5.02c-0.28-0.69-0.49-1.32-0.66-1.87C565.59,189.49,564.83,187.01,565.21,183.8z"/>
							</g>
							<g class="st3">
								<g>
									<path class="st9" d="M565.21,183.8c0.22-1.71,0.53-4.29,2.7-6.25c0.68-0.6,1.46-1.08,2.33-1.42c0-1.6,0.23-3.31,0.86-5.03
										c0.57-1.51,1.35-2.77,2.4-3.84c1.41-1.47,3.18-2.57,5.13-3.2c0.03-0.01,0.06-0.02,0.1-0.03c1.08-0.35,2.21-0.54,3.36-0.58
										c0.52-0.02,1.04-0.01,1.56,0.04c0.22-0.37,0.44-0.73,0.69-1.08l0.19-0.22c1.17-1.08,2.49-1.98,3.92-2.66
										c1.68-0.8,3.33-1.22,4.87-1.41c0.5-0.07,0.98-0.11,1.45-0.13c1.37-0.05,2.6,0.07,3.62,0.24c0.71-0.7,1.68-1.49,2.98-2.1
										c1.52-0.71,2.98-0.97,4.21-1.02c1.38-0.05,2.48,0.15,3.06,0.26c1.21,0.23,3.38,0.63,5.32,2.25
										c0.15,0.12,0.29,0.26,0.44,0.39c1.39,1.32,2.15,2.9,2.56,4.44c-0.64-0.74-1.65-1.73-3.11-2.5
										c-3.93-2.07-8.96-1.43-12.25,0.79c-2.75,1.85-5.2,5.42-5.2,5.42c0,0-1.43-0.51-4.3-1.54c-0.05-0.02-0.11-0.03-0.16-0.04
										c-2.22-0.55-4.6,0.01-6.58,1.16c-1.13,0.66-2.15,1.49-3.07,2.43c-1.02,1.04-1.05,1.73-1.93,2.19
										c-1.09,0.56-1.66,0.01-3.23,0.27c-0.2,0.03-2.51,0.44-3.86,2.14c-1.08,1.37-0.52,2.3-1.43,4.39
										c-0.83,1.93-2.07,2.91-2.73,3.61c-1.52,1.61-2.99,4.88-2.33,12.24c-0.28-0.68-0.5-1.32-0.66-1.86
										C565.59,189.49,564.82,187.01,565.21,183.8z"/>
								</g>
							</g>
							<g class="st3">
								<g>
									<path class="st9" d="M592.09,164.85c0.09-1.52,0.38-3.18,0.38-3.18c0.2-1.12,0.47-2.3,0.83-3.54
										c0.5-0.07,0.98-0.11,1.45-0.13c1.37-0.05,2.6,0.07,3.62,0.25c0,0-1.57,3.19-1.98,8.21c-0.09,1.13-0.13,2.36-0.07,3.66
										c0.15,3.42,1.97,5.43,1.04,6.6c-0.07,0.08-0.42,0.51-0.94,0.53C594.17,177.33,591.82,169.39,592.09,164.85z"/>
								</g>
							</g>
							<path class="st10" d="M578.07,168.09c0.19-1.55,0.38-2.89,0.56-4.03c0.03-0.01,0.06-0.02,0.1-0.03
								c1.08-0.35,2.21-0.54,3.36-0.58c0.52-0.02,1.04-0.01,1.56,0.04c0,0-0.84,1.78-1.36,4.68c-0.52,2.91-0.71,6.96,0.62,11.49
								c0.71,2.43-4.3,1.78-4.98-6.19C577.79,171.95,577.82,170.17,578.07,168.09z"/>
							<path class="st10" d="M574.29,202.45c0,0,5.58,3.64,18.41,1.18c-0.96,0.26-18.93,5.1-13.21,12.81
								c-0.48-0.25-0.97-0.54-1.44-0.88c-0.49-0.35-0.86-0.67-1.08-0.86l-0.29-0.26c-1.72-1.66-2.85-3.73-3.22-5.98
								C573.07,205.99,573.65,203.88,574.29,202.45z"/>
							<path class="st10" d="M610.64,166.43c0,0,4.32,2.53,5.42,5.25c0.04,0.1,0.09,0.2,0.14,0.3c1.03,2.33,2.21,5.67,2.7,9.84
								c0.59,4.92-0.01,8.99-0.61,11.64c0.45,0.02,0.9,0.06,1.34,0.14c0,0,0.38,0.06,0.74,0.15c0.03,0.01,0.05,0.01,0.08,0.02
								c0.76,0.18,4.57,2.04,5.59,6.18c0.13,0.56,0.21,1.1,0.23,1.62c-5.1-4.56-16.76-2.47-16.76-2.47
								c0.02-0.01,0.03-0.02,0.05-0.02c2.7-1.18,4.55-3.74,4.87-6.67C615.14,185.67,615.64,173.17,610.64,166.43z"/>
							<path class="st10" d="M570.24,176.13c0-1.61,0.22-3.32,0.86-5.03c0.13-0.34,0.28-0.68,0.43-1c0.37,1.44,0.66,3.58,0.66,3.58
								s0.07,1.43,0.23,3.54c0.39,4.95,1.27,13.6,2.79,16.16c2.1,3.53-4.93,2.54-5.13-13.64c-0.01-0.55-0.01-1.11,0-1.7
								c0.01-0.66,0.03-1.28,0.03-1.86C570.16,176.16,570.2,176.15,570.24,176.13z"/>
							<path class="st11" d="M585.77,215.6c-0.09-1.14,11.57-0.36,28.17-7.59c4.15-1.81,9.15-4.36,9.69-3.53
								c0.5,0.76-3.09,3.96-4.39,5.04C606.89,219.77,585.89,217.13,585.77,215.6z"/>
							<path class="st11" d="M605.97,183.18c0.56-9.84,0.84-14.76,1.78-14.9c1.85-0.27,6.86,10.03,4.38,19.68
								c-1.23,4.77-4.29,9.41-5.68,9.02C605.24,196.64,605.47,192.15,605.97,183.18z"/>
							<path class="st11" d="M589.99,177.71c-2.13-5.11-0.08-10.86,0.65-10.83c0.45,0.02,0.1,2.27,1.57,6.46
								c0.7,2,1.29,2.94,1.86,5.3c0.4,1.66,0.93,3.83,0.36,4.12C593.71,183.12,591.21,180.64,589.99,177.71z"/>
							<path class="st11" d="M576.93,185.09c-3.64-4.37-1.3-12.43-0.33-12.43c0.48,0,0.29,1.91,2.07,8.31
								c1.02,3.66,1.79,5.59,1.19,5.97C579.31,187.3,577.82,186.15,576.93,185.09z"/>
						</g>
						<g>
							<g>
								<path class="st12" d="M585.31,213.46c1.6-0.17,3.17-0.53,4.68-1.09c0.56-0.21,1.15-0.48,1.46-0.99
									c0.36-0.59,0.26-1.35,0.12-2.03c-0.99-5.02-3-9.84-5.86-14.08c-0.45-0.66-0.99-1.36-1.77-1.53
									c-0.71-0.15-1.43,0.18-2.08,0.51c-2.17,1.1-4.29,2.31-6.35,3.62c-1.11,0.71-2.23,1.48-2.88,2.62
									c-0.44,0.78-0.63,1.68-0.68,2.57c-0.23,3.7,1.91,7.45,5.22,9.13c2.45,1.25,5.34,1.4,7.77,2.67L585.31,213.46z"/>
							</g>
							<g>
								<path class="st13" d="M581.75,186.31c2.45-3.03,6.27-4.54,9.9-5.95c3.31-1.27,6.7-2.56,10.25-2.73
									c3.55-0.18,7.34,0.96,9.53,3.75c0.44,0.56,0.8,1.17,1.11,1.81c0.6,1.23,1,2.57,1.39,3.89c0.95,3.18,1.9,6.36,2.84,9.54
									c0.76,2.55,1.52,5.14,1.5,7.8c-0.14,14.15-20.33,23.3-31.33,15.94c-2.01-1.34-3.71-3.23-4.92-5.74
									c-1.89-3.89-2.56-8.26-3.02-12.57C578.42,196.63,578.3,190.57,581.75,186.31z"/>
							</g>
							<path class="st14" d="M581.75,186.31c2.45-3.03,6.27-4.54,9.9-5.95c3.31-1.27,6.7-2.56,10.25-2.73
								c3.55-0.18,7.34,0.96,9.53,3.75c0.44,0.56,0.8,1.17,1.11,1.81c-5.26,0.5-13.29,2.28-21.37,8
								c-9.75,6.92-6.79,21.35-4.23,29.17c-2.01-1.34-3.71-3.23-4.92-5.74c-1.89-3.89-2.56-8.26-3.02-12.57
								C578.42,196.63,578.3,190.57,581.75,186.31z"/>
						</g>
					</g>
					<path class="st15" d="M608.37,207.84l-13.17,4.89c0.12,0.32,11.74,32.49-2.56,50.53c-3.34,4.22-9,5.42-15.54,4.87
						c-3.6,4.79-9.46,7.74-15.89,7.33c-0.31-0.02-0.62-0.05-0.93-0.08c-0.35,1.02-0.72,2.06-1.11,3.12
						c25.75,8.38,38.39,1.17,44.48-6.5C622.9,247.72,608.98,209.45,608.37,207.84z"/>
					<path class="st15" d="M563.12,265.01c4.76,1.58,9.57,2.75,13.98,3.12c2.08-2.77,3.4-6.15,3.64-9.86
						c0.64-10.14-7.05-18.88-17.19-19.53c-0.32-0.02-0.65-0.03-0.97-0.04C564.41,244.71,565.48,253.42,563.12,265.01z"/>
					<path class="st15" d="M560.29,275.38c0.31,0.04,0.62,0.06,0.93,0.08c6.43,0.41,12.29-2.54,15.89-7.33
						c-4.41-0.37-9.22-1.54-13.98-3.12C562.46,268.24,561.53,271.69,560.29,275.38z"/>
					<path class="st16" d="M544,256.69c-2.89-1.53-5.36-2.98-7.2-4.14l-7.54,11.86c0.52,0.33,12.88,8.14,27.63,13.32
						c0.78,0.27,1.54,0.53,2.29,0.77c0.4-1.06,0.77-2.1,1.11-3.12C550.86,274.3,543.78,266.19,544,256.69z"/>
					<path class="st16" d="M544.03,255.93c-0.02,0.25-0.02,0.51-0.03,0.76c5.38,2.85,12.2,6.02,19.12,8.32
						c2.36-11.59,1.29-20.29-0.54-26.3C552.86,238.59,544.65,246.12,544.03,255.93z"/>
					<path class="st16" d="M544,256.69c-0.22,9.5,6.86,17.61,16.29,18.69c1.25-3.68,2.18-7.14,2.83-10.37
						C556.2,262.71,549.37,259.54,544,256.69z"/>
				</g>
				<g>
					<path class="st15" d="M246.84,205.41c-0.8,1.53-19.46,37.72-3.44,64.23c5.22,8.63,17.37,17.66,45.67,11.61
						c15.28-3.27,28.53-9.45,29.09-9.71l-5.98-12.72c-11.91,5.58-47.9,18.21-56.75,3.55c-11.91-19.71,3.7-50.14,3.86-50.45
						L246.84,205.41z"/>
					<g class="st2">
						<g class="st3">
							<path class="st8" d="M292.71,187.03c-0.01-1.35,0-3.25-0.92-5.07c-0.24-0.5-0.56-0.99-0.96-1.47
								c-0.57-0.66-1.25-1.2-2.02-1.64c-0.03-0.02-0.07-0.05-0.12-0.07c0.21-1.59,0.2-3.32-0.22-5.1c-0.08-0.36-0.19-0.71-0.3-1.05
								c-0.37-1.13-0.9-2.14-1.59-3.06c-1.24-1.66-2.89-2.99-4.77-3.87c-1.03-0.48-2.13-0.82-3.26-1.01
								c-0.51-0.08-1.03-0.14-1.55-0.15c-0.17-0.39-0.34-0.78-0.55-1.15l-0.16-0.24c-1.03-1.22-2.23-2.27-3.55-3.13
								c-2.07-1.32-4.17-2-6.08-2.32c-1.35-0.23-2.58-0.26-3.62-0.23c-0.61-0.78-1.47-1.68-2.69-2.46c-1.41-0.9-2.83-1.33-4.05-1.54
								c-1.36-0.23-2.47-0.17-3.07-0.13c-1.23,0.07-3.43,0.2-5.56,1.55c-0.16,0.1-0.32,0.22-0.49,0.34c-1.54,1.13-2.5,2.6-3.1,4.08
								c-0.16,0.38-0.29,0.76-0.39,1.14c-0.68,2.29-0.58,4.39-0.54,5.03c0.12,1.53,0.31,2.3,0.63,3.1c-0.06,0.1-0.11,0.18-0.17,0.28
								c-1.32,2.18-2.91,5.35-3.93,9.42c-1.21,4.8-1.13,8.92-0.87,11.62c-0.45-0.04-0.9-0.05-1.34-0.03c0,0-0.38,0.01-0.76,0.05
								c-0.03,0.01-0.05,0-0.08,0.01c-0.77,0.08-4.79,1.44-6.33,5.42c-0.2,0.54-0.35,1.07-0.43,1.58c-0.37,2.11,0.14,3.88,0.37,4.58
								c0.01,0,0.01,0,0.01,0c0.24,0.42,0.6,1.02,1.06,1.74c0,0,2.19,3.34,4.69,5.76c2.56,2.47,7.69,5.36,14.57,7.02
								c1.28,0.29,2.57,0.59,3.86,0.87c1.57,0.31,3.8,0.71,6.5,1.04c1.65,0.2,2.72,0.34,4.2,0.42c3.25,0.19,6.31,0.34,9.24-0.75
								c0.51-0.19,1.03-0.41,1.54-0.69c0.53-0.28,0.94-0.55,1.18-0.72l0.32-0.22c1.92-1.43,3.3-3.34,3.95-5.52
								c0.71-2.4,0.4-4.57-0.05-6.07c0.97-0.5,1.94-1.09,2.89-1.79c0.79-0.58,1.56-1.25,2.3-2c1.53-1.54,2.66-3.2,3.46-4.62
								c0.36-0.65,0.66-1.25,0.89-1.77C291.61,192.63,292.68,190.27,292.71,187.03z"/>
						</g>
						<g class="st3">
							<g>
								<path class="st9" d="M292.71,187.04c0-1.72,0.01-4.32-1.88-6.54c-0.6-0.68-1.31-1.25-2.14-1.71
									c0.2-1.59,0.19-3.32-0.22-5.09c-0.37-1.57-0.99-2.92-1.89-4.12c-1.21-1.64-2.83-2.95-4.68-3.82
									c-0.03-0.01-0.06-0.03-0.09-0.04c-1.03-0.48-2.13-0.81-3.26-1c-0.51-0.09-1.03-0.14-1.55-0.16
									c-0.17-0.39-0.35-0.78-0.55-1.15l-0.16-0.24c-1.03-1.22-2.22-2.28-3.55-3.13c-1.56-1-3.14-1.63-4.65-2.01
									c-0.48-0.13-0.96-0.23-1.42-0.31c-1.35-0.23-2.58-0.26-3.62-0.23c-0.62-0.78-1.48-1.69-2.69-2.46
									c-1.42-0.9-2.83-1.34-4.04-1.54c-1.36-0.23-2.48-0.17-3.07-0.13c-1.23,0.07-3.43,0.2-5.56,1.56
									c-0.16,0.1-0.32,0.22-0.48,0.33c-1.54,1.13-2.5,2.6-3.1,4.08c0.73-0.65,1.85-1.51,3.4-2.09c4.16-1.56,9.07-0.28,12.05,2.33
									c2.49,2.18,4.47,6.03,4.47,6.03c0,0,1.49-0.33,4.46-0.98c0.05-0.01,0.11-0.02,0.16-0.02c2.27-0.27,4.56,0.6,6.38,1.98
									c1.04,0.79,1.94,1.75,2.74,2.8c0.88,1.17,0.82,1.85,1.64,2.41c1.01,0.7,1.65,0.23,3.17,0.67c0.19,0.06,2.43,0.75,3.55,2.61
									c0.9,1.5,0.23,2.35,0.86,4.54c0.58,2.02,1.68,3.15,2.25,3.93c1.31,1.79,2.35,5.22,0.76,12.44c0.36-0.64,0.66-1.24,0.9-1.77
									C291.61,192.63,292.68,190.27,292.71,187.04z"/>
							</g>
						</g>
						<g class="st3">
							<g>
								<path class="st9" d="M268.44,164.83c0.1-1.52,0.03-3.2,0.03-3.2c-0.05-1.14-0.17-2.34-0.38-3.62
									c-0.48-0.13-0.96-0.23-1.42-0.31c-1.35-0.23-2.59-0.26-3.63-0.21c0,0,1.15,3.37,0.93,8.39c-0.05,1.14-0.17,2.36-0.39,3.64
									c-0.58,3.38-2.64,5.13-1.87,6.42c0.06,0.09,0.35,0.56,0.86,0.65C264.8,176.94,268.14,169.37,268.44,164.83z"/>
							</g>
						</g>
						<path class="st10" d="M281.94,169.82c0.01-1.57-0.01-2.92-0.05-4.07c-0.03-0.01-0.06-0.03-0.09-0.04
							c-1.03-0.48-2.13-0.81-3.26-1c-0.51-0.09-1.03-0.14-1.55-0.16c0,0,0.61,1.87,0.76,4.82c0.14,2.95-0.18,6.99-2.07,11.32
							c-1.01,2.32,4.04,2.31,5.72-5.51C281.73,173.68,281.93,171.92,281.94,169.82z"/>
						<path class="st10" d="M281.33,204.39c0,0-5.99,2.91-18.41-1.16c0.92,0.38,18.13,7.46,11.48,14.38
							c0.51-0.19,1.03-0.41,1.54-0.69c0.53-0.28,0.94-0.55,1.18-0.72l0.32-0.22c1.92-1.43,3.3-3.34,3.95-5.52
							C282.09,208.05,281.79,205.89,281.33,204.39z"/>
						<path class="st10" d="M249.84,164.05c0,0-4.6,1.97-6.04,4.52c-0.06,0.1-0.11,0.18-0.17,0.28c-1.32,2.18-2.91,5.35-3.93,9.42
							c-1.21,4.8-1.13,8.92-0.87,11.62c-0.45-0.04-0.9-0.05-1.34-0.03c0,0-0.38,0.01-0.76,0.05c-0.03,0.01-0.05,0-0.08,0.01
							c-0.77,0.08-4.79,1.44-6.33,5.42c-0.2,0.54-0.35,1.07-0.43,1.58c5.63-3.88,16.94-0.32,16.94-0.32
							c-0.02-0.01-0.03-0.02-0.05-0.03c-2.53-1.52-4.04-4.28-3.98-7.23C242.94,182.57,244.03,170.1,249.84,164.05z"/>
						<path class="st10" d="M288.69,178.79c0.21-1.59,0.2-3.32-0.22-5.1c-0.08-0.36-0.19-0.71-0.3-1.05
							c-0.55,1.38-1.11,3.47-1.11,3.47s-0.25,1.41-0.68,3.48c-1.01,4.86-2.98,13.33-4.81,15.67c-2.53,3.23,4.57,3.14,6.82-12.89
							c0.08-0.54,0.15-1.1,0.21-1.68c0.07-0.66,0.14-1.27,0.2-1.85C288.77,178.83,288.73,178.81,288.69,178.79z"/>
						<path class="st11" d="M268.29,215.98c0.24-1.12-11.43-1.82-26.98-11.1c-3.89-2.32-8.52-5.48-9.16-4.73
							c-0.59,0.69,2.56,4.32,3.71,5.56C246.8,217.44,267.97,217.48,268.29,215.98z"/>
						<path class="st11" d="M252.35,181.25c0.69-9.83,1.04-14.75,0.12-15.01c-1.8-0.5-8.08,9.08-6.84,18.96
							c0.61,4.88,3.06,9.88,4.5,9.67C251.37,194.7,251.72,190.21,252.35,181.25z"/>
						<path class="st11" d="M268.9,177.85c2.76-4.8,1.46-10.76,0.73-10.83c-0.45-0.04-0.39,2.24-2.38,6.21
							c-0.95,1.89-1.65,2.75-2.52,5.02c-0.61,1.6-1.41,3.68-0.87,4.05C264.52,182.75,267.31,180.61,268.9,177.85z"/>
						<path class="st11" d="M280.91,186.83c4.16-3.87,2.87-12.16,1.9-12.29c-0.47-0.06-0.53,1.86-3.11,7.98
							c-1.47,3.5-2.49,5.32-1.94,5.77C278.27,188.72,279.9,187.77,280.91,186.83z"/>
					</g>
					<g>
						<g>
							<path class="st12" d="M269.01,213.92c-1.56-0.37-3.08-0.93-4.5-1.68c-0.53-0.28-1.08-0.62-1.33-1.16
								c-0.28-0.63-0.09-1.37,0.13-2.03c1.62-4.86,4.22-9.38,7.6-13.23c0.53-0.6,1.15-1.23,1.95-1.3c0.73-0.06,1.4,0.36,2,0.77
								c2.01,1.37,3.96,2.84,5.84,4.4c1.01,0.84,2.03,1.75,2.53,2.96c0.34,0.83,0.41,1.74,0.35,2.64c-0.24,3.7-2.84,7.15-6.33,8.4
								c-2.58,0.93-5.47,0.71-8.05,1.67L269.01,213.92z"/>
						</g>
						<g>
							<path class="st13" d="M275.98,187.43c-2.05-3.31-5.64-5.3-9.07-7.15c-3.12-1.68-6.32-3.39-9.82-4
								c-3.49-0.62-7.41,0.02-9.93,2.51c-0.51,0.5-0.94,1.06-1.33,1.65c-0.75,1.14-1.32,2.42-1.87,3.68
								c-1.35,3.03-2.69,6.07-4.03,9.11c-1.08,2.43-2.16,4.9-2.48,7.54c-1.65,14.06,17.22,25.68,29.06,19.78
								c2.16-1.07,4.09-2.73,5.61-5.07c2.36-3.62,3.58-7.87,4.58-12.08C277.98,198.08,278.86,192.09,275.98,187.43z"/>
						</g>
						<path class="st14" d="M275.98,187.43c-2.05-3.31-5.64-5.3-9.07-7.15c-3.12-1.68-6.32-3.39-9.82-4
							c-3.49-0.62-7.41,0.02-9.93,2.51c-0.51,0.5-0.94,1.06-1.33,1.65c5.16,1.16,12.9,3.95,20.18,10.65
							c8.8,8.1,4.03,22.04,0.5,29.47c2.16-1.07,4.09-2.73,5.61-5.07c2.36-3.62,3.58-7.87,4.58-12.08
							C277.98,198.08,278.86,192.09,275.98,187.43z"/>
					</g>
				</g>
				<circle class="st15" cx="290.81" cy="259.84" r="18.39"/>
				<g>
					<g>
						<path class="st15" d="M392.48,388.98c-5.58-0.63-11.3-1.03-16.54-3.16c-0.58-0.24-1.2-0.5-1.84-0.79
							c0.47-5.92,1.32-13.32,2.83-21.59c1.04-5.74,2.27-11.1,3.63-16.37c1.92-7.42,4.11-14.66,6.49-22.52c0.5-1.65,0.92-3,1.21-3.94
							l17.58,6.1c-0.05,0.15-0.12,0.38-0.21,0.66c-1.56,4.96-5.39,17.25-8.36,30.19c-0.56,2.41-1.09,4.85-1.56,7.27
							C393.95,373.75,392.98,381.92,392.48,388.98z"/>
					</g>
					<g>
						<g>
							<g>
								<path class="st13" d="M403.3,435.87c-0.48,2.29-2.8,3.07-4.71,3.27c-4.68,0.49-9.39,0.09-14.08-0.01
									c-6.94-0.15-13.91,0.32-20.82,1.42c-5.31,0.84-10.77,2.04-15.93,0.47c-1.12-0.34-2.31-0.97-3.11-1.93
									c-0.51-0.62-0.85-1.38-0.91-2.28c-0.06-0.93,0.22-1.85,0.57-2.69c2.06-5.01,6.49-7.76,10.63-10.13
									c4.95-2.82,9.97-5.61,15.3-6.94c2.33-0.58,4.24-0.87,6.12-0.82c0,0,0-0.01-0.01-0.02c-0.23-0.65-8.34-23.77-5.85-34.73
									c0.24-1.04,1.12-1.65,1.97-1.38c0.07,0.02,0.15,0.05,0.23,0.07c2.86,0.92,9.09,2.71,15.52,3.25
									c1.43,0.12,2.86,0.17,4.28,0.15c0.18,0,0.36-0.01,0.53-0.01c1.58-0.05,2.86,1.45,2.9,3.39c0.13,7.99,0.9,27.54,5.34,41.31
									c0.01,0.02,0.02,0.03,0.02,0.05c0.49,1.5,1.02,2.93,1.59,4.26C403.23,433.61,403.54,434.77,403.3,435.87z"/>
							</g>
						</g>
						<g>
							<path class="st14" d="M403.3,435.87c-0.48,2.29-2.8,3.07-4.71,3.27c-4.68,0.49-9.39,0.09-14.08-0.01
								c-6.94-0.15-13.91,0.32-20.82,1.42c-5.31,0.84-10.77,2.04-15.93,0.47c-1.12-0.34-2.31-0.97-3.11-1.93
								c1.94-0.21,4.73-0.55,8.07-1.04c19.03-2.8,16.34-4.88,27.98-6.27c3.52-0.42,6.18-0.52,8.02-3.07
								c0.66-0.91,2.7-3.25,1.52-11.48c-0.69-4.83-1.4-9.65-2.05-14.49c-0.79-5.8-1.94-12.03-0.46-17.79
								c0.13-0.52,0.29-1.03,0.49-1.53c1.43,0.12,2.86,0.17,4.28,0.15c0.18,0,0.36-0.01,0.53-0.01c1.58-0.05,2.86,1.45,2.9,3.39
								c0.13,7.99,0.9,27.54,5.34,41.31c0.01,0.02,0.02,0.03,0.02,0.05c0.49,1.5,1.02,2.93,1.59,4.26
								C403.23,433.61,403.54,434.77,403.3,435.87z"/>
						</g>
						<path class="st17" d="M379.79,393.03c2.43,8.81,2.69,20.56,1.11,20.94c-1.62,0.39-5.06-11.3-4.45-21.09
							c0.07-1.08,0.29-4.63,1.08-4.77C378.39,387.95,379.46,391.84,379.79,393.03z"/>
						<path class="st17" d="M375.22,421.05c0.1,0.86-5.96,2.68-8.8,3.54c-2.18,0.66-11.84,3.57-12.1,2.51
							c-0.21-0.86,5.65-4.5,12.25-5.89C370.68,420.34,375.13,420.33,375.22,421.05z"/>
					</g>
					<g>
						<path class="st16" d="M388.27,320.61l17.58,6.1c-0.05,0.15-0.12,0.38-0.21,0.66c-1.55,4.96-5.39,17.25-8.36,30.19
							c-2.93-1.21-5.78-2.63-8.55-4.31c-2.85-1.73-5.6-3.8-8.17-6.17c1.92-7.42,4.11-14.66,6.5-22.52
							C387.56,322.9,387.98,321.54,388.27,320.61z"/>
					</g>
				</g>
				<g>
					<g>
						<path class="st15" d="M465.16,391.45c5.57-0.73,11.28-1.22,16.48-3.45c0.57-0.25,1.19-0.52,1.83-0.82
							c-0.58-5.92-1.55-13.3-3.21-21.54c-1.14-5.72-2.46-11.06-3.92-16.31c-2.05-7.38-4.37-14.58-6.89-22.4
							c-0.53-1.64-0.97-2.99-1.28-3.92l-17.47,6.4c0.05,0.15,0.13,0.38,0.22,0.65c1.64,4.93,5.69,17.16,8.89,30.04
							c0.6,2.4,1.17,4.83,1.69,7.24C463.42,376.26,464.53,384.41,465.16,391.45z"/>
					</g>
					<g>
						<g>
							<g>
								<path class="st13" d="M455.89,436.55c0.57,2.27,2.91,2.96,4.83,3.08c4.7,0.3,9.38-0.27,14.07-0.55
									c6.93-0.42,13.91-0.22,20.86,0.61c5.34,0.64,10.84,1.62,15.94-0.15c1.11-0.38,2.27-1.06,3.03-2.05
									c0.48-0.64,0.8-1.41,0.82-2.32c0.02-0.94-0.29-1.84-0.67-2.67c-2.26-4.93-6.78-7.5-11.02-9.71
									c-5.05-2.63-10.18-5.22-15.55-6.34c-2.35-0.49-4.27-0.7-6.14-0.59c0,0,0-0.01,0.01-0.02c0.21-0.65,7.41-24.08,4.5-34.93
									c-0.28-1.03-1.19-1.6-2.02-1.3c-0.07,0.03-0.15,0.05-0.23,0.08c-2.82,1.03-8.98,3.06-15.38,3.85
									c-1.42,0.17-2.85,0.28-4.27,0.31c-0.18,0-0.36,0.01-0.53,0.01c-1.58,0.01-2.81,1.56-2.76,3.5
									c0.18,7.99,0.16,27.56-3.73,41.48c-0.01,0.02-0.02,0.03-0.02,0.05c-0.43,1.52-0.9,2.97-1.42,4.32
									C455.87,434.28,455.62,435.46,455.89,436.55z"/>
							</g>
						</g>
						<g>
							<path class="st14" d="M455.89,436.55c0.57,2.27,2.91,2.96,4.83,3.08c4.7,0.3,9.38-0.27,14.07-0.55
								c6.93-0.42,13.91-0.22,20.86,0.61c5.34,0.64,10.84,1.62,15.94-0.15c1.11-0.38,2.27-1.06,3.03-2.05
								c-1.95-0.14-4.75-0.36-8.11-0.73c-19.13-2.06-16.52-4.24-28.2-5.18c-3.53-0.29-6.2-0.28-8.13-2.75
								c-0.69-0.89-2.83-3.14-1.97-11.41c0.5-4.85,1.02-9.7,1.49-14.56c0.56-5.83,1.47-12.1-0.23-17.79
								c-0.15-0.51-0.33-1.02-0.54-1.51c-1.42,0.17-2.85,0.28-4.27,0.31c-0.18,0-0.36,0.01-0.53,0.01c-1.58,0.01-2.81,1.56-2.76,3.5
								c0.18,7.99,0.16,27.56-3.73,41.48c-0.01,0.02-0.02,0.03-0.02,0.05c-0.43,1.52-0.9,2.97-1.42,4.32
								C455.87,434.28,455.62,435.46,455.89,436.55z"/>
						</g>
						<path class="st17" d="M480.08,391.49c-2.97,8.64-3.97,20.36-2.42,20.83c1.59,0.49,5.76-10.96,5.76-20.77
							c0-1.08,0-4.64-0.78-4.83C481.79,386.51,480.48,390.32,480.08,391.49z"/>
						<path class="st17" d="M481.29,419.52c-0.07,0.86,6.06,2.45,8.93,3.2c2.2,0.57,11.97,3.11,12.18,2.03
							c0.17-0.87-5.82-4.27-12.46-5.41C485.79,418.63,481.34,418.8,481.29,419.52z"/>
					</g>
					<g>
						<path class="st16" d="M468.17,323.02l-17.47,6.41c0.05,0.15,0.13,0.38,0.22,0.65c1.64,4.93,5.69,17.16,8.89,30.04
							c2.91-1.26,5.74-2.73,8.47-4.46c2.82-1.78,5.53-3.9,8.06-6.31c-2.05-7.38-4.37-14.58-6.89-22.41
							C468.92,325.3,468.47,323.95,468.17,323.02z"/>
					</g>
				</g>
				<g>
					<path class="st15" d="M429.64,154.77c33.84,2.25,67.32,13.4,88.83,31.09c28.61,23.52,39.71,67.7,21.97,100.91
						c-19.6,36.69-60.6,52.98-99.53,58.93c-39.66,6.06-91.91-1.45-119.22-33.25c-44.4-51.7-6.54-133.43,53.08-151.33
						C391.62,156.06,412.05,153.59,429.64,154.77z"/>
					<path class="st13" d="M510.09,249.53c-3.99,19.33-26.5,30.36-44.92,23.33c-23.08-8.81-31.85-36-16.41-55.32
						c9.39-11.72,24.14-15.75,38.24-10.7C502.22,212.29,513.28,234.09,510.09,249.53z"/>
					<path class="st15" d="M501.09,246.97c-2.94,14.23-19.52,22.36-33.08,17.18c-16.99-6.49-23.46-26.51-12.08-40.74
						c6.91-8.63,17.78-11.6,28.16-7.88C495.29,219.55,503.44,235.6,501.09,246.97z"/>
					<path class="st18" d="M497.86,246.01c-2.53,12.26-16.81,19.27-28.5,14.8c-14.64-5.6-20.21-22.85-10.41-35.11
						c5.95-7.44,15.32-10,24.26-6.79C492.87,222.38,499.89,236.2,497.86,246.01z"/>
					<path class="st19" d="M489.87,244.81c-1.94,9.37-12.85,14.72-21.77,11.31c-11.18-4.28-15.44-17.46-7.95-26.82
						c4.54-5.69,11.7-7.64,18.54-5.19C486.05,226.76,491.41,237.32,489.87,244.81z"/>
					<path class="st13" d="M420.31,253.52c-3.99,19.33-26.5,30.36-44.92,23.33c-23.08-8.81-31.85-36-16.41-55.32
						c9.39-11.72,24.14-15.75,38.24-10.7C412.44,216.28,423.5,238.08,420.31,253.52z"/>
					<path class="st15" d="M411.31,250.97c-2.94,14.23-19.52,22.36-33.08,17.18c-16.99-6.49-23.46-26.51-12.08-40.74
						c6.91-8.63,17.78-11.6,28.16-7.88C405.51,223.55,413.66,239.6,411.31,250.97z"/>
					<path class="st18" d="M407.83,249.98c-2.53,12.27-16.82,19.27-28.5,14.8c-14.64-5.59-20.21-22.85-10.41-35.1
						c5.96-7.44,15.32-10,24.27-6.79C402.83,226.35,409.85,240.18,407.83,249.98z"/>
					<path class="st19" d="M402.33,248.56c-1.94,9.37-12.85,14.72-21.77,11.31c-11.19-4.28-15.44-17.46-7.95-26.82
						c4.55-5.68,11.7-7.64,18.53-5.18C398.51,230.51,403.88,241.08,402.33,248.56z"/>
					<path class="st19" d="M435.9,287.5c0.37,0.02,0.74,0.01,1.11-0.03c1.57-0.2,2.98-1.1,4.07-2.61c1.92-2.64,2.45-6.44,1.99-8.82
						c-0.13-0.68-0.79-1.11-1.46-0.99c-0.68,0.13-1.12,0.78-0.99,1.46c0.36,1.84-0.13,4.92-1.56,6.89c-0.69,0.95-1.48,1.49-2.36,1.6
						c-1.01,0.12-1.91-0.17-2.76-0.91c-1.97-1.72-3.18-5.52-3.21-8.19c0-0.69-0.56-1.25-1.25-1.24c-0.69,0.01-1.25,0.57-1.23,1.26
						c0.02,2.63,1.12,7.48,4.06,10.04C433.37,286.89,434.6,287.42,435.9,287.5z"/>
					<path class="st20" d="M493.18,281.9c-2.51,3.72-9.54,4.98-14.88,4.82c-3.59-0.11-16.21-1.43-12.47-5.69
						C470.13,276.11,496.91,276.37,493.18,281.9z"/>
					<path class="st20" d="M397.23,286.64c-2.51,3.72-9.54,4.98-14.88,4.82c-3.6-0.11-16.21-1.43-12.47-5.69
						C374.18,280.84,400.97,281.11,397.23,286.64z"/>
					<path class="st19" d="M464.42,199.76c0.45,0.03,0.88-0.23,1.04-0.68c0.07-0.19,1.9-4.75,8.83-4.77
						c8.12-0.04,10.44,6.01,10.46,6.07c0.2,0.54,0.79,0.81,1.33,0.61c0.53-0.2,0.81-0.79,0.61-1.33c-0.11-0.3-2.86-7.45-12.41-7.43
						c-8.43,0.03-10.68,5.88-10.77,6.13c-0.2,0.54,0.08,1.13,0.61,1.33C464.22,199.73,464.32,199.75,464.42,199.76z"/>
					<path class="st19" d="M370.18,207.96c0.5,0.03,0.96-0.3,1.07-0.81c0.06-0.26,1.56-6.38,9.55-7.43c6.88-0.91,9.3,3.36,9.4,3.54
						c0.27,0.5,0.9,0.69,1.4,0.42c0.5-0.27,0.69-0.89,0.42-1.39c-0.12-0.23-3.14-5.73-11.5-4.62c-9.47,1.25-11.23,8.72-11.29,9.04
						c-0.13,0.56,0.23,1.11,0.78,1.23C370.07,207.94,370.12,207.95,370.18,207.96z"/>
					<path class="st16" d="M414.99,326.03c45.54-7.7,92.91-33.84,97.91-81.21c2.56-22.95,1.7-49.77-10.83-69.99
						c6,3.32,11.52,7,16.41,11.03c28.61,23.52,39.71,67.7,21.97,100.91c-19.6,36.69-60.6,52.98-99.53,58.93
						c-37.57,5.74-86.43-0.69-114.69-28.42C354.12,326.97,383.64,330.98,414.99,326.03z"/>
					<path class="st21" d="M425.49,148.76c-0.43,0.11-0.86,0.22-1.3,0.32C424.19,149.09,424.65,148.96,425.49,148.76z"/>
					<path class="st16" d="M345.21,200.12c-1.08,0.87-3.08,3.79-1.82,5.16c1.7,1.84,4.68-0.86,5.02-2.58
						C348.84,200.51,347.42,198.33,345.21,200.12z"/>
					<path class="st16" d="M332.65,216.83c-3.91,1.66-8.75,7.39-5.35,10.25c1.68,1.42,4.07,0.33,5.64-1.09
						c1.81-1.64,4.16-5.08,3.76-7.68C336.36,216.19,334.62,216,332.65,216.83z"/>
					<path class="st16" d="M336.5,207.35c0.58-0.58,1.05-1.15,1.32-1.53c0.74-1.04,1.31-2.7,0.78-3.93
						c-0.45-1.04-1.84-1.12-2.84-0.93c-0.99,0.18-1.95,0.91-2.62,1.63c-1.23,1.31-2.85,3.61-2.22,5.51
						C331.91,211.08,334.71,209.14,336.5,207.35z"/>
					<g>
						<defs>
							<path id="SVGID_00000016787893750371872840000010332009254727434939_" d="M429.64,154.77c33.84,2.25,67.32,13.4,88.83,31.09
								c28.61,23.52,39.71,67.7,21.97,100.91c-19.6,36.69-60.6,52.98-99.53,58.93c-39.66,6.06-91.91-1.45-119.22-33.25
								c-44.4-51.7-6.54-133.43,53.08-151.33C391.62,156.06,412.05,153.59,429.64,154.77z"/>
						</defs>
						<clipPath id="SVGID_00000111172371834100238880000001958768999727221640_">
							<use xlink:href="#SVGID_00000016787893750371872840000010332009254727434939_"  style="overflow:visible;"/>
						</clipPath>
						<g style="clip-path:url(#SVGID_00000111172371834100238880000001958768999727221640_);">
							<path class="st23" d="M400.71,170.43c0.84-0.19,1.3-0.32,1.3-0.32C401.57,170.21,401.14,170.32,400.71,170.43z"/>
							<path class="st23" d="M438.01,166.21c-3.63-0.03-5.85,0.36-5.85,0.36C434.19,166.55,436.14,166.43,438.01,166.21z"/>
							<path class="st16" d="M438.01,166.21c-1.87,0.22-3.82,0.35-5.85,0.36C432.15,166.57,434.38,166.18,438.01,166.21
								c1.52-0.18,2.99-0.42,4.4-0.72c15.24-3.2,24.22-12.89,29.07-20.51c3.55-5.56,4.91-10.01,4.91-10.01
								c-21.95-2.84-35.26,1.84-43.13,7.3c-8.04,5.59-10.37,11.99-10.37,11.99c-0.02-0.23-0.05-0.47-0.08-0.7
								c-3.77-34.67-36.59-39.46-36.59-39.46c-0.1,1.5-0.13,2.93-0.14,4.33c-0.15,28.39,16.87,37.14,16.87,37.14
								c-0.29-0.1-0.59-0.19-0.88-0.29c-40.56-13.37-55.36,6.86-55.36,6.86c0.86,0.72,1.74,1.39,2.64,2.02
								c18.36,12.9,45.2,7.69,51.38,6.25c0.43-0.11,0.86-0.22,1.3-0.32c0,0-0.46,0.13-1.3,0.32c-1.17,0.3-2.28,0.65-3.36,1.03
								c-17.65,6.32-22.78,23.3-22.78,23.3c1.06,0.16,2.1,0.3,3.11,0.42c41.94,5.13,46.04-19.79,46.04-19.79
								c15.48,16.35,36.29,11.09,45.27,7.67c2.79-1.05,4.44-1.93,4.44-1.93c-9.21-9.07-19.26-12.76-27.14-14.15
								C443.12,166.42,440.28,166.23,438.01,166.21z"/>
						</g>
					</g>
					<g>
						<path class="st6" d="M442.74,160.29c-5-1.75-10.19-2.99-15.42-3.73C432.54,157.3,437.74,158.54,442.74,160.29
							c-1.41,0.3-2.88,0.55-4.4,0.72c-3.63-0.03-5.85,0.36-5.85,0.36c2.03-0.02,3.99-0.15,5.85-0.36c2.28,0.02,5.11,0.21,8.3,0.78
							c8.7,3.63,16.59,8.94,22.71,16.09c-8.99,3.41-29.79,8.68-45.27-7.67c0,0-4.11,24.92-46.04,19.79
							c4.62-11.97,15.88-19.94,27.55-24.88c-2.64,0.32-5.27,0.69-7.89,1.15c1.07-0.39,2.19-0.73,3.36-1.03
							c0.84-0.19,1.3-0.32,1.3-0.32c-0.44,0.1-0.87,0.21-1.3,0.32c-6.17,1.44-33.01,6.65-51.38-6.25
							c15.8-12.46,41.99-12.23,59.09-2.27c-1.84-2.62-3.99-4.79-6.37-6.61c0.29,0.1,0.59,0.19,0.88,0.29c0,0-17.02-8.75-16.87-37.14
							c19.45,7.07,36.92,19.2,35.14,40.31c0.5-1.86,0.98-3.51,1.59-5.18c0.02,0.23,0.06,0.46,0.08,0.7c0,0,2.33-6.4,10.37-11.99
							c2.51-1.38,5.22-2.4,8.39-2.77c9.72-0.92,21.09,0.51,29.83,5.48C466.95,147.41,457.98,157.1,442.74,160.29z"/>
						<path class="st7" d="M408.76,156.71c-17.1-9.96-43.29-10.18-59.09,2.27c-0.9-0.63-1.78-1.3-2.64-2.02
							c0,0,14.8-20.23,55.36-6.86C404.77,151.92,406.92,154.09,408.76,156.71z"/>
						<path class="st7" d="M441.98,134.31c-3.17,0.37-5.88,1.39-8.39,2.77c7.86-5.46,21.18-10.14,43.13-7.3
							c0,0-1.36,4.45-4.91,10.01C463.07,134.82,451.7,133.39,441.98,134.31z"/>
						<path class="st7" d="M397.69,166.27c2.61-0.46,5.25-0.83,7.89-1.15c-11.67,4.94-22.93,12.91-27.55,24.88
							c-1.02-0.13-2.05-0.26-3.11-0.42C374.91,189.57,380.04,172.59,397.69,166.27z"/>
						<path class="st7" d="M469.34,177.88c-6.12-7.15-14.01-12.46-22.71-16.09c7.89,1.4,17.94,5.08,27.14,14.15
							C473.78,175.95,472.13,176.83,469.34,177.88z"/>
						<path class="st7" d="M386.41,113.24c0.01-1.4,0.04-2.83,0.14-4.33c0,0,32.82,4.79,36.59,39.46c-0.61,1.67-1.1,3.32-1.59,5.18
							C423.32,132.45,405.86,120.31,386.41,113.24z"/>
					</g>
					<path class="st13" d="M398.1,210.88c0,0,19.03,12.54,63.64-3.42c0,0-18.23,22.83-16.38,32.89
						c1.85,10.06,19.82,32.51,19.82,32.51s-32.1-12.14-59.36,0.78l8.38-15.05l3.98-18.35l-5.39-15.27l-14.14-6.63L398.1,210.88z"/>
				</g>
				<circle class="st18" cx="479.13" cy="231.43" r="3.4"/>
				<circle class="st18" cx="390.61" cy="235.07" r="3.4"/>
				<path class="st16" d="M545.59,227.81c0.18,0.66,1.01,3.72,1.68,6.81C546.79,232.33,546.23,230.06,545.59,227.81z"/>
				<path class="st13" d="M547.96,238.5c-0.15-1.17-0.41-2.53-0.7-3.88C547.52,235.91,547.76,237.2,547.96,238.5
					C547.96,238.5,547.96,238.5,547.96,238.5z"/>
				<path class="st13" d="M545.55,227.67C545.55,227.67,545.55,227.67,545.55,227.67c0.01,0.05,0.02,0.09,0.04,0.14
					C545.56,227.72,545.55,227.67,545.55,227.67z"/>
				<path class="st13" d="M514.01,228.7c-4.2-0.28-6.83-0.6-6.83-0.6s-1.3,16.68-1.08,17.05c0.21,0.37,3.99,4.38,3.99,4.38
					c0.74-0.08,1.47-0.17,2.21-0.27c0.24-1.46,0.44-2.94,0.6-4.44C513.48,239.6,513.88,234.19,514.01,228.7z"/>
				<path class="st14" d="M547.26,234.62c-0.66-3.09-1.49-6.14-1.68-6.81c-0.01-0.05-0.03-0.09-0.04-0.14
					c-11.71,1.86-24.1,1.52-31.53,1.02c-0.13,5.49-0.53,10.91-1.11,16.12c-0.16,1.5-0.36,2.98-0.6,4.44
					c18.79-2.5,35.62-10.73,35.66-10.76C547.76,237.2,547.52,235.91,547.26,234.62z"/>
				<path class="st13" d="M514.05,223.43c-8.12-2.75-12.96-5.74-12.96-5.74l1.48,20.74l4.99,18.37c1.08-0.11,2.13-0.24,3.17-0.37
					c1.01-3.72,1.74-7.58,2.17-11.6C513.67,237.94,514.12,230.72,514.05,223.43z"/>
				<path class="st13" d="M548.73,244.92c-0.25-8.2-3.14-17.11-3.14-17.11C547.2,233.4,548.26,239.14,548.73,244.92
					C548.73,244.92,548.73,244.92,548.73,244.92z"/>
				<path class="st14" d="M546.9,227.89L546.9,227.89c-13.15,0.71-24.59-1.76-32.8-4.46c0.09,7.29-0.36,14.51-1.14,21.39
					c-0.43,4.02-1.19,7.88-2.23,11.6c24.28-2.94,39.45-11.39,39.48-11.41C549.72,239.23,548.6,233.49,546.9,227.89z"/>
				<path class="st13" d="M357.1,244.9l0.5-1.31l1.12-6.76l1.25-4.37l2.09-5.76l-1.11-3.26l0.64-3.86c0,0-6.13,2.98-16.16,5.33
					c-9.75,2.29-23.19,4-38.29,1.8l0,0c-2.53,6.35-4.42,12.93-5.59,19.61c0,0,21.99,16.39,58.96,20.42l0.63-9.87L357.1,244.9z"/>
			</g>
		</g>
	</g>
	<g>
		<path class="st15" d="M148.57,379.53c2.48-0.78,4.97-0.95,7.49-0.5c2.51,0.45,4.78,1.36,6.81,2.73c2.03,1.37,3.82,3.05,5.38,5.06
			c1.56,2,2.61,4.09,3.14,6.26c0.74,2.29,0.85,4.74,0.33,7.34c-0.52,2.61-1.42,4.94-2.69,7.02c-1.4,2.29-3.07,4.02-5,5.2
			c-1.94,1.18-4.12,2.25-6.56,3.2c-5.04,1.94-10.07,3.75-15.09,5.42c-5.02,1.67-10.18,3.33-15.47,4.98l0.06,0.25
			c5.87,26.14,11.74,52.07,17.59,77.78c5.86,25.71,26.9,113.59,32.78,139.74c1.11,5.25,0.36,10.01-2.24,14.3
			c-2.6,4.28-6.48,7.15-11.65,8.59c-2.31,0.74-4.72,0.89-7.24,0.44c-2.51-0.45-4.82-1.31-6.91-2.58c-2.09-1.27-3.88-2.92-5.36-4.96
			c-1.48-2.04-2.53-4.32-3.14-6.84c-5.92-25.61-26.95-113.04-32.72-138.42c-5.78-25.37-11.48-50.99-17.1-76.85
			c-6.3,1.9-12.49,3.69-18.58,5.35c-6.09,1.67-12.22,3.35-18.39,5.04c-5.17,1.45-9.92,0.75-14.26-2.07
			c-4.34-2.82-7.19-6.64-8.54-11.43c-0.78-2.46-0.94-4.94-0.49-7.44c0.46-2.5,1.36-4.79,2.72-6.89c1.35-2.1,3.04-3.93,5.06-5.48
			c2.02-1.56,4.21-2.62,6.56-3.2c17.55-4.66,34.89-9.62,52.03-14.89C114.23,391.41,131.39,385.7,148.57,379.53z"/>
		<path class="st15" d="M643.53,396.68c17.13,5.27,34.47,10.23,52.03,14.89c2.35,0.58,4.54,1.65,6.56,3.2
			c2.02,1.55,3.71,3.38,5.06,5.48c1.35,2.1,2.26,4.4,2.72,6.89s0.29,4.98-0.49,7.44c-1.35,4.8-4.2,8.61-8.54,11.43
			c-4.34,2.83-9.09,3.52-14.26,2.07c-6.17-1.69-12.3-3.37-18.39-5.04c-6.09-1.67-12.28-3.45-18.58-5.35
			c-5.62,25.86-11.32,51.48-17.1,76.85c-5.77,25.38-15.87,72.97-21.79,98.57c-0.62,2.52-1.66,4.8-3.14,6.84
			c-1.48,2.04-3.26,3.69-5.36,4.96c-2.09,1.27-4.39,2.13-6.91,2.58c-2.51,0.45-4.92,0.3-7.24-0.44c-5.16-1.44-9.04-4.31-11.65-8.59
			c-2.6-4.29-3.34-9.05-2.24-14.3c5.87-26.15,16-74.18,21.85-99.89c5.86-25.71,11.72-51.64,17.59-77.78l0.06-0.25
			c-5.29-1.65-10.45-3.31-15.47-4.98c-5.02-1.67-10.05-3.48-15.09-5.42c-2.44-0.95-4.62-2.02-6.56-3.2c-1.94-1.18-3.6-2.91-5-5.2
			c-1.27-2.08-2.16-4.41-2.69-7.02c-0.52-2.6-0.41-5.05,0.33-7.34c0.53-2.17,1.58-4.25,3.14-6.26c1.56-2,3.35-3.69,5.38-5.06
			c2.03-1.37,4.3-2.28,6.81-2.73c2.51-0.45,5.01-0.28,7.49,0.5C609.24,385.7,626.4,391.41,643.53,396.68z"/>
		<path class="st15" d="M163.23,524.81c2.83-8.65,7.2-16.98,13.08-24.99c5.88-8.01,12.76-14.5,20.63-19.46
			c7.87-4.96,16.49-7.76,25.84-8.4c9.36-0.64,18.86,2.02,28.5,7.98c6.66,4.11,12.41,9.22,17.23,15.32
			c4.82,6.1,8.37,12.76,10.64,19.99c1.84,5.96,2.77,12.06,2.77,18.29c0,6.24-0.82,12.37-2.45,18.4c-1.63,6.03-4.01,11.77-7.13,17.23
			c-3.12,5.46-6.88,10.32-11.27,14.57c-4.97,4.68-10.46,8.54-16.49,11.59c-6.03,3.05-12.3,5.11-18.82,6.17
			c-6.52,1.06-13.08,1.06-19.68,0c-6.59-1.06-12.94-3.3-19.04-6.7c-5.96-3.4-10.99-7.8-15.1-13.19c-4.11-5.39-7.16-11.2-9.15-17.44
			c-1.99-6.24-2.98-12.76-2.98-19.57C159.83,537.78,160.96,531.19,163.23,524.81z M240.45,560.97c2.84-2.83,4.96-6.06,6.38-9.68
			c1.42-3.62,2.48-7.62,3.19-12.02c0.85-5.67,0.32-11.2-1.6-16.59c-1.91-5.39-4.75-9.82-8.51-13.29c-3.76-3.47-8.08-5.49-12.98-6.06
			c-4.89-0.56-9.89,1.06-15,4.89c-9.22,6.53-15.53,15.1-18.93,25.74c-1.84,5.39-2.34,10.39-1.49,15c0.85,4.61,2.69,8.69,5.53,12.23
			c2.55,3.4,5.67,5.92,9.36,7.55c3.69,1.63,7.55,2.41,11.59,2.34c4.04-0.07,8.05-0.96,12.02-2.66
			C233.99,566.71,237.47,564.23,240.45,560.97z"/>
		<path class="st15" d="M435.08,462.06c2.84,2.13,4.61,4.57,5.32,7.34c0.71,2.77,0.85,5.78,0.43,9.04
			c-1.56,9.36-2.94,18.69-4.15,27.97c-1.21,9.29-2.23,18.9-3.08,28.82c-0.99,9.93-1.7,19.85-2.13,29.78
			c-0.43,9.93-0.71,19.85-0.85,29.78c-0.14,4.54-1.7,8.19-4.68,10.95c-2.98,2.77-6.59,4.29-10.85,4.57c-2.13,0-4.11-0.42-5.96-1.28
			c-1.84-0.85-3.48-1.98-4.89-3.4c-1.42-1.42-2.55-3.08-3.4-5c-0.85-1.91-1.28-3.86-1.28-5.85c0.28-13.19,0.81-26.27,1.6-39.25
			c0.78-12.97,1.95-26.06,3.51-39.24c-3.55,4.25-7.06,8.47-10.53,12.66c-3.48,4.18-7.13,8.19-10.95,12.02
			c-2.84,2.84-5.85,5.64-9.04,8.4c-3.19,2.76-6.77,4.57-10.74,5.42c-2.98,0.71-5.74,0.85-8.3,0.42c-2.55-0.42-4.89-1.28-7.02-2.55
			c-2.13-1.28-4.11-2.91-5.96-4.89c-1.84-1.98-3.48-4.18-4.89-6.59c-3.83-6.52-7.66-13.05-11.49-19.57
			c-3.83-6.52-7.66-13.05-11.49-19.57c0.43,10.21,1.35,20.21,2.77,29.99c1.42,9.79,2.98,19.78,4.68,29.99
			c0.99,5.96,2.13,11.84,3.4,17.65c1.28,5.82,2.69,11.63,4.25,17.44c0.99,4.11,0.43,7.98-1.7,11.59s-5.18,6.06-9.15,7.34
			c-1.99,0.71-4.01,0.92-6.06,0.64c-2.06-0.29-3.93-0.96-5.64-2.02s-3.23-2.38-4.57-3.94c-1.35-1.56-2.23-3.33-2.66-5.32
			c-3.69-14.32-6.77-28.68-9.25-43.07c-2.48-14.39-4.36-28.89-5.64-43.5c-0.71-6.38-1.24-12.66-1.6-18.82
			c-0.36-6.17-0.67-12.44-0.96-18.83c0-3.4-0.11-7.23-0.32-11.49c-0.21-4.25,0-8.37,0.64-12.34c0.64-3.97,1.98-7.51,4.04-10.63
			c2.05-3.12,5.35-5.17,9.89-6.17c2.98-0.57,5.64-0.53,7.98,0.11c2.34,0.64,4.5,1.67,6.49,3.08c1.98,1.42,3.83,3.08,5.53,5
			c1.7,1.91,3.33,3.87,4.89,5.85c1.84,2.41,3.51,4.82,5,7.23c1.49,2.41,2.94,4.82,4.36,7.23c3.26,5.53,6.56,11.13,9.89,16.81
			c3.33,5.67,6.63,11.27,9.89,16.8c1.7,2.7,3.33,5.42,4.89,8.19c1.56,2.77,3.12,5.5,4.68,8.19c0.28,0.14,0.43,0.25,0.43,0.32
			c0,0.07,0.07,0.18,0.21,0.32l2.77-2.77c1.7-1.84,3.4-3.72,5.11-5.64c1.7-1.91,3.33-3.79,4.89-5.64c3.4-3.97,6.81-8.01,10.21-12.12
			c3.4-4.11,6.88-8.08,10.42-11.91c3.54-3.83,7.3-7.52,11.27-11.06c3.97-3.54,8.22-6.73,12.76-9.57c2.55-1.7,5.42-2.41,8.61-2.13
			C429.87,459.15,432.67,460.22,435.08,462.06z"/>
		<path class="st15" d="M556.33,537.99c1.98,12.2,3.79,24.36,5.42,36.48c1.63,12.12,3.15,24.36,4.57,36.69
			c0.14,2.13-0.21,4.11-1.06,5.96c-0.85,1.84-2.02,3.47-3.51,4.89c-1.49,1.42-3.19,2.52-5.11,3.3c-1.91,0.78-3.8,1.24-5.64,1.38
			c-1.99,0-4.01-0.46-6.06-1.38c-2.06-0.92-3.72-1.95-5-3.08c-1.56-1.56-2.66-3.26-3.3-5.11c-0.64-1.84-1.1-3.83-1.38-5.96
			c-0.57-5.39-1.03-9.75-1.38-13.08c-0.36-3.33-0.68-5.96-0.96-7.87c-0.29-1.91-0.5-3.37-0.64-4.36c-0.14-0.99-0.29-1.91-0.42-2.77
			v-0.42c0-0.28-0.04-0.57-0.11-0.85c-0.07-0.28-0.11-0.57-0.11-0.85c-4.54,0.14-9.61,0.29-15.21,0.42
			c-5.6,0.14-11.24,0.32-16.91,0.53c-5.67,0.21-11.2,0.39-16.59,0.53c-5.39,0.14-10.21,0.29-14.46,0.43
			c-1.14,4.82-2.2,9.61-3.19,14.36c-0.99,4.75-1.99,9.61-2.98,14.57c-0.29,2.13-1.1,3.97-2.45,5.53c-1.35,1.56-2.91,2.8-4.68,3.72
			c-1.77,0.92-3.72,1.52-5.85,1.81c-2.13,0.28-4.11,0.21-5.96-0.21c-4.25-1.14-7.31-3.58-9.15-7.34c-1.84-3.76-2.41-7.62-1.7-11.59
			c2.27-12.76,5.03-25.28,8.3-37.54c3.26-12.26,7.02-24.5,11.27-36.69c1.98-5.81,4.15-11.52,6.49-17.12
			c2.34-5.6,4.71-11.24,7.13-16.91c2.13-4.96,4.32-9.96,6.59-15c2.27-5.03,4.89-9.89,7.87-14.57c1.7-2.55,3.69-5.24,5.96-8.08
			c2.27-2.84,4.71-5.35,7.34-7.55c2.62-2.2,5.49-3.97,8.62-5.32c3.12-1.35,6.52-1.88,10.21-1.59c6.66,0.71,12.16,3.16,16.48,7.34
			c4.32,4.18,7.87,9.22,10.63,15.1c2.77,5.89,4.93,12.12,6.49,18.72c1.56,6.59,2.84,12.59,3.83,17.97
			c1.13,5.96,2.27,11.88,3.4,17.76C554.27,526.12,555.33,532.04,556.33,537.99z M477.2,551.61c11.63-0.42,20.74-0.78,27.33-1.06
			c6.59-0.28,11.49-0.46,14.68-0.53c3.19-0.07,5.21-0.07,6.06,0c0.85,0.07,1.49,0.18,1.91,0.32c-0.14-0.85-0.32-1.84-0.53-2.98
			c-0.21-1.13-0.57-3.12-1.06-5.96c-0.5-2.83-1.21-6.88-2.13-12.12c-0.92-5.24-2.23-12.34-3.94-21.27
			c-1.56-5.67-2.77-10.21-3.62-13.61s-1.56-6.1-2.13-8.08c-0.85-2.98-1.53-5.21-2.02-6.7c-0.5-1.49-1.06-2.23-1.7-2.23
			c-0.64,0-1.49,0.78-2.55,2.34c-1.06,1.56-2.52,3.9-4.36,7.02c-2.55,4.4-5.11,9.43-7.66,15.1c-2.55,5.67-4.93,11.42-7.13,17.23
			c-2.2,5.82-4.25,11.52-6.17,17.12c-1.91,5.6-3.51,10.53-4.79,14.78c0,0.14-0.04,0.25-0.11,0.32
			C477.23,551.36,477.2,551.47,477.2,551.61z"/>
		<path class="st15" d="M705.1,455.81c10.45-3.6,20.51-5.14,30.19-4.64c9.67,0.51,18.59,2.59,26.74,6.23
			c8.15,3.65,15.46,8.67,21.93,15.08c6.47,6.41,11.75,13.76,15.85,22.06c4.09,8.3,6.94,17.32,8.53,27.06
			c1.59,9.74,1.57,19.8-0.05,30.19c-1.45,9.09-4.32,17.66-8.61,25.71c-4.3,8.06-9.59,15.42-15.88,22.09
			c-6.29,6.67-13.36,12.46-21.2,17.35c-7.84,4.9-16.06,8.55-24.67,10.96c-9.32,2.55-18.92,3.63-28.79,3.24
			c-9.88-0.39-19.39-2.42-28.55-6.08c-19.93-8.27-33.9-22.29-41.9-42.06c-3.37-8.18-5.21-16.68-5.53-25.48
			c-0.32-8.8,0.53-17.41,2.56-25.83c2.03-8.42,5.12-16.55,9.27-24.39c4.15-7.84,9.04-14.97,14.68-21.4
			c6.12-6.97,13.04-13,20.77-18.11C688.14,462.68,696.37,458.69,705.1,455.81z M753.92,493.91c-6.6-5-13.43-7.74-20.49-8.21
			c-7.07-0.47-13.89,0.68-20.48,3.46c-6.59,2.78-12.7,6.92-18.34,12.42c-5.64,5.5-10.42,11.6-14.35,18.32
			c-3.94,6.72-6.78,13.77-8.52,21.17c-1.75,7.39-1.99,14.39-0.74,20.99c1.7,8.07,5.2,15.16,10.49,21.24
			c5.29,6.09,12.85,10.04,22.68,11.85c7.93,1.3,15.71,0.87,23.32-1.3c7.61-2.17,15.07-5.82,22.38-10.94
			c5.95-4.48,11.05-10.03,15.3-16.67c4.25-6.63,7-13.84,8.27-21.62c0.56-4.58,0.61-9.27,0.13-14.05c-0.48-4.78-1.51-9.42-3.09-13.91
			c-1.58-4.49-3.74-8.67-6.5-12.55C761.21,500.24,757.86,496.84,753.92,493.91z"/>
	</g>
	<g>
		<g>
			<path class="st6" d="M222.47,670.37c0.73,0.07,1.29,0.36,1.65,0.86c0.37,0.5,0.54,1.05,0.53,1.64c-0.01,0.59-0.22,1.15-0.62,1.67
				c-0.4,0.53-1.01,0.85-1.82,0.97c-0.47,0.07-0.94,0.11-1.43,0.11c-0.49,0-0.94,0-1.36,0c-1.13,0-2.22-0.25-3.27-0.73
				c-0.51-0.24-0.94-0.56-1.29-0.96c-0.34-0.39-0.63-0.83-0.86-1.3c-0.23-0.48-0.41-0.98-0.53-1.51c-0.12-0.53-0.2-1.05-0.22-1.56
				c-0.17-2.82-0.07-5.67,0.29-8.56c0.37-2.89,0.94-5.78,1.73-8.67c0.2-0.71,0.61-1.24,1.25-1.6c0.64-0.35,1.31-0.45,2.02-0.28
				c0.34,0.07,0.65,0.22,0.94,0.44c0.28,0.22,0.5,0.48,0.66,0.79c0.16,0.31,0.26,0.64,0.31,0.99c0.05,0.36,0.02,0.7-0.07,1.05
				c-0.27,1.27-0.52,2.46-0.75,3.56c-0.23,1.1-0.44,2.2-0.61,3.29c-0.17,1.09-0.31,2.21-0.42,3.36c-0.11,1.15-0.18,2.42-0.2,3.82
				c-0.02,0.71,0.02,1.31,0.15,1.8c0.12,0.49,0.39,0.73,0.81,0.73c0.42,0,0.93,0,1.54,0C221.51,670.3,222.03,670.32,222.47,670.37z"
				/>
			<path class="st6" d="M228.79,645.94c0.2,0.17,0.32,0.36,0.37,0.55c0.05,0.2,0.1,0.42,0.15,0.66c0.12,1.03,0.16,2.08,0.11,3.16
				c0,0.49-0.17,0.89-0.5,1.19c-0.33,0.31-0.73,0.47-1.19,0.5c-0.44,0.05-0.83-0.1-1.18-0.46c-0.34-0.35-0.51-0.77-0.51-1.23
				c0.05-1.08,0.01-2.13-0.11-3.16c-0.05-0.49,0.12-0.89,0.5-1.21c0.38-0.32,0.78-0.48,1.19-0.48c0.2-0.02,0.4,0.01,0.62,0.11
				C228.46,645.67,228.65,645.8,228.79,645.94z"/>
			<path class="st6" d="M248.66,647.71c1.67,3.46,3.2,6.96,4.58,10.51c1.39,3.55,2.62,7.19,3.7,10.93c0.25,0.9,0.14,1.73-0.32,2.5
				c-0.46,0.77-1.14,1.31-2.04,1.62c-0.43,0.15-0.87,0.19-1.32,0.12c-0.45-0.08-0.86-0.23-1.23-0.46c-0.37-0.23-0.69-0.52-0.97-0.86
				c-0.28-0.34-0.48-0.72-0.6-1.16c-0.19-0.65-0.38-1.29-0.58-1.92c-0.2-0.63-0.39-1.27-0.58-1.92c-0.15,0.06-0.31,0.13-0.46,0.21
				c-0.15,0.08-0.31,0.15-0.46,0.21c-1.42,0.4-2.83,0.8-4.24,1.18c-1.41,0.39-2.8,0.8-4.19,1.23c-0.06,0.4-0.13,0.79-0.21,1.18
				c-0.08,0.39-0.15,0.78-0.21,1.18c-0.09,0.46-0.28,0.86-0.56,1.2c-0.28,0.34-0.62,0.61-1.02,0.81c-0.4,0.2-0.83,0.33-1.3,0.39
				c-0.46,0.06-0.9,0.05-1.3-0.05c-0.93-0.25-1.58-0.78-1.97-1.6c-0.39-0.82-0.5-1.66-0.35-2.52c0.37-2.22,0.76-4.41,1.18-6.58
				c0.42-2.16,0.84-4.32,1.27-6.48c0.37-1.91,0.75-3.82,1.13-5.72c0.39-1.9,0.96-3.74,1.74-5.53c0.25-0.62,0.53-1.21,0.86-1.78
				c0.32-0.57,0.79-1.03,1.41-1.37c1.3-0.77,2.65-0.86,4.07-0.28c0.52,0.22,0.98,0.51,1.37,0.88c0.39,0.37,0.73,0.77,1.04,1.2
				c0.31,0.43,0.58,0.9,0.81,1.39C248.18,646.72,248.41,647.21,248.66,647.71z M246.58,660.95c0.19-0.06,0.35-0.09,0.51-0.09
				c-0.53-1.42-1.09-2.82-1.69-4.21c-0.6-1.39-1.26-2.81-1.97-4.26c-0.4,1.51-0.74,3.04-1.02,4.58c-0.28,1.54-0.57,3.1-0.88,4.68
				c-0.03,0.15-0.05,0.29-0.07,0.42c-0.02,0.12-0.04,0.25-0.07,0.37c0.86-0.25,1.73-0.49,2.59-0.74
				C244.85,661.44,245.71,661.2,246.58,660.95z"/>
			<path class="st6" d="M279.18,653.35c-0.43,1.39-1.13,2.75-2.08,4.07c-0.96,1.33-2.09,2.52-3.4,3.57
				c-1.31,1.05-2.73,1.9-4.26,2.55c-1.53,0.65-3.08,1-4.65,1.06c0,1.48,0.01,2.96,0.02,4.45c0.01,1.48,0.04,2.96,0.07,4.45
				c0,0.96-0.33,1.74-1,2.36c-0.66,0.62-1.44,0.96-2.34,1.02c-0.46,0.03-0.9-0.05-1.32-0.23c-0.42-0.19-0.77-0.44-1.06-0.76
				c-0.29-0.32-0.53-0.69-0.72-1.11c-0.19-0.42-0.28-0.84-0.28-1.27c-0.06-4.35-0.09-8.68-0.07-12.99
				c0.02-4.31,0.05-8.64,0.12-12.99c-0.31-0.99-0.37-1.85-0.19-2.59c0.19-0.74,0.52-1.37,1.02-1.88c0.49-0.51,1.12-0.93,1.88-1.25
				c0.76-0.32,1.56-0.59,2.41-0.79c0.85-0.2,1.69-0.34,2.52-0.42c0.83-0.08,1.6-0.13,2.32-0.16c1.67,0,3.31,0.26,4.93,0.79
				c1.62,0.53,3,1.42,4.14,2.69c1.17,1.3,1.92,2.78,2.25,4.45C279.8,650.02,279.7,651.69,279.18,653.35z M264.78,657.89
				c0.77-0.06,1.58-0.29,2.43-0.67c0.85-0.39,1.64-0.87,2.38-1.46c0.74-0.59,1.39-1.24,1.94-1.97c0.56-0.72,0.96-1.49,1.2-2.29
				c0.25-0.89,0.2-1.75-0.14-2.57c-0.34-0.82-1.05-1.37-2.13-1.64c-0.9-0.25-1.85-0.32-2.87-0.23s-1.9,0.2-2.64,0.32l-0.05,0.05
				c-0.03,1.76-0.05,3.5-0.07,5.23C264.83,654.39,264.81,656.13,264.78,657.89z"/>
			<path class="st6" d="M298.41,635.97c2.59,1.02,4.76,2.4,6.52,4.14c1.75,1.74,2.87,4.11,3.35,7.1c0.2,1.6,0.12,3.18-0.26,4.73
				c-0.38,1.55-0.97,3.03-1.79,4.45c-0.82,1.41-1.81,2.71-2.99,3.88c-1.18,1.18-2.48,2.19-3.91,3.04c-3.03,1.81-6.37,2.9-10.02,3.27
				c0.1,1.3,0.21,2.57,0.33,3.83c0.12,1.26,0.25,2.52,0.38,3.78c0.07,0.51,0,0.99-0.2,1.43c-0.2,0.44-0.49,0.83-0.87,1.18
				c-0.38,0.34-0.8,0.6-1.28,0.79c-0.48,0.19-0.94,0.28-1.38,0.28c-0.48,0.07-0.95-0.01-1.41-0.23c-0.46-0.22-0.86-0.5-1.2-0.84
				c-0.38-0.38-0.63-0.78-0.77-1.2c-0.14-0.43-0.24-0.89-0.31-1.41c-0.65-5.89-1.1-11.76-1.35-17.61
				c-0.26-5.84-0.33-11.73-0.23-17.66c0-1.26,0.35-2.25,1.05-2.96c0.7-0.72,1.58-1.22,2.66-1.51c1.07-0.29,2.28-0.42,3.63-0.38
				c1.35,0.03,2.66,0.15,3.93,0.36c1.28,0.2,2.46,0.45,3.55,0.74C296.95,635.47,297.8,635.74,298.41,635.97z M289.01,659.23
				c1.36-0.2,2.71-0.55,4.04-1.05c1.33-0.49,2.56-1.17,3.68-2.02c1.12-0.82,2.04-1.85,2.76-3.09c0.72-1.24,1.12-2.5,1.23-3.78
				c0.1-1.28-0.18-2.49-0.84-3.63c-0.66-1.14-1.81-2.02-3.45-2.63c-0.65-0.24-1.34-0.45-2.07-0.64c-0.73-0.19-1.46-0.34-2.17-0.46
				c-0.72-0.12-1.4-0.21-2.04-0.28c-0.65-0.07-1.23-0.1-1.74-0.1c-0.03,2.96-0.01,5.91,0.08,8.84c0.08,2.93,0.21,5.88,0.38,8.84
				h0.05H289.01z"/>
			<path class="st6" d="M319.41,669.01c0.93,0.09,1.62,0.46,2.08,1.09c0.46,0.63,0.69,1.32,0.67,2.06
				c-0.02,0.74-0.28,1.44-0.79,2.11c-0.51,0.66-1.27,1.07-2.29,1.23c-0.59,0.09-1.19,0.14-1.81,0.14c-0.62,0-1.19,0-1.71,0
				c-1.42,0-2.79-0.31-4.12-0.93c-0.65-0.31-1.19-0.71-1.62-1.2c-0.43-0.49-0.79-1.04-1.09-1.64c-0.29-0.6-0.52-1.23-0.67-1.9
				c-0.15-0.66-0.25-1.32-0.28-1.97c-0.22-3.55-0.09-7.15,0.37-10.79c0.46-3.64,1.19-7.28,2.18-10.93c0.25-0.9,0.77-1.57,1.57-2.01
				c0.8-0.45,1.65-0.56,2.55-0.35c0.43,0.09,0.83,0.28,1.18,0.56c0.35,0.28,0.63,0.61,0.83,1c0.2,0.39,0.33,0.8,0.39,1.25
				c0.06,0.45,0.03,0.89-0.09,1.32c-0.34,1.61-0.66,3.1-0.95,4.49c-0.29,1.39-0.55,2.77-0.76,4.14c-0.22,1.37-0.39,2.79-0.53,4.24
				c-0.14,1.45-0.22,3.06-0.25,4.82c-0.03,0.9,0.03,1.65,0.19,2.27c0.15,0.62,0.49,0.93,1.02,0.93c0.52,0,1.17,0,1.94,0
				C318.19,668.91,318.86,668.94,319.41,669.01z"/>
			<path class="st6" d="M330.06,669.24c-0.03,0.96-0.36,1.74-1,2.36c-0.63,0.62-1.41,0.96-2.34,1.02c-0.46,0.03-0.9-0.05-1.3-0.23
				c-0.4-0.19-0.76-0.44-1.09-0.76c-0.32-0.32-0.57-0.69-0.74-1.11c-0.17-0.42-0.25-0.84-0.25-1.27c0.09-2.75,0.19-5.49,0.3-8.22
				c0.11-2.73,0.19-5.49,0.25-8.27c0.03-0.96,0.36-1.74,1-2.36c0.63-0.62,1.41-0.94,2.34-0.97c0.43-0.03,0.86,0.05,1.27,0.23
				c0.42,0.19,0.78,0.43,1.09,0.74c0.31,0.31,0.55,0.67,0.72,1.09c0.17,0.42,0.25,0.84,0.25,1.27c-0.09,2.78-0.18,5.53-0.25,8.27
				C330.24,663.75,330.16,666.49,330.06,669.24z M327.47,646.32c-0.93,0-1.7-0.33-2.32-1c-0.62-0.66-0.96-1.44-1.02-2.34
				c0-0.46,0.09-0.9,0.28-1.32c0.19-0.42,0.43-0.77,0.74-1.07c0.31-0.29,0.66-0.53,1.07-0.72c0.4-0.19,0.82-0.28,1.25-0.28
				c0.96,0,1.74,0.33,2.36,1c0.62,0.66,0.94,1.46,0.97,2.38c0.03,0.46-0.05,0.9-0.23,1.3c-0.19,0.4-0.43,0.75-0.74,1.04
				c-0.31,0.29-0.67,0.53-1.09,0.72C328.33,646.22,327.9,646.32,327.47,646.32z"/>
			<path class="st6" d="M358.1,644.14c0.62,0.03,1.17,0.19,1.65,0.46c0.48,0.28,0.89,0.63,1.24,1.07c0.34,0.43,0.61,0.92,0.79,1.46
				c0.19,0.54,0.3,1.1,0.33,1.69c0.03,0.71,0.03,1.44,0,2.18c-0.03,0.74-0.05,1.47-0.05,2.18c-0.03,2.99-0.05,5.99-0.07,8.98
				c-0.01,2.99-0.04,6-0.07,9.03c0,0.96-0.33,1.74-1,2.36c-0.67,0.62-1.45,0.96-2.36,1.02c-0.47,0-0.9-0.09-1.31-0.28
				c-0.4-0.19-0.75-0.43-1.05-0.74c-0.29-0.31-0.54-0.67-0.72-1.09c-0.19-0.42-0.28-0.84-0.28-1.27c0.03-2.01,0.05-4,0.05-5.97
				c0-1.98,0.02-3.98,0.05-6.02c0-0.99,0.01-1.98,0.02-2.99c0.02-1,0.02-2.01,0.02-3.03l0-0.09c-0.43,0.31-0.84,0.6-1.23,0.88
				c-0.39,0.28-0.78,0.56-1.18,0.83c-0.37,0.28-0.78,0.43-1.23,0.46c-0.45,0.03-0.88-0.01-1.3-0.14c-0.42-0.12-0.81-0.32-1.18-0.58
				c-0.37-0.26-0.66-0.56-0.88-0.9c-0.53-0.83-0.63-1.68-0.32-2.55c0.31-0.86,0.82-1.56,1.53-2.08c0.62-0.43,1.25-0.87,1.9-1.32
				c0.65-0.45,1.28-0.89,1.9-1.32c0.71-0.52,1.43-1.03,2.16-1.53C356.24,644.34,357.1,644.11,358.1,644.14z"/>
			<path class="st6" d="M365.44,654.33c0.77-1.6,1.9-2.98,3.38-4.12c1.48-1.14,3.12-2.01,4.91-2.62c1.79-0.6,3.64-0.93,5.56-0.97
				c1.91-0.05,3.72,0.23,5.42,0.83c1.7,0.6,3.18,1.54,4.45,2.8c1.27,1.27,2.13,2.9,2.59,4.91c0.34,1.51,0.4,2.99,0.19,4.42
				c-0.22,1.44-0.65,2.81-1.3,4.12c-0.65,1.31-1.47,2.53-2.45,3.66c-0.99,1.13-2.08,2.12-3.29,2.99c-1.2,0.86-2.51,1.54-3.91,2.04
				c-1.41,0.49-2.83,0.82-4.28,0.97c-1.61,0.15-3.15-0.02-4.63-0.53c-1.48-0.51-2.81-1.29-3.98-2.34c-1.11-1.02-1.99-2.18-2.64-3.5
				c-0.65-1.31-1.08-2.69-1.3-4.12c-0.22-1.44-0.22-2.89,0-4.35C364.36,657.05,364.79,655.65,365.44,654.33z M381.79,664.33
				c0.71-0.56,1.38-1.23,2.01-2.04c0.63-0.8,1.07-1.67,1.32-2.59c0.34-1.42,0.32-2.6-0.07-3.54c-0.39-0.94-1-1.65-1.85-2.13
				c-0.85-0.48-1.86-0.74-3.03-0.79c-1.17-0.05-2.36,0.09-3.57,0.39c-0.9,0.25-1.72,0.64-2.48,1.18c-0.76,0.54-1.4,1.21-1.92,2.01
				c-0.56,0.71-0.96,1.47-1.2,2.27c-0.25,0.8-0.35,1.6-0.3,2.39c0.05,0.79,0.24,1.53,0.58,2.22c0.34,0.69,0.82,1.29,1.44,1.78
				c0.68,0.53,1.41,0.86,2.2,1c0.79,0.14,1.58,0.14,2.38,0c0.8-0.14,1.59-0.4,2.36-0.79C380.43,665.31,381.14,664.85,381.79,664.33z
				"/>
			<path class="st6" d="M396.15,672.89c-1.64-1.05-2.98-2.46-4.02-4.22c-1.04-1.76-1.77-3.65-2.18-5.67
				c-0.41-2.02-0.52-4.07-0.31-6.15c0.21-2.08,0.75-4,1.63-5.76c0.88-1.76,2.09-3.24,3.63-4.44c1.54-1.2,3.43-1.92,5.67-2.16
				c1.69-0.17,3.29-0.04,4.82,0.39c1.53,0.43,2.96,1.08,4.29,1.96c1.34,0.88,2.55,1.93,3.64,3.15c1.09,1.22,2.02,2.54,2.8,3.96
				c0.78,1.42,1.34,2.92,1.69,4.51c0.35,1.59,0.51,3.18,0.48,4.77c-0.05,1.76-0.45,3.41-1.2,4.95c-0.75,1.54-1.77,2.87-3.07,4.01
				c-1.25,1.07-2.63,1.87-4.14,2.39c-1.51,0.53-3.06,0.81-4.64,0.86c-1.58,0.04-3.16-0.15-4.72-0.58
				C398.96,674.42,397.5,673.77,396.15,672.89z M409.17,656.5c-0.51-0.84-1.15-1.66-1.94-2.46c-0.79-0.79-1.66-1.39-2.63-1.78
				c-1.49-0.56-2.78-0.69-3.85-0.4c-1.07,0.29-1.92,0.87-2.56,1.72c-0.63,0.86-1.05,1.92-1.26,3.18c-0.21,1.27-0.22,2.57-0.05,3.92
				c0.15,1,0.47,1.95,0.95,2.84c0.48,0.89,1.13,1.68,1.93,2.35c0.7,0.7,1.46,1.23,2.3,1.61c0.84,0.38,1.69,0.59,2.55,0.65
				c0.86,0.05,1.69-0.06,2.49-0.33c0.8-0.27,1.51-0.71,2.12-1.32c0.66-0.66,1.12-1.42,1.37-2.25c0.26-0.83,0.36-1.7,0.32-2.59
				c-0.04-0.89-0.22-1.78-0.54-2.67C410.05,658.11,409.65,657.28,409.17,656.5z"/>
			<path class="st6" d="M485.42,648.32c-0.43,1.69-1.13,3.34-2.08,4.95c-0.96,1.61-2.09,3.05-3.4,4.33
				c-1.31,1.27-2.73,2.31-4.26,3.09c-1.53,0.79-3.08,1.22-4.65,1.29c0,1.8,0.01,3.6,0.02,5.4s0.04,3.6,0.07,5.4
				c0,1.16-0.33,2.12-1,2.87c-0.66,0.75-1.44,1.16-2.34,1.24c-0.46,0.04-0.9-0.06-1.32-0.28c-0.42-0.22-0.77-0.53-1.07-0.93
				s-0.53-0.84-0.72-1.35c-0.19-0.51-0.28-1.02-0.28-1.55c-0.06-5.28-0.08-10.54-0.07-15.77c0.01-5.23,0.05-10.48,0.12-15.77
				c-0.31-1.2-0.37-2.25-0.19-3.15c0.19-0.9,0.52-1.66,1.02-2.28c0.49-0.62,1.12-1.12,1.88-1.52c0.76-0.39,1.56-0.71,2.41-0.96
				c0.85-0.24,1.69-0.41,2.52-0.51c0.83-0.09,1.61-0.16,2.32-0.2c1.67,0,3.31,0.32,4.93,0.96c1.62,0.64,3,1.72,4.14,3.26
				c1.17,1.57,1.92,3.37,2.25,5.4C486.04,644.27,485.94,646.29,485.42,648.32z M471.02,653.83c0.77-0.07,1.58-0.35,2.43-0.82
				c0.85-0.47,1.64-1.06,2.38-1.77c0.74-0.71,1.39-1.51,1.95-2.39c0.56-0.88,0.96-1.81,1.2-2.78c0.25-1.09,0.2-2.13-0.14-3.12
				c-0.34-0.99-1.05-1.66-2.13-2c-0.9-0.3-1.85-0.39-2.87-0.28c-1.02,0.11-1.9,0.24-2.64,0.39l-0.05,0.06
				c-0.03,2.14-0.05,4.25-0.07,6.35C471.07,649.57,471.05,651.69,471.02,653.83z"/>
			<path class="st6" d="M494.58,668.63c0,0.37,0.01,0.75,0.02,1.13c0.02,0.39,0.02,0.78,0.02,1.18c0.03,0.96-0.29,1.74-0.97,2.36
				c-0.68,0.62-1.47,0.94-2.36,0.97c-0.46,0.03-0.9-0.05-1.3-0.23c-0.4-0.19-0.75-0.43-1.04-0.74c-0.29-0.31-0.53-0.67-0.72-1.09
				c-0.19-0.42-0.28-0.84-0.28-1.27c-0.06-4.57-0.19-9.11-0.39-13.61c-0.2-4.51-0.43-9.04-0.67-13.61c-0.03-0.46,0.05-0.9,0.23-1.3
				c0.19-0.4,0.44-0.75,0.76-1.04c0.32-0.29,0.69-0.52,1.09-0.69c0.4-0.17,0.82-0.27,1.25-0.3c0.43-0.03,0.83,0.02,1.18,0.16
				c0.35,0.14,0.67,0.33,0.95,0.58c1.23-0.09,2.53-0.04,3.89,0.16c1.36,0.2,2.67,0.56,3.94,1.09c1.11,0.43,2.11,1.02,3.01,1.76
				c0.89,0.74,1.66,1.58,2.29,2.52c0.63,0.94,1.11,1.97,1.44,3.08c0.32,1.11,0.47,2.27,0.44,3.47c-0.06,2.13-0.67,4.1-1.83,5.9
				c-1.16,1.81-2.6,3.37-4.33,4.7c0.46,0.16,0.93,0.29,1.39,0.39c0.46,0.11,0.94,0.22,1.44,0.35c0.9,0.25,1.55,0.78,1.97,1.6
				c0.42,0.82,0.53,1.66,0.35,2.52c-0.09,0.46-0.28,0.86-0.56,1.2c-0.28,0.34-0.61,0.61-1,0.81c-0.39,0.2-0.8,0.33-1.25,0.39
				c-0.45,0.06-0.89,0.05-1.32-0.05c-1.3-0.34-2.57-0.7-3.82-1.09C497.15,669.57,495.88,669.13,494.58,668.63z M498.7,657.24
				c0.49-0.52,0.91-1.16,1.25-1.92c0.34-0.76,0.54-1.52,0.6-2.29c0.06-0.77-0.06-1.51-0.37-2.22c-0.31-0.71-0.85-1.3-1.62-1.76
				c-0.62-0.37-1.33-0.64-2.13-0.81c-0.8-0.17-1.65-0.33-2.55-0.49h-0.05c0.09,2.04,0.19,4.07,0.28,6.09
				c0.09,2.02,0.17,4.05,0.23,6.09c0.8-0.25,1.58-0.59,2.34-1.04C497.45,658.44,498.12,657.89,498.7,657.24z"/>
			<path class="st6" d="M517.83,642.47c1.73-1.17,3.49-1.95,5.28-2.34c1.79-0.39,3.52-0.45,5.19-0.19c1.67,0.26,3.25,0.82,4.75,1.67
				c1.5,0.85,2.82,1.93,3.98,3.24c1.16,1.31,2.12,2.82,2.89,4.51c0.77,1.7,1.27,3.54,1.48,5.51c0.19,1.73,0.08,3.43-0.3,5.12
				c-0.39,1.68-0.99,3.29-1.81,4.82c-0.82,1.53-1.82,2.93-3.01,4.21c-1.19,1.28-2.51,2.35-3.96,3.22c-1.57,0.93-3.27,1.6-5.09,2.01
				c-1.82,0.42-3.66,0.52-5.51,0.3c-4.04-0.52-7.29-2.39-9.72-5.6c-1.02-1.33-1.78-2.79-2.27-4.38c-0.49-1.59-0.76-3.2-0.81-4.84
				c-0.05-1.64,0.12-3.27,0.49-4.91c0.37-1.64,0.91-3.18,1.62-4.63c0.77-1.57,1.74-3.02,2.89-4.33
				C515.07,644.56,516.38,643.43,517.83,642.47z M528.62,647.01c-1.45-0.59-2.83-0.75-4.14-0.49c-1.31,0.26-2.5,0.81-3.57,1.64
				c-1.07,0.83-1.98,1.89-2.73,3.17c-0.76,1.28-1.33,2.63-1.71,4.05c-0.39,1.42-0.56,2.85-0.51,4.28c0.05,1.44,0.35,2.72,0.9,3.87
				c0.71,1.39,1.7,2.51,2.96,3.36c1.26,0.85,2.84,1.2,4.72,1.04c1.51-0.15,2.91-0.62,4.19-1.39c1.28-0.77,2.46-1.81,3.54-3.1
				c0.86-1.11,1.52-2.38,1.97-3.8c0.45-1.42,0.59-2.87,0.44-4.35c-0.12-0.86-0.35-1.72-0.67-2.57c-0.32-0.85-0.74-1.64-1.25-2.38
				c-0.51-0.74-1.11-1.4-1.81-1.97C530.26,647.81,529.48,647.35,528.62,647.01z"/>
			<path class="st6" d="M576.4,642.8c0.62,0.46,1,1,1.16,1.6c0.15,0.6,0.19,1.26,0.09,1.97c-0.34,2.04-0.64,4.07-0.9,6.09
				c-0.26,2.02-0.49,4.11-0.67,6.27c-0.22,2.16-0.37,4.32-0.46,6.48c-0.09,2.16-0.16,4.32-0.19,6.48c-0.03,0.99-0.37,1.78-1.02,2.38
				c-0.65,0.6-1.44,0.93-2.36,1c-0.46,0-0.9-0.09-1.3-0.28c-0.4-0.19-0.76-0.43-1.07-0.74c-0.31-0.31-0.56-0.67-0.74-1.09
				c-0.19-0.42-0.28-0.84-0.28-1.27c0.06-2.87,0.18-5.72,0.35-8.54c0.17-2.82,0.42-5.67,0.76-8.54c-0.77,0.93-1.54,1.85-2.29,2.76
				c-0.76,0.91-1.55,1.78-2.38,2.62c-0.62,0.62-1.27,1.23-1.97,1.83c-0.7,0.6-1.47,1-2.34,1.18c-0.65,0.15-1.25,0.19-1.81,0.09
				c-0.56-0.09-1.07-0.28-1.53-0.56c-0.46-0.28-0.9-0.63-1.3-1.07c-0.4-0.43-0.76-0.91-1.07-1.44c-0.83-1.42-1.67-2.84-2.5-4.26
				c-0.83-1.42-1.67-2.84-2.5-4.26c0.09,2.22,0.29,4.4,0.6,6.53c0.31,2.13,0.65,4.31,1.02,6.53c0.22,1.3,0.46,2.58,0.74,3.84
				c0.28,1.27,0.59,2.53,0.93,3.8c0.22,0.9,0.09,1.74-0.37,2.52s-1.13,1.32-1.99,1.6c-0.43,0.15-0.87,0.2-1.32,0.14
				c-0.45-0.06-0.86-0.21-1.23-0.44c-0.37-0.23-0.7-0.52-1-0.86c-0.29-0.34-0.49-0.72-0.58-1.16c-0.8-3.12-1.47-6.24-2.01-9.38
				c-0.54-3.13-0.95-6.29-1.23-9.47c-0.16-1.39-0.27-2.76-0.35-4.1c-0.08-1.34-0.15-2.71-0.21-4.1c0-0.74-0.02-1.57-0.07-2.5
				c-0.05-0.93,0-1.82,0.14-2.69c0.14-0.86,0.43-1.64,0.88-2.32c0.45-0.68,1.16-1.13,2.15-1.34c0.65-0.12,1.23-0.12,1.74,0.02
				c0.51,0.14,0.98,0.36,1.41,0.67c0.43,0.31,0.83,0.67,1.2,1.09c0.37,0.42,0.72,0.84,1.07,1.27c0.4,0.53,0.76,1.05,1.09,1.57
				c0.32,0.53,0.64,1.05,0.95,1.57c0.71,1.2,1.43,2.42,2.15,3.66c0.72,1.23,1.44,2.45,2.15,3.66c0.37,0.59,0.72,1.18,1.07,1.78
				c0.34,0.6,0.68,1.2,1.02,1.78c0.06,0.03,0.09,0.05,0.09,0.07c0,0.02,0.02,0.04,0.05,0.07l0.6-0.6c0.37-0.4,0.74-0.81,1.11-1.23
				c0.37-0.42,0.72-0.83,1.07-1.23c0.74-0.86,1.48-1.74,2.22-2.64c0.74-0.9,1.5-1.76,2.27-2.59c0.77-0.83,1.59-1.64,2.45-2.41
				c0.86-0.77,1.79-1.47,2.78-2.08c0.56-0.37,1.18-0.52,1.88-0.46C575.27,642.16,575.88,642.4,576.4,642.8z"/>
			<path class="st6" d="M579,656.46c0.62-1.88,1.57-3.7,2.85-5.44c1.28-1.74,2.78-3.16,4.49-4.24c1.71-1.08,3.59-1.69,5.63-1.83
				c2.04-0.14,4.1,0.44,6.2,1.74c1.45,0.9,2.7,2.01,3.75,3.33c1.05,1.33,1.82,2.78,2.32,4.35c0.4,1.3,0.6,2.62,0.6,3.98
				c0,1.36-0.18,2.69-0.53,4.01c-0.36,1.31-0.87,2.56-1.55,3.75c-0.68,1.19-1.5,2.25-2.45,3.17c-1.08,1.02-2.28,1.86-3.59,2.52
				c-1.31,0.66-2.68,1.11-4.1,1.34c-1.42,0.23-2.85,0.23-4.28,0c-1.44-0.23-2.82-0.72-4.14-1.46c-1.3-0.74-2.39-1.7-3.29-2.87
				c-0.9-1.17-1.56-2.44-1.99-3.8c-0.43-1.36-0.65-2.78-0.65-4.26C578.26,659.28,578.5,657.85,579,656.46z M595.81,664.33
				c0.62-0.62,1.08-1.32,1.39-2.11c0.31-0.79,0.54-1.66,0.7-2.62c0.19-1.23,0.07-2.44-0.35-3.61c-0.42-1.17-1.03-2.14-1.85-2.89
				c-0.82-0.76-1.76-1.2-2.82-1.32c-1.07-0.12-2.15,0.23-3.26,1.07c-2.01,1.42-3.38,3.29-4.12,5.6c-0.4,1.17-0.51,2.26-0.32,3.26
				c0.19,1,0.59,1.89,1.2,2.66c0.56,0.74,1.23,1.29,2.04,1.64c0.8,0.36,1.64,0.53,2.52,0.51c0.88-0.02,1.75-0.21,2.62-0.58
				C594.4,665.58,595.16,665.04,595.81,664.33z"/>
			<path class="st6" d="M606.85,675.41c-0.57-0.11-1.06-0.35-1.46-0.72c-0.4-0.36-0.74-0.78-1-1.26c-0.27-0.48-0.44-0.98-0.52-1.52
				c-0.08-0.54-0.06-1.07,0.06-1.61c0.15-0.57,0.4-1.06,0.75-1.46c0.34-0.4,0.76-0.74,1.23-1.01c0.48-0.27,0.98-0.43,1.52-0.49
				c0.54-0.06,1.07-0.03,1.61,0.09c0.54,0.15,1.17,0.31,1.89,0.46c0.73,0.15,1.46,0.25,2.21,0.29c0.75,0.04,1.45-0.03,2.12-0.2
				c0.67-0.17,1.23-0.51,1.69-1c0.38-0.46,0.55-0.92,0.52-1.38s-0.19-0.89-0.46-1.29c-0.27-0.4-0.6-0.77-1-1.09
				c-0.4-0.32-0.77-0.62-1.12-0.89c-0.88-0.65-1.83-1.33-2.84-2.04c-1.01-0.71-2-1.46-2.96-2.27c-0.96-0.8-1.81-1.65-2.55-2.55
				c-0.75-0.9-1.29-1.87-1.64-2.9c-0.57-1.72-0.74-3.34-0.49-4.85c0.25-1.51,0.79-2.89,1.64-4.13c0.84-1.24,1.92-2.36,3.24-3.36
				c1.32-0.99,2.74-1.83,4.25-2.5c1.51-0.67,3.06-1.18,4.65-1.52c1.59-0.34,3.09-0.5,4.51-0.46c1.15,0.04,2.1,0.47,2.87,1.29
				c0.76,0.82,1.19,1.79,1.26,2.9c0,0.57-0.11,1.1-0.34,1.58c-0.23,0.48-0.54,0.9-0.92,1.26c-0.38,0.36-0.82,0.66-1.32,0.89
				c-0.5,0.23-1.02,0.36-1.55,0.4c-1.07,0.08-2.15,0.25-3.24,0.52c-1.09,0.27-2.1,0.59-3.01,0.98c-0.92,0.38-1.7,0.83-2.35,1.35
				c-0.65,0.52-1.06,1.07-1.23,1.66c-0.17,0.59-0.07,1.22,0.32,1.87c0.38,0.65,1.15,1.3,2.3,1.95c0.76,0.54,1.66,1.16,2.7,1.87
				c1.03,0.71,2.05,1.49,3.04,2.35c0.99,0.86,1.91,1.78,2.76,2.76c0.84,0.98,1.47,2,1.89,3.07c0.46,1.19,0.64,2.39,0.55,3.62
				c-0.1,1.23-0.41,2.39-0.95,3.5c-0.8,1.72-1.89,3.07-3.24,4.05c-1.36,0.98-2.87,1.66-4.53,2.07c-1.67,0.4-3.44,0.57-5.31,0.49
				C610.49,676.08,608.65,675.83,606.85,675.41z"/>
		</g>
		<g>
			<path class="st6" d="M440.65,639.34c0.49,0.24,0.91,0.61,1.26,1.1c0.35,0.49,0.6,1.02,0.77,1.59c0.16,0.57,0.21,1.15,0.15,1.75
				c-0.06,0.59-0.26,1.13-0.58,1.62c-1.8,2.57-3.42,5.04-4.87,7.41c-1.45,2.37-2.79,4.76-4.01,7.16c-1.22,2.41-2.38,4.91-3.46,7.5
				c-1.08,2.59-2.15,5.38-3.21,8.36c-0.41,1.18-1.1,2.06-2.08,2.63c-0.98,0.57-2.1,0.71-3.37,0.43c-0.57-0.12-1.08-0.37-1.53-0.73
				c-0.45-0.37-0.83-0.81-1.13-1.32c-0.31-0.51-0.5-1.06-0.58-1.65c-0.08-0.59-0.02-1.17,0.18-1.74c1.22-3.43,2.39-6.49,3.49-9.19
				c1.1-2.69,2.27-5.27,3.49-7.72c1.22-2.45,2.58-4.91,4.07-7.38c1.49-2.47,3.28-5.21,5.36-8.24c0.69-1.06,1.59-1.73,2.69-2.02
				C438.39,638.62,439.51,638.77,440.65,639.34z"/>
			<path class="st6" d="M414.97,643.2c0.32-0.99,0.82-1.94,1.5-2.86c0.67-0.92,1.46-1.66,2.36-2.23c0.9-0.57,1.89-0.89,2.96-0.96
				c1.07-0.07,2.16,0.23,3.26,0.91c0.76,0.47,1.42,1.05,1.97,1.75c0.55,0.7,0.96,1.46,1.22,2.29c0.21,0.68,0.32,1.38,0.32,2.09
				c0,0.71-0.09,1.42-0.28,2.11c-0.19,0.69-0.46,1.35-0.82,1.97c-0.36,0.62-0.79,1.18-1.29,1.67c-0.57,0.54-1.2,0.98-1.89,1.33
				c-0.69,0.35-1.41,0.58-2.15,0.71c-0.75,0.12-1.5,0.12-2.25,0c-0.75-0.12-1.48-0.38-2.18-0.77c-0.68-0.39-1.26-0.89-1.73-1.51
				c-0.47-0.62-0.82-1.28-1.05-2c-0.23-0.71-0.34-1.46-0.34-2.24C414.58,644.68,414.71,643.93,414.97,643.2z M423.81,647.33
				c0.32-0.32,0.57-0.69,0.73-1.11c0.16-0.41,0.28-0.87,0.37-1.38c0.1-0.65,0.04-1.28-0.18-1.9c-0.22-0.62-0.54-1.12-0.97-1.52
				c-0.43-0.4-0.92-0.63-1.48-0.69c-0.56-0.06-1.13,0.12-1.72,0.56c-1.05,0.75-1.78,1.73-2.17,2.95c-0.21,0.62-0.27,1.19-0.17,1.72
				c0.1,0.53,0.31,0.99,0.63,1.4c0.29,0.39,0.65,0.68,1.07,0.86c0.42,0.19,0.86,0.28,1.33,0.27c0.46-0.01,0.92-0.11,1.38-0.3
				C423.07,647.99,423.47,647.71,423.81,647.33z"/>
			<path class="st6" d="M432.13,667.21c0.46-1.4,1.17-2.76,2.12-4.06c0.96-1.3,2.07-2.35,3.35-3.16c1.28-0.81,2.68-1.26,4.2-1.36
				c1.52-0.1,3.06,0.33,4.63,1.3c1.08,0.67,2.01,1.5,2.8,2.49c0.78,0.99,1.36,2.07,1.73,3.25c0.3,0.97,0.45,1.96,0.45,2.97
				c0,1.01-0.13,2.01-0.4,2.99c-0.26,0.98-0.65,1.91-1.16,2.8c-0.51,0.89-1.12,1.68-1.83,2.37c-0.81,0.76-1.7,1.39-2.68,1.88
				c-0.98,0.5-2,0.83-3.06,1c-1.06,0.17-2.12,0.17-3.19,0c-1.07-0.17-2.1-0.54-3.09-1.09c-0.97-0.55-1.78-1.27-2.45-2.14
				c-0.67-0.87-1.16-1.82-1.48-2.83c-0.32-1.01-0.48-2.07-0.48-3.18C431.58,669.32,431.76,668.25,432.13,667.21z M444.66,673.08
				c0.46-0.46,0.81-0.98,1.04-1.57c0.23-0.59,0.4-1.24,0.52-1.95c0.14-0.92,0.05-1.82-0.26-2.69c-0.31-0.87-0.77-1.59-1.38-2.16
				c-0.61-0.56-1.31-0.89-2.11-0.98c-0.79-0.09-1.61,0.17-2.43,0.79c-1.5,1.06-2.52,2.45-3.07,4.18c-0.3,0.88-0.38,1.69-0.24,2.43
				c0.14,0.75,0.44,1.41,0.9,1.99c0.41,0.55,0.92,0.96,1.52,1.23c0.6,0.26,1.23,0.39,1.88,0.38c0.66-0.01,1.31-0.16,1.95-0.43
				C443.62,674.02,444.18,673.61,444.66,673.08z"/>
		</g>
	</g>
</g>
</svg>
