<?xml version="1.0" encoding="UTF-8" standalone="no"?>
<svg
   version="1.1"
   width="108.519"
   height="112.53426"
   viewBox="0 0 108.51901 112.53426"
   id="svg209"
   sodipodi:docname="LOGO TOMATO JEOFFREY(1).svg"
   inkscape:version="1.2.2 (732a01da63, 2022-12-09, custom)"
   xmlns:inkscape="http://www.inkscape.org/namespaces/inkscape"
   xmlns:sodipodi="http://sodipodi.sourceforge.net/DTD/sodipodi-0.dtd"
   xmlns="http://www.w3.org/2000/svg"
   xmlns:svg="http://www.w3.org/2000/svg">
  <sodipodi:namedview
     id="namedview211"
     pagecolor="#505050"
     bordercolor="#eeeeee"
     borderopacity="1"
     inkscape:showpageshadow="0"
     inkscape:pageopacity="0"
     inkscape:pagecheckerboard="0"
     inkscape:deskcolor="#505050"
     showgrid="false"
     inkscape:zoom="2.4585578"
     inkscape:cx="174.89929"
     inkscape:cy="116.93848"
     inkscape:window-width="1920"
     inkscape:window-height="980"
     inkscape:window-x="1920"
     inkscape:window-y="0"
     inkscape:window-maximized="1"
     inkscape:current-layer="svg209" />
  <defs
     id="defs21">
    <clipPath
       id="clip-1">
      <g
         fill="none"
         stroke="none"
         stroke-width="1"
         font-family="sans-serif"
         font-weight="normal"
         font-size="12px"
         text-anchor="start"
         id="g18" />
    </clipPath>
  </defs>
  <g
     id="g67"
     style="mix-blend-mode:normal;fill:#ffffff;fill-rule:nonzero;stroke:#26cbff;stroke-width:1.5;stroke-linecap:butt;stroke-linejoin:miter;stroke-miterlimit:10;stroke-dasharray:none;stroke-dashoffset:0"
     transform="translate(-186.13172,-121.72453)">
    <g
       id="g59">
      <path
         d="m 282.79305,188.44637 c 0.53918,0.0573 1.06826,0.1786 1.57711,0.36731 0.18872,0.0708 0.38754,0.16175 0.49201,0.33362 0.12131,0.19882 0.0876,0.45494 0.0404,0.68409 -0.33362,1.69169 -1.01097,3.31598 -1.97476,4.74482 -0.15164,0.22242 -0.33362,0.4583 -0.59647,0.51559 -0.23926,0.0505 -0.4819,-0.0607 -0.70094,-0.17186 -0.73127,-0.37069 -1.44568,-0.77845 -2.13988,-1.2199 -0.37406,-0.23926 -0.75149,-0.49874 -0.97053,-0.88291 -0.14828,-0.26285 -0.21231,-0.56615 -0.22915,-0.86606 -0.0775,-1.24686 0.64366,-2.51057 1.75909,-3.07672 0.82563,-0.42123 1.79952,-0.47179 2.6184,-0.89976 z"
         id="path57" />
    </g>
    <g
       id="g63">
      <path
         d="m 280.66664,192.29142 c 0.15501,-1.45243 0.3808,-2.92507 1.01771,-4.23596 0.40776,-0.84584 0.98064,-1.48276 1.65798,-1.93432 3.70689,-2.48024 10.5107,0.60321 10.55789,5.37161 0.007,0.89639 -0.24937,1.76919 -0.50548,2.62852 -0.31677,1.07163 -0.63691,2.14325 -0.95705,3.21488 -0.13142,0.44483 -0.26622,0.8964 -0.46841,1.31089 -0.10447,0.21568 -0.22578,0.42123 -0.37406,0.60995 -0.738,0.9402 -2.0152,1.32437 -3.21151,1.26371 -1.19632,-0.0573 -2.33871,-0.492 -3.45414,-0.91998 -1.22327,-0.47516 -2.51057,-0.98401 -3.33619,-2.00509 -1.16262,-1.43557 -1.12218,-3.47773 -0.92672,-5.30421 z"
         id="path61" />
    </g>
    <path
       d="m 280.66664,192.29142 c 0.15501,-1.45243 0.3808,-2.92507 1.01771,-4.23596 0.40776,-0.84584 0.98064,-1.48276 1.65798,-1.93432 -0.86269,2.63526 -1.86018,7.49801 1.42547,9.82998 2.72287,1.92758 5.4289,2.52742 7.20147,2.69592 -0.10447,0.21568 -0.22578,0.42123 -0.37406,0.60995 -0.738,0.9402 -2.0152,1.32437 -3.21151,1.26371 -1.19632,-0.0573 -2.33871,-0.492 -3.45414,-0.91998 -1.22327,-0.47516 -2.51057,-0.98401 -3.33619,-2.00509 -1.16262,-1.43557 -1.12218,-3.47773 -0.92672,-5.30421 z"
       id="path65" />
  </g>
  <path
     d="m 104.43231,68.615715 -4.438153,-1.64788 c 0.0404,-0.10783 3.956253,-10.94879 -0.8627,-17.02809 -1.12554,-1.4221 -3.0329,-1.82648 -5.236813,-1.64114 -1.21317,-1.61418 -3.18792,-2.6083 -5.35476,-2.47013 -0.10447,0.007 -0.20893,0.0169 -0.3134,0.027 -0.11795,-0.34373 -0.24264,-0.6942 -0.37406,-1.05141 8.677483,-2.82397 12.937036,-0.39427 14.989306,2.19044 6.48705,8.18211 1.79616,21.0787 1.5906,21.62125 z"
     fill="#ffffff"
     stroke="#26cbff"
     stroke-width="1.5"
     id="path71"
     style="mix-blend-mode:normal;fill-rule:nonzero;stroke-linecap:butt;stroke-linejoin:miter;stroke-miterlimit:10;stroke-dasharray:none;stroke-dashoffset:0" />
  <path
     d="m 4.0927449,70.261365 c -0.26959,-0.51559 -6.55781,-12.71124 -1.15924,-21.64484 1.75908,-2.90822 5.8535095,-5.95123 15.3903091,-3.91245 5.1492,1.10196 9.61431,3.18455 9.80302,3.27217 l -2.0152,4.28651 c -4.01354,-1.8804 -16.1417996,-6.13658 -19.1241596,-1.19631 -4.0135395,6.64207 1.24686,16.89666 1.30078,17.00113 z"
     id="path73"
     style="mix-blend-mode:normal;fill:#ffffff;fill-rule:nonzero;stroke:#26cbff;stroke-width:1.5;stroke-linecap:butt;stroke-linejoin:miter;stroke-miterlimit:10;stroke-dasharray:none;stroke-dashoffset:0" />
  <g
     id="g119"
     style="mix-blend-mode:normal;fill:#ffffff;fill-rule:nonzero;stroke:#26cbff;stroke-width:1.5;stroke-linecap:butt;stroke-linejoin:miter;stroke-miterlimit:10;stroke-dasharray:none;stroke-dashoffset:0"
     transform="translate(-186.13172,-121.72453)">
    <g
       id="g111">
      <path
         d="m 197.75956,188.63285 c 0.86944,0.32351 1.84333,0.24937 2.71277,0.56277 1.1761,0.42123 2.05226,1.58385 2.13314,2.83071 0.0202,0.30329 -0.003,0.60995 -0.11794,0.88965 -0.1685,0.40776 -0.51223,0.71442 -0.85259,0.99749 -0.63354,0.5257 -1.29067,1.02108 -1.96802,1.48275 -0.20219,0.13816 -0.42798,0.2797 -0.67398,0.25948 -0.26959,-0.0236 -0.47852,-0.23589 -0.65713,-0.43809 -1.13903,-1.29741 -2.0152,-2.82061 -2.56112,-4.45837 -0.0741,-0.22242 -0.13816,-0.47178 -0.0438,-0.68409 0.0842,-0.18197 0.26959,-0.29655 0.4482,-0.39091 0.47852,-0.25274 0.99075,-0.44146 1.51645,-0.56614 z"
         id="path109" />
    </g>
    <g
       id="g115">
      <path
         d="m 200.04435,198.04497 c -0.69083,1.11543 -1.90062,1.78605 -3.0565,2.40948 -1.05141,0.56615 -2.12977,1.14239 -3.30924,1.34796 -1.1761,0.20893 -2.49709,-0.007 -3.34631,-0.84584 -0.17186,-0.1685 -0.31677,-0.35721 -0.44819,-0.55603 -0.25274,-0.38417 -0.44483,-0.81551 -0.63018,-1.24012 -0.45494,-1.02108 -0.9065,-2.04552 -1.35807,-3.06997 -0.36395,-0.81888 -0.7279,-1.65125 -0.83573,-2.54091 -0.55604,-4.73808 5.80296,-8.65389 9.79292,-6.66565 0.7279,0.36058 1.37829,0.91998 1.89051,1.70854 0.7953,1.2199 1.20642,2.65211 1.54341,4.07083 0.43134,1.79279 0.7279,3.81135 -0.24263,5.38172 z"
         id="path113" />
    </g>
    <path
       d="m 200.04435,198.04497 c -0.69083,1.11543 -1.90062,1.78605 -3.0565,2.40948 -1.05141,0.56615 -2.12977,1.14239 -3.30924,1.34796 -1.1761,0.20893 -2.49709,-0.007 -3.34631,-0.84584 -0.17186,-0.1685 -0.31677,-0.35721 -0.44819,-0.55603 1.73887,-0.39091 4.34716,-1.33111 6.80045,-3.58894 2.96551,-2.72961 1.35807,-7.42725 0.16849,-9.93108 0.7279,0.36058 1.37829,0.91998 1.89051,1.70854 0.7953,1.2199 1.20642,2.65211 1.54341,4.07083 0.43134,1.79615 0.7279,3.81472 -0.24263,5.38509 z"
       id="path117" />
  </g>
  <path
     d="m 43.439554,93.983385 c -1.8804,-0.2123 -3.80798,-0.3471 -5.57381,-1.06489 -0.19546,-0.0809 -0.40439,-0.1685 -0.62006,-0.26622 0.15839,-1.99498 0.44483,-4.4887 0.95368,-7.2756 0.35047,-1.93432 0.76497,-3.74059 1.22327,-5.51652 0.64702,-2.50046 1.38503,-4.94026 2.18706,-7.589 0.1685,-0.55604 0.31003,-1.01097 0.40776,-1.32774 l 5.92427,2.05564 c -0.0169,0.0505 -0.0404,0.12805 -0.0708,0.22241 -0.5257,1.67147 -1.81638,5.81307 -2.81724,10.17371 -0.18872,0.81214 -0.36732,1.6344 -0.5257,2.44992 -0.5931,3.00594 -0.91998,5.75916 -1.08847,8.1383 z"
     fill="#ffffff"
     stroke="#26cbff"
     stroke-width="1.5"
     id="path123"
     style="mix-blend-mode:normal;fill-rule:nonzero;stroke-linecap:butt;stroke-linejoin:miter;stroke-miterlimit:10;stroke-dasharray:none;stroke-dashoffset:0" />
  <path
     d="m 47.085784,109.78483 c -0.16175,0.7717 -0.94357,1.03456 -1.58722,1.10196 -1.57711,0.16512 -3.16433,0.0303 -4.74481,-0.003 -2.33871,-0.0505 -4.68752,0.10784 -7.01612,0.47853 -1.78941,0.28307 -3.62938,0.68746 -5.36825,0.15839 -0.37743,-0.11458 -0.77845,-0.32688 -1.04803,-0.65039 -0.17186,-0.20893 -0.28644,-0.46505 -0.30666,-0.76834 -0.0202,-0.3134 0.0741,-0.62343 0.19208,-0.9065 0.6942,-1.68832 2.18706,-2.61504 3.5822,-3.4137 1.6681,-0.95031 3.35979,-1.89051 5.15595,-2.33871 0.78519,-0.19546 1.42883,-0.29318 2.06238,-0.27633 0,0 0,-0.003 -0.003,-0.007 -0.0775,-0.21904 -2.8105,-8.010245 -1.97139,-11.703645 0.0809,-0.35047 0.37743,-0.55604 0.66387,-0.46505 0.0236,0.007 0.0505,0.0168 0.0775,0.0236 0.96379,0.31003 3.06324,0.91324 5.23008,1.09521 0.4819,0.0404 0.96379,0.0573 1.44231,0.0505 0.0607,0 0.12132,-0.003 0.17861,-0.003 0.53244,-0.0169 0.96379,0.48863 0.97727,1.14239 0.0438,2.69254 0.30329,9.280705 1.79952,13.921045 0.003,0.007 0.007,0.0101 0.007,0.0168 0.16512,0.50548 0.34373,0.98738 0.53582,1.43558 0.11794,0.35047 0.22241,0.74138 0.14153,1.11207 z"
     fill="#ffffff"
     stroke="#26cbff"
     stroke-width="1.5"
     id="path125"
     style="mix-blend-mode:normal;fill-rule:nonzero;stroke-linecap:butt;stroke-linejoin:miter;stroke-miterlimit:10;stroke-dasharray:none;stroke-dashoffset:0" />
  <path
     d="m 47.085784,109.78483 c -0.16175,0.7717 -0.94357,1.03456 -1.58722,1.10196 -1.57711,0.16512 -3.16433,0.0303 -4.74481,-0.003 -2.33871,-0.0505 -4.68752,0.10784 -7.01612,0.47853 -1.78941,0.28307 -3.62938,0.68746 -5.36825,0.15839 -0.37743,-0.11458 -0.77845,-0.32688 -1.04803,-0.65039 0.65376,-0.0708 1.59396,-0.18535 2.7195,-0.35047 6.41291,-0.94357 5.50641,-1.64451 9.42897,-2.11293 1.18621,-0.14154 2.08259,-0.17523 2.70265,-1.03456 0.22242,-0.30666 0.90987,-1.09521 0.51223,-3.86864 -0.23253,-1.62766 -0.47179,-3.25195 -0.69083,-4.882982 -0.26622,-1.954543 -0.65376,-4.053993 -0.15501,-5.995053 0.0438,-0.17523 0.0977,-0.3471 0.16513,-0.51559 0.4819,0.0404 0.96379,0.0573 1.44231,0.0505 0.0607,0 0.12132,-0.003 0.17861,-0.003 0.53244,-0.0169 0.96379,0.48863 0.97727,1.14239 0.0438,2.69254 0.30329,9.280705 1.79952,13.921045 0.003,0.007 0.007,0.0101 0.007,0.0169 0.16512,0.50548 0.34373,0.98738 0.53582,1.43558 0.11794,0.35047 0.22241,0.74138 0.14153,1.11207 z"
     fill="#ffffff"
     stroke="#26cbff"
     stroke-width="1.5"
     id="path127"
     style="mix-blend-mode:normal;fill-rule:nonzero;stroke-linecap:butt;stroke-linejoin:miter;stroke-miterlimit:10;stroke-dasharray:none;stroke-dashoffset:0" />
  <path
     d="m 42.020824,70.943405 5.92428,2.05564 c -0.0169,0.0506 -0.0404,0.12805 -0.0708,0.22241 -0.52233,1.67147 -1.81637,5.81307 -2.81723,10.17371 -0.98738,-0.40776 -1.9478,-0.88628 -2.88126,-1.45243 -0.96042,-0.58299 -1.88714,-1.28056 -2.75321,-2.07922 0.64702,-2.50046 1.38502,-4.94027 2.19043,-7.58901 0.1685,-0.5594 0.31003,-1.01771 0.40776,-1.33111 z"
     fill="#ffffff"
     stroke="#26cbff"
     stroke-width="1.5"
     id="path129"
     style="mix-blend-mode:normal;fill-rule:nonzero;stroke-linecap:butt;stroke-linejoin:miter;stroke-miterlimit:10;stroke-dasharray:none;stroke-dashoffset:0" />
  <path
     d="m 66.698574,86.690925 c -0.17523,-0.81214 -0.36732,-1.63103 -0.56951,-2.43981 -1.07836,-4.34043 -2.44317,-8.4618 -2.99583,-10.12316 -0.0303,-0.091 -0.0573,-0.1685 -0.0741,-0.21904 l 5.88721,-2.15673 c 0.10447,0.3134 0.25274,0.76834 0.43134,1.321 0.84922,2.63526 1.63103,5.06158 2.32186,7.54856 0.49201,1.76919 0.93682,3.56872 1.32099,5.4963 0.55941,2.77679 0.88629,5.26378 1.08174,7.25876 -0.21567,0.10109 -0.4246,0.19208 -0.61669,0.27633 -1.75234,0.75149 -3.67656,0.91661 -5.55359,1.16261 -0.2123,-2.3724 -0.58637,-5.11888 -1.23338,-8.12482 z"
     fill="#ffffff"
     stroke="#26cbff"
     stroke-width="1.5"
     id="path131"
     style="mix-blend-mode:normal;fill-rule:nonzero;stroke-linecap:butt;stroke-linejoin:miter;stroke-miterlimit:10;stroke-dasharray:none;stroke-dashoffset:0" />
  <path
     d="m 64.915894,108.88844 c 0.17523,-0.45494 0.33363,-0.94357 0.47853,-1.45579 0,-0.007 0.003,-0.0101 0.007,-0.0169 1.31089,-4.6909 1.31764,-11.285795 1.25698,-13.978335 -0.0169,-0.65376 0.39765,-1.17609 0.93009,-1.17946 0.0573,0 0.11794,-0.003 0.1786,-0.003 0.47852,-0.0101 0.96042,-0.0472 1.43895,-0.10447 2.15673,-0.26622 4.23259,-0.95031 5.1829,-1.29741 0.027,-0.0101 0.0539,-0.0169 0.0775,-0.027 0.2797,-0.10109 0.58636,0.091 0.68072,0.43809 0.98064,3.65634 -1.44568,11.552005 -1.51645,11.771055 -0.003,0.003 -0.003,0.007 -0.003,0.007 0.63017,-0.0371 1.27719,0.0337 2.06912,0.19882 1.80964,0.37743 3.53839,1.25023 5.24018,2.13651 1.42883,0.74474 2.95204,1.61081 3.71363,3.27217 0.12806,0.2797 0.23252,0.58299 0.22578,0.89976 -0.007,0.30666 -0.11458,0.56614 -0.27633,0.78182 -0.25611,0.33362 -0.64702,0.56277 -1.02108,0.69083 -1.71864,0.59647 -3.57209,0.26622 -5.37162,0.0505 -2.34208,-0.2797 -4.69426,-0.34709 -7.0296,-0.20556 -1.58048,0.0944 -3.1576,0.28643 -4.74145,0.18534 -0.64702,-0.0404 -1.43557,-0.27296 -1.62766,-1.03793 -0.091,-0.36732 -0.007,-0.76496 0.10783,-1.12554 z"
     fill="#ffffff"
     stroke="#26cbff"
     stroke-width="1.5"
     id="path133"
     style="mix-blend-mode:normal;fill-rule:nonzero;stroke-linecap:butt;stroke-linejoin:miter;stroke-miterlimit:10;stroke-dasharray:none;stroke-dashoffset:0" />
  <path
     d="m 64.912534,108.89518 c 0.17523,-0.45494 0.33362,-0.94357 0.47853,-1.4558 0,-0.007 0.003,-0.0101 0.007,-0.0168 1.31089,-4.6909 1.31763,-11.285795 1.25697,-13.978335 -0.0168,-0.65376 0.39765,-1.17609 0.93009,-1.17946 0.0573,0 0.11794,-0.003 0.17861,-0.003 0.47852,-0.0101 0.96042,-0.0472 1.43894,-0.10447 0.0708,0.16512 0.13143,0.33699 0.18198,0.50886 0.57288,1.91747 0.26622,4.03039 0.0775,5.995053 -0.15839,1.637772 -0.33362,3.272172 -0.50211,4.906572 -0.28981,2.7869 0.43134,3.54513 0.66387,3.84505 0.65039,0.83237 1.55015,0.82899 2.73972,0.92672 3.93604,0.31677 3.0565,1.05141 9.50311,1.74561 1.13229,0.12468 2.07585,0.19882 2.73298,0.246 -0.25611,0.33362 -0.64702,0.56277 -1.02108,0.69083 -1.71864,0.59647 -3.57209,0.26622 -5.37162,0.0505 -2.34208,-0.2797 -4.69426,-0.34709 -7.0296,-0.20556 -1.58048,0.0944 -3.1576,0.28643 -4.74145,0.18534 -0.64702,-0.0404 -1.43557,-0.27296 -1.62766,-1.03793 -0.091,-0.36732 -0.007,-0.76496 0.10447,-1.1188 z"
     fill="#ffffff"
     stroke="#26cbff"
     stroke-width="1.5"
     id="path135"
     style="mix-blend-mode:normal;fill-rule:nonzero;stroke-linecap:butt;stroke-linejoin:miter;stroke-miterlimit:10;stroke-dasharray:none;stroke-dashoffset:0" />
  <path
     d="m 69.377644,73.076545 c 0.84922,2.63863 1.63103,5.06495 2.32186,7.55193 -0.85258,0.81214 -1.76583,1.52657 -2.71614,2.12641 -0.91998,0.58299 -1.87366,1.07837 -2.8543,1.50297 -1.07836,-4.34043 -2.44317,-8.4618 -2.99583,-10.12316 -0.0303,-0.091 -0.0573,-0.1685 -0.0741,-0.21904 l 5.88721,-2.16011 c 0.10109,0.3134 0.25274,0.76834 0.43134,1.321 z"
     fill="#ffffff"
     stroke="#26cbff"
     stroke-width="1.5"
     id="path137"
     style="mix-blend-mode:normal;fill-rule:nonzero;stroke-linecap:butt;stroke-linejoin:miter;stroke-miterlimit:10;stroke-dasharray:none;stroke-dashoffset:0" />
  <path
     d="m 55.962084,15.057055 c 11.40373,0.75823 22.68614,4.51566 29.93479,10.477 9.641273,7.926 13.381863,22.81419 7.40366,34.00562 -6.60499,12.36415 -20.42157,17.85371 -33.54057,19.8588 -13.365,2.04216 -30.97271,-0.48863 -40.17589,-11.2049 -14.9623391,-17.42236 -2.20391,-44.96452 17.88741,-50.99663 5.67828,-1.70516 12.56297,-2.53753 18.49062,-2.13988 z"
     fill="#ffffff"
     stroke="#26cbff"
     stroke-width="1.5"
     id="path139"
     style="mix-blend-mode:normal;fill-rule:nonzero;stroke-linecap:butt;stroke-linejoin:miter;stroke-miterlimit:10;stroke-dasharray:none;stroke-dashoffset:0" />
  <path
     d="m 83.072894,46.990185 c -1.34459,6.51401 -8.93022,10.231 -15.13757,7.86197 -7.77772,-2.96888 -10.73312,-12.13163 -5.53,-18.64227 3.16433,-3.94952 8.13493,-5.30758 12.88648,-3.60579 5.12898,1.83659 8.85608,9.18296 7.78109,14.38609 z"
     fill="#ffffff"
     stroke="#26cbff"
     stroke-width="1.5"
     id="path141"
     style="mix-blend-mode:normal;fill-rule:nonzero;stroke-linecap:butt;stroke-linejoin:miter;stroke-miterlimit:10;stroke-dasharray:none;stroke-dashoffset:0" />
  <path
     d="m 80.039994,46.127495 c -0.99075,4.79536 -6.57803,7.53509 -11.14762,5.78948 -5.72546,-2.18706 -7.90578,-8.93359 -4.07084,-13.72895 2.3286,-2.90822 5.99167,-3.90908 9.48962,-2.65548 3.77429,1.3547 6.52075,6.76339 5.72883,10.59495 z"
     fill="#ffffff"
     stroke="#26cbff"
     stroke-width="1.5"
     id="path143"
     style="mix-blend-mode:normal;fill-rule:nonzero;stroke-linecap:butt;stroke-linejoin:miter;stroke-miterlimit:10;stroke-dasharray:none;stroke-dashoffset:0" />
  <path
     d="m 52.817974,48.334775 c -1.34459,6.51401 -8.93022,10.231 -15.13757,7.86196 -7.77772,-2.96888 -10.73312,-12.13162 -5.53,-18.64226 3.16433,-3.94952 8.13493,-5.30759 12.88648,-3.60579 5.12898,1.83659 8.85608,9.18296 7.78109,14.38609 z"
     fill="#ffffff"
     stroke="#26cbff"
     stroke-width="1.5"
     id="path145"
     style="mix-blend-mode:normal;fill-rule:nonzero;stroke-linecap:butt;stroke-linejoin:miter;stroke-miterlimit:10;stroke-dasharray:none;stroke-dashoffset:0" />
  <path
     d="m 49.785064,47.475445 c -0.99075,4.79536 -6.57803,7.53509 -11.14762,5.78948 -5.72546,-2.18706 -7.90577,-8.9336 -4.07083,-13.72896 2.3286,-2.90822 5.99167,-3.90908 9.48962,-2.65547 3.77428,1.3547 6.52075,6.76338 5.72883,10.59495 z"
     fill="#ffffff"
     stroke="#26cbff"
     stroke-width="1.5"
     id="path147"
     style="mix-blend-mode:normal;fill-rule:nonzero;stroke-linecap:butt;stroke-linejoin:miter;stroke-miterlimit:10;stroke-dasharray:none;stroke-dashoffset:0" />
  <path
     d="m 59.171944,55.981025 c 0.99075,0.8627 1.36144,2.49709 1.36818,3.38338 0.007,0.23253 -0.18197,0.42123 -0.4145,0.4246 -0.23253,0.003 -0.42123,-0.18534 -0.42123,-0.41786 -0.0101,-0.89976 -0.41786,-2.18033 -1.08173,-2.75995 -0.28644,-0.24937 -0.58974,-0.3471 -0.9301,-0.30666 -0.29655,0.0371 -0.56277,0.21904 -0.79529,0.53918 -0.4819,0.66387 -0.64702,1.7018 -0.52571,2.32186 0.0438,0.22915 -0.10447,0.44819 -0.33362,0.49201 -0.22579,0.0404 -0.44819,-0.10447 -0.492,-0.33362 -0.15501,-0.80203 0.0236,-2.08259 0.6706,-2.97224 0.36732,-0.50886 0.84248,-0.81215 1.37155,-0.87955 0.12468,-0.0135 0.24937,-0.0169 0.37406,-0.0101 0.43809,0.027 0.85258,0.20557 1.20979,0.51897 z"
     fill="#ffffff"
     stroke="#26cbff"
     stroke-width="1.5"
     id="path149"
     style="mix-blend-mode:normal;fill-rule:nonzero;stroke-linecap:butt;stroke-linejoin:miter;stroke-miterlimit:10;stroke-dasharray:none;stroke-dashoffset:0" />
  <path
     d="m 67.581484,30.194615 c -0.17861,-0.0674 -0.27296,-0.26622 -0.20557,-0.44819 0.0303,-0.0842 0.78856,-2.05563 3.62938,-2.06574 3.21825,-0.007 4.14497,2.40274 4.18204,2.50383 0.0674,0.18197 -0.027,0.3808 -0.20557,0.44819 -0.18198,0.0674 -0.38079,-0.0236 -0.44819,-0.20556 -0.007,-0.0202 -0.78855,-2.05901 -3.52491,-2.04553 -2.33534,0.007 -2.95203,1.54341 -2.97562,1.60744 -0.0539,0.15165 -0.19882,0.23926 -0.35047,0.22915 -0.0337,-0.003 -0.0674,-0.0101 -0.10109,-0.0236 z"
     fill="#ffffff"
     stroke="#26cbff"
     stroke-width="1.5"
     id="path151"
     style="mix-blend-mode:normal;fill-rule:nonzero;stroke-linecap:butt;stroke-linejoin:miter;stroke-miterlimit:10;stroke-dasharray:none;stroke-dashoffset:0" />
  <path
     d="m 35.867394,32.974785 c -0.18535,-0.0404 -0.30666,-0.22579 -0.26285,-0.4145 0.0202,-0.10783 0.61332,-2.62515 3.80461,-3.04638 2.81724,-0.37406 3.83494,1.47939 3.87538,1.55689 0.091,0.1685 0.027,0.37743 -0.14154,0.46841 -0.1685,0.091 -0.3808,0.027 -0.47178,-0.14154 -0.0337,-0.0607 -0.84921,-1.49961 -3.1677,-1.19295 -2.69254,0.35384 -3.19804,2.41622 -3.21825,2.50384 -0.0371,0.17186 -0.19208,0.28307 -0.36058,0.27296 -0.0202,-0.003 -0.0371,-0.007 -0.0573,-0.007 z"
     fill="#ffffff"
     stroke="#26cbff"
     stroke-width="1.5"
     id="path153"
     style="mix-blend-mode:normal;fill-rule:nonzero;stroke-linecap:butt;stroke-linejoin:miter;stroke-miterlimit:10;stroke-dasharray:none;stroke-dashoffset:0" />
  <path
     d="m 51.025184,72.769885 c 15.34651,-2.59482 31.3097,-11.40373 32.99465,-27.36692 0.86269,-7.73391 0.57288,-16.77197 -3.6496,-23.5859 2.02194,1.11881 3.88212,2.35892 5.53,3.71699 9.641273,7.926 13.381863,22.81419 7.40366,34.00562 -6.60499,12.36415 -20.42157,17.85371 -33.54058,19.8588 -12.6607,1.93432 -29.12601,-0.23253 -38.64934,-9.57725 9.39864,3.26543 19.34657,4.61676 29.9112,2.94866 z"
     fill="#ffffff"
     stroke="#26cbff"
     stroke-width="1.5"
     id="path155"
     style="mix-blend-mode:normal;fill-rule:nonzero;stroke-linecap:butt;stroke-linejoin:miter;stroke-miterlimit:10;stroke-dasharray:none;stroke-dashoffset:0" />
  <path
     d="m 54.563574,13.031735 c -0.1449,0.0371 -0.28981,0.0741 -0.43809,0.10784 0,0.003 0.15501,-0.0404 0.43809,-0.10784 z"
     fill="#ffffff"
     stroke="#26cbff"
     stroke-width="1.5"
     id="path157"
     style="mix-blend-mode:normal;fill-rule:nonzero;stroke-linecap:butt;stroke-linejoin:miter;stroke-miterlimit:10;stroke-dasharray:none;stroke-dashoffset:0" />
  <path
     d="m 28.588424,31.208965 c -0.11458,0.57962 -1.11881,1.48949 -1.69169,0.86943 -0.42461,-0.46168 0.24938,-1.44568 0.61333,-1.73886 0.74474,-0.60321 1.22327,0.13143 1.07836,0.86943 z"
     fill="#ffffff"
     stroke="#26cbff"
     stroke-width="1.5"
     id="path159"
     style="mix-blend-mode:normal;fill-rule:nonzero;stroke-linecap:butt;stroke-linejoin:miter;stroke-miterlimit:10;stroke-dasharray:none;stroke-dashoffset:0" />
  <path
     d="m 24.642274,36.469365 c 0.13479,0.87617 -0.65713,2.03542 -1.26708,2.58808 -0.52908,0.47852 -1.33447,0.84584 -1.90062,0.36732 -1.14577,-0.96379 0.48526,-2.89474 1.8029,-3.45415 0.66387,-0.2797 1.25023,-0.21567 1.36481,0.49875 z"
     fill="#ffffff"
     stroke="#26cbff"
     stroke-width="1.5"
     id="path161"
     style="mix-blend-mode:normal;fill-rule:nonzero;stroke-linecap:butt;stroke-linejoin:miter;stroke-miterlimit:10;stroke-dasharray:none;stroke-dashoffset:0" />
  <path
     d="m 22.694474,33.028705 c -0.2123,-0.64028 0.33363,-1.41536 0.74812,-1.85682 0.22579,-0.24264 0.54929,-0.48863 0.88291,-0.5493 0.33699,-0.064 0.80541,-0.0371 0.95705,0.3134 0.17861,0.41449 -0.0135,0.9739 -0.26285,1.32437 -0.091,0.12805 -0.24937,0.32014 -0.44482,0.51559 -0.60321,0.60321 -1.54678,1.25698 -1.8804,0.25275 z"
     fill="#ffffff"
     stroke="#26cbff"
     stroke-width="1.5"
     id="path163"
     style="mix-blend-mode:normal;fill-rule:nonzero;stroke-linecap:butt;stroke-linejoin:miter;stroke-miterlimit:10;stroke-dasharray:none;stroke-dashoffset:0" />
  <g
     clip-path="url(#clip-1)"
     id="g171"
     style="mix-blend-mode:normal;fill-rule:nonzero;stroke-linecap:butt;stroke-linejoin:miter;stroke-miterlimit:10;stroke-dasharray:none;stroke-dashoffset:0"
     transform="translate(-5.2989226,-2.3514621)">
    <path
       d="m 232.78279,141.95101 c 0,0 -0.15501,0.0438 -0.43809,0.10783 0.1449,-0.0371 0.28981,-0.0741 0.43809,-0.10783 z"
       fill="#ffffff"
       stroke="#26cbff"
       stroke-width="1.5"
       id="path165" />
    <path
       d="m 242.94303,140.75806 c 0,0 0.74811,-0.13143 1.97138,-0.12132 -0.63017,0.0741 -1.2873,0.11458 -1.97138,0.12132 z"
       fill="#ffffff"
       stroke="#26cbff"
       stroke-width="1.5"
       id="path167" />
    <path
       d="m 247.71143,140.88949 c 2.65548,0.46841 6.04223,1.71191 9.1459,4.76841 0,0 -0.55604,0.29655 -1.49624,0.65039 -3.02616,1.1525 -10.03892,2.92507 -15.25552,-2.58471 0,0 -1.38165,8.39778 -15.515,6.66902 -0.34036,-0.0404 -0.69083,-0.0876 -1.04804,-0.14154 0,0 1.72876,-5.72208 7.67663,-7.85185 0.36395,-0.12805 0.738,-0.24601 1.13228,-0.3471 0.28307,-0.064 0.43809,-0.10783 0.43809,-0.10783 -0.14828,0.0337 -0.29318,0.0708 -0.43809,0.10783 -2.08259,0.48526 -11.1274,2.24098 -17.31453,-2.10618 -0.30329,-0.2123 -0.59985,-0.43809 -0.88966,-0.68072 0,0 4.98745,-6.8173 18.65575,-2.31175 0.0977,0.0337 0.19882,0.064 0.29655,0.0977 0,0 -5.73556,-2.94866 -5.68501,-12.51579 0.003,-0.47178 0.0135,-0.95368 0.0472,-1.45916 0,0 11.06,1.61418 12.33045,13.29761 0.0101,0.0775 0.0202,0.15839 0.027,0.23589 0,0 0.78518,-2.15673 3.49458,-4.0405 2.65211,-1.83997 7.13744,-3.41708 14.53436,-2.46003 0,0 -0.4583,1.4996 -1.65462,3.37326 -1.6344,2.56786 -4.66057,5.83329 -9.79629,6.91166 -0.47516,0.10109 -0.97053,0.18197 -1.48275,0.24263 -1.22327,-0.0101 -1.97475,0.12132 -1.97138,0.12132 0.68409,-0.003 1.34122,-0.0472 1.97138,-0.12132 0.76496,0.007 1.72202,0.0708 2.79701,0.25274 z"
       fill="#ffffff"
       stroke="#26cbff"
       stroke-width="1.5"
       id="path169" />
  </g>
  <path
     d="m 60.376654,16.917235 c -1.68495,-0.58973 -3.43393,-1.0076 -5.19638,-1.25697 1.75908,0.24937 3.51143,0.66724 5.19638,1.25697 -0.47516,0.10109 -0.97053,0.18535 -1.48275,0.24264 -1.22327,-0.0101 -1.97139,0.12132 -1.97139,0.12132 0.68409,-0.007 1.34459,-0.0505 1.97139,-0.12132 0.76834,0.007 1.72201,0.0708 2.79701,0.26285 2.93181,1.22327 5.59066,3.01269 7.65303,5.42216 -3.02954,1.14914 -10.03892,2.92507 -15.25552,-2.58471 0,0 -1.38503,8.39778 -15.515,6.66903 1.55689,-4.03376 5.3514,-6.71957 9.28407,-8.3843 -0.88966,0.10783 -1.77594,0.23253 -2.65885,0.38754 0.36058,-0.13143 0.738,-0.24601 1.13228,-0.3471 0.28307,-0.064 0.43809,-0.10784 0.43809,-0.10784 -0.14828,0.0337 -0.29318,0.0708 -0.43809,0.10784 -2.07923,0.48526 -11.12403,2.24098 -17.31453,-2.10619 5.32443,-4.19889 14.15019,-4.12138 19.91271,-0.76496 -0.62006,-0.88291 -1.34458,-1.61419 -2.14662,-2.22751 0.0977,0.0337 0.19882,0.064 0.29655,0.0977 0,0 -5.73557,-2.94866 -5.68502,-12.5158002 6.55444,2.38251 12.44166,6.4702 11.84182,13.5840502 0.1685,-0.6268 0.33024,-1.18283 0.53581,-1.74561 0.007,0.0775 0.0202,0.15501 0.027,0.23589 0,0 0.78519,-2.15673 3.49458,-4.0405001 0.84584,-0.46505 1.75909,-0.80877 2.82734,-0.93346 3.27554,-0.31003 7.10711,0.17186 10.0524,1.8467001 -1.63777,2.56112 -4.66057,5.82655 -9.79629,6.90154 z"
     fill="#ffffff"
     stroke="#26cbff"
     stroke-width="1.5"
     id="path173"
     style="mix-blend-mode:normal;fill-rule:nonzero;stroke-linecap:butt;stroke-linejoin:miter;stroke-miterlimit:10;stroke-dasharray:none;stroke-dashoffset:0" />
  <path
     d="m 48.925744,15.710815 c -5.76252,-3.35641 -14.58828,-3.43055 -19.91272,0.76496 -0.30329,-0.2123 -0.59984,-0.43809 -0.88965,-0.68072 0,0 4.98745,-6.8173001 18.65574,-2.31175 0.80203,0.61332 1.52656,1.34459 2.14662,2.22751 z"
     fill="#ffffff"
     stroke="#26cbff"
     stroke-width="1.5"
     id="path175"
     style="mix-blend-mode:normal;fill-rule:nonzero;stroke-linecap:butt;stroke-linejoin:miter;stroke-miterlimit:10;stroke-dasharray:none;stroke-dashoffset:0" />
  <path
     d="m 45.195264,18.932435 c 0.87955,-0.15501 1.76919,-0.27971 2.65885,-0.38754 -3.93267,1.66473 -7.72717,4.35054 -9.28406,8.3843 -0.34373,-0.0438 -0.69082,-0.0876 -1.04803,-0.14154 -0.003,-0.003 1.72538,-5.72545 7.67325,-7.85522 z"
     fill="#ffffff"
     stroke="#26cbff"
     stroke-width="1.5"
     id="path177"
     style="mix-blend-mode:normal;fill-rule:nonzero;stroke-linecap:butt;stroke-linejoin:miter;stroke-miterlimit:10;stroke-dasharray:none;stroke-dashoffset:0" />
  <path
     d="m 69.340574,22.844875 c -2.06238,-2.40947 -4.72122,-4.19889 -7.65303,-5.42216 2.65885,0.47179 6.0456,1.7119 9.1459,4.7684 0.003,0.003 -0.55267,0.29992 -1.49287,0.65376 z"
     fill="#ffffff"
     stroke="#26cbff"
     stroke-width="1.5"
     id="path179"
     style="mix-blend-mode:normal;fill-rule:nonzero;stroke-linecap:butt;stroke-linejoin:miter;stroke-miterlimit:10;stroke-dasharray:none;stroke-dashoffset:0" />
  <path
     d="m 45.333434,33.965535 c 0,0 6.41291,4.22585 21.44602,-1.1525 0,0 -6.14332,7.69347 -5.51989,11.08359 0.62343,3.39012 6.67914,10.95553 6.67914,10.95553 0,0 -10.81737,-4.09105 -20.00371,0.26285 l 2.82398,-5.0717 1.34122,-6.18376 -1.81637,-5.14583 -4.76504,-2.23424 z"
     fill="#ffffff"
     stroke="#26cbff"
     stroke-width="1.5"
     id="path181"
     style="mix-blend-mode:normal;fill-rule:nonzero;stroke-linecap:butt;stroke-linejoin:miter;stroke-miterlimit:10;stroke-dasharray:none;stroke-dashoffset:0" />
  <path
     d="m 71.493934,40.890675 c 0,-0.63279 0.51298,-1.14577 1.14577,-1.14577 0.63279,0 1.14576,0.51298 1.14576,1.14577 0,0.63279 -0.51297,1.14576 -1.14576,1.14576 -0.63279,0 -1.14577,-0.51297 -1.14577,-1.14576 z"
     fill="#ffffff"
     stroke="#26cbff"
     stroke-width="1.5"
     id="path183"
     style="mix-blend-mode:normal;fill-rule:nonzero;stroke-linecap:butt;stroke-linejoin:miter;stroke-miterlimit:10;stroke-dasharray:none;stroke-dashoffset:0" />
  <path
     d="m 41.663614,42.117315 c 0,-0.63279 0.51297,-1.14577 1.14576,-1.14577 0.63279,0 1.14577,0.51298 1.14577,1.14577 0,0.63279 -0.51298,1.14576 -1.14577,1.14576 -0.63279,0 -1.14576,-0.51297 -1.14576,-1.14576 z"
     fill="#ffffff"
     stroke="#26cbff"
     stroke-width="1.5"
     id="path185"
     style="mix-blend-mode:normal;fill-rule:nonzero;stroke-linecap:butt;stroke-linejoin:miter;stroke-miterlimit:10;stroke-dasharray:none;stroke-dashoffset:0" />
  <path
     d="m 95.602177,41.965665 c -0.22578,-1.0413 -0.50549,-2.07249 -0.56615,-2.2949 0.21567,0.75823 0.40439,1.5232 0.56615,2.2949 z"
     fill="#ffffff"
     stroke="#26cbff"
     stroke-width="1.5"
     id="path187"
     style="mix-blend-mode:normal;fill-rule:nonzero;stroke-linecap:butt;stroke-linejoin:miter;stroke-miterlimit:10;stroke-dasharray:none;stroke-dashoffset:0" />
  <path
     d="m 95.834697,43.273185 c -0.0674,-0.43809 -0.14827,-0.8728 -0.23589,-1.30752 0.0977,0.45494 0.18534,0.91324 0.23589,1.30752 z"
     fill="#ffffff"
     stroke="#26cbff"
     stroke-width="1.5"
     id="path189"
     style="mix-blend-mode:normal;fill-rule:nonzero;stroke-linecap:butt;stroke-linejoin:miter;stroke-miterlimit:10;stroke-dasharray:none;stroke-dashoffset:0" />
  <path
     d="m 95.036027,39.670765 c -0.007,-0.0169 -0.0101,-0.0303 -0.0135,-0.0472 v 0 c 0,0 0.003,0.0168 0.0135,0.0472 z"
     fill="#ffffff"
     stroke="#26cbff"
     stroke-width="1.5"
     id="path191"
     style="mix-blend-mode:normal;fill-rule:nonzero;stroke-linecap:butt;stroke-linejoin:miter;stroke-miterlimit:10;stroke-dasharray:none;stroke-dashoffset:0" />
  <path
     d="m 84.019834,45.402965 c -0.0539,0.50548 -0.12131,1.00423 -0.20219,1.49623 -0.24937,0.0337 -0.49538,0.064 -0.74475,0.091 0,0 -1.27382,-1.35133 -1.34458,-1.47602 -0.0741,-0.12468 0.36395,-5.74567 0.36395,-5.74567 0,0 0.88629,0.10784 2.30164,0.20219 -0.0438,1.85008 -0.17861,3.67319 -0.37406,5.43227 z"
     fill="#ffffff"
     stroke="#26cbff"
     stroke-width="1.5"
     id="path193"
     style="mix-blend-mode:normal;fill-rule:nonzero;stroke-linecap:butt;stroke-linejoin:miter;stroke-miterlimit:10;stroke-dasharray:none;stroke-dashoffset:0" />
  <path
     d="m 95.834697,43.269815 c -0.0135,0.0101 -5.685013,2.78354 -12.017043,3.62601 0.0809,-0.49201 0.14827,-0.99075 0.20219,-1.49624 0.19545,-1.75572 0.33025,-3.58219 0.37406,-5.43227 2.50383,0.1685 6.67913,0.28307 10.625283,-0.34373 0.003,0.0169 0.0101,0.0303 0.0135,0.0472 0.064,0.22579 0.34373,1.2536 0.56615,2.2949 0.0876,0.43472 0.16849,0.86943 0.23589,1.30415 z"
     fill="#ffffff"
     stroke="#26cbff"
     stroke-width="1.5"
     id="path195"
     style="mix-blend-mode:normal;fill-rule:nonzero;stroke-linecap:butt;stroke-linejoin:miter;stroke-miterlimit:10;stroke-dasharray:none;stroke-dashoffset:0" />
  <path
     d="m 84.019834,45.406335 c -0.1449,1.3547 -0.39091,2.65548 -0.73127,3.90908 -0.35047,0.0438 -0.70431,0.0876 -1.06826,0.12468 l -1.68158,-6.1905 -0.49874,-6.98916 c 0,0 1.63103,1.0076 4.36739,1.93432 0.0236,2.45666 -0.12806,4.88972 -0.38754,7.21158 z"
     fill="#ffffff"
     stroke="#26cbff"
     stroke-width="1.5"
     id="path197"
     style="mix-blend-mode:normal;fill-rule:nonzero;stroke-linecap:butt;stroke-linejoin:miter;stroke-miterlimit:10;stroke-dasharray:none;stroke-dashoffset:0" />
  <path
     d="m 96.094177,45.436665 c -0.15839,-1.9478 -0.5156,-3.88213 -1.05815,-5.76589 0,0 0.97391,3.00258 1.05815,5.7659 z"
     fill="#ffffff"
     stroke="#26cbff"
     stroke-width="1.5"
     id="path199"
     style="mix-blend-mode:normal;fill-rule:nonzero;stroke-linecap:butt;stroke-linejoin:miter;stroke-miterlimit:10;stroke-dasharray:none;stroke-dashoffset:0" />
  <path
     d="m 96.592927,45.466995 c -0.0101,0.007 -5.122253,2.8543 -13.304353,3.84505 0.35047,-1.2536 0.60658,-2.55438 0.75149,-3.90908 0.26285,-2.31849 0.4145,-4.75155 0.38417,-7.20821 2.76668,0.90987 6.62185,1.74223 11.053263,1.50297 v 0 c 0.57288,1.88714 0.95031,3.82147 1.11543,5.76927 z"
     fill="#ffffff"
     stroke="#26cbff"
     stroke-width="1.5"
     id="path201"
     style="mix-blend-mode:normal;fill-rule:nonzero;stroke-linecap:butt;stroke-linejoin:miter;stroke-miterlimit:10;stroke-dasharray:none;stroke-dashoffset:0" />
  <path
     d="m 32.878294,49.463685 -0.2123,3.32609 c -12.45851,-1.35807 -19.86891,-6.88133 -19.86891,-6.88133 0.39428,-2.25109 1.03119,-4.46848 1.88377,-6.60836 v 0 c 5.08855,0.74138 9.61768,0.16512 12.90333,-0.60658 3.38001,-0.79192 5.44575,-1.79615 5.44575,-1.79615 l -0.21567,1.30078 0.37406,1.09858 -0.70431,1.94106 -0.42124,1.47265 -0.37742,2.27805 -0.1685,0.44146 z"
     fill="#ffffff"
     stroke="#26cbff"
     stroke-width="1.5"
     id="path203"
     style="mix-blend-mode:normal;fill-rule:nonzero;stroke-linecap:butt;stroke-linejoin:miter;stroke-miterlimit:10;stroke-dasharray:none;stroke-dashoffset:0" />
  <path
     d="m 37.427684,63.249185 c 0.13994,-0.90443 1.91542,-3.38478 1.91542,-3.38478 0,0 2.05536,2.06054 2.33524,2.96497 0.59832,1.93348 -0.98287,3.66466 -2.1953,3.66466 -1.21243,0 -2.36483,-1.2447 -2.05536,-3.24484 z"
     fill="#ffffff"
     stroke="#26cbff"
     stroke-width="1.5"
     id="path205"
     style="mix-blend-mode:normal;fill-rule:nonzero;stroke-linecap:butt;stroke-linejoin:miter;stroke-miterlimit:10;stroke-dasharray:none;stroke-dashoffset:0" />
</svg>
